<svg width="584" height="496" viewBox="0 0 584 496" fill="none" xmlns="http://www.w3.org/2000/svg">
<g clip-path="url(#clip0_690_1247)">
<path d="M531.51 306.386C519.442 309.289 513.868 336.65 511.478 370.661C509.087 404.671 510.89 441.673 510.89 441.673" stroke="#2D2E2E" stroke-width="1.56279" stroke-miterlimit="10"/>
<path d="M517.448 435.677C521.628 392.716 528.953 323.711 525.208 289.496C522.817 268.004 506.582 258.811 495.907 270.318" stroke="#2D2E2E" stroke-width="1.56279" stroke-miterlimit="10"/>
<path d="M527.189 233.789C518.049 227.46 504.92 247.15 501.34 300.275C497.761 353.4 507.898 429.757 507.898 429.757" stroke="#2D2E2E" stroke-width="1.56279" stroke-miterlimit="10"/>
<path d="M527.189 233.789C511.146 229.787 500.343 249.029 513.549 263.477C526.754 277.925 549.241 292.348 549.241 292.348C549.241 292.348 558.471 273.169 559.673 253.044C560.874 232.919 550.353 224.813 538.822 225.772C529.26 226.577 527.189 233.789 527.189 233.789Z" fill="#0ED316"/>
<path d="M475.453 326.447C489.094 309.596 491.893 311.999 505.137 301.975C518.381 291.951 519.199 282.324 513.153 274.703C507.106 267.083 495.907 270.292 495.907 270.292C495.907 270.292 495.102 262.621 483.123 262.621C471.145 262.621 461.877 276.685 464.28 297.909C466.684 319.134 475.453 326.447 475.453 326.447Z" fill="#0ED316"/>
<path d="M531.51 306.386C522.306 302.781 492.826 302.781 503.386 328.851C513.945 354.921 532.277 361.519 539.973 376.862C544.243 385.39 543.923 396.207 543.923 396.207C543.923 396.207 558.535 387.985 572.507 358.476C584.307 333.556 579.705 304.954 560.069 297.909C536.585 289.547 531.51 306.386 531.51 306.386Z" fill="#0ED316"/>
<path d="M542.12 494.325H491.113L484.057 405.067H549.177L542.12 494.325Z" fill="#9FC3FA"/>
<path d="M163.645 75.4363C156.186 75.4363 148.895 73.2242 142.693 69.0797C136.491 64.9351 131.658 59.0444 128.803 52.1523C125.949 45.2602 125.202 37.6763 126.657 30.3597C128.112 23.0431 131.704 16.3224 136.978 11.0474C142.252 5.77243 148.972 2.18012 156.287 0.724761C163.603 -0.730602 171.185 0.0163417 178.076 2.87114C184.967 5.72594 190.857 10.5604 195.001 16.7631C199.145 22.9658 201.357 30.2582 201.357 37.7182C201.357 42.6714 200.381 47.5761 198.486 52.1523C196.591 56.7285 193.813 60.8865 190.311 64.3889C186.809 67.8914 182.652 70.6697 178.076 72.5652C173.501 74.4607 168.597 75.4363 163.645 75.4363Z" fill="#DBEAFE"/>
<path d="M163.683 41.733C165.9 41.733 167.697 39.9355 167.697 37.7182C167.697 35.501 165.9 33.7035 163.683 33.7035C161.466 33.7035 159.669 35.501 159.669 37.7182C159.669 39.9355 161.466 41.733 163.683 41.733Z" fill="#6B88AF"/>
<path d="M163.747 14.7804C163.266 14.7804 162.804 14.9717 162.464 15.3122C162.123 15.6527 161.932 16.1145 161.932 16.596V38.9073H165.562V16.596C165.564 16.3571 165.518 16.1203 165.428 15.8992C165.337 15.6782 165.203 15.4774 165.035 15.3084C164.866 15.1395 164.665 15.0058 164.444 14.9152C164.223 14.8245 163.986 14.7787 163.747 14.7804Z" fill="#6B88AF"/>
<path d="M187.704 20.6748L163.824 35.2762L165.677 38.3065L189.545 23.6923C189.921 23.463 190.199 23.1008 190.322 22.6772C190.445 22.2535 190.405 21.7992 190.209 21.4036C190.101 21.183 189.948 20.9873 189.76 20.8292C189.572 20.6711 189.354 20.554 189.118 20.4854C188.882 20.4167 188.634 20.3982 188.391 20.4308C188.147 20.4634 187.913 20.5465 187.704 20.6748Z" fill="#6B88AF"/>
<path d="M369.591 53.7899H292.224V66.1794H369.591V53.7899Z" fill="white" fill-opacity="0.5"/>
<path d="M369.591 37.6926H292.224V50.0821H369.591V37.6926Z" fill="white" fill-opacity="0.5"/>
<path d="M411.329 67.5725L421.852 6.51294L411.912 4.79934L401.389 65.8589L411.329 67.5725Z" fill="white" fill-opacity="0.5"/>
<path d="M398.765 67.5636L409.288 6.50403L399.348 4.79042L388.825 65.85L398.765 67.5636Z" fill="white" fill-opacity="0.5"/>
<path d="M386.185 67.5674L396.708 6.50781L386.768 4.79421L376.245 65.8538L386.185 67.5674Z" fill="white" fill-opacity="0.5"/>
<path d="M418.898 67.5859V23.2191H420.764L422.81 67.5859H418.898Z" fill="white" fill-opacity="0.5"/>
<path d="M432.091 64.9777H276.448V73.8254H432.091V64.9777Z" fill="#DBEAFE"/>
<path d="M319.888 304.469H326.395L306.631 493.648H300.124L319.888 304.469Z" fill="#9C745B"/>
<path d="M422.976 380.186H414.615V469.713H422.976V380.186Z" fill="#201D29"/>
<path d="M418.131 439.461H419.409C421.016 439.461 422.558 440.1 423.694 441.236C424.83 442.373 425.469 443.914 425.469 445.522V472.743C425.469 473.506 425.166 474.237 424.626 474.777C424.087 475.316 423.355 475.62 422.592 475.62H414.922C414.159 475.62 413.428 475.316 412.888 474.777C412.349 474.237 412.046 473.506 412.046 472.743V445.522C412.046 444.724 412.203 443.934 412.51 443.197C412.816 442.46 413.264 441.79 413.83 441.227C414.395 440.664 415.066 440.218 415.804 439.915C416.542 439.612 417.333 439.458 418.131 439.461Z" fill="#201D29"/>
<path d="M418.795 472.576C418.324 472.576 417.872 472.764 417.539 473.097C417.206 473.43 417.019 473.882 417.019 474.354V485.861C417.019 486.332 417.206 486.784 417.539 487.118C417.872 487.451 418.324 487.638 418.795 487.638C419.267 487.638 419.719 487.451 420.052 487.118C420.385 486.784 420.572 486.332 420.572 485.861V474.354C420.572 473.882 420.385 473.43 420.052 473.097C419.719 472.764 419.267 472.576 418.795 472.576Z" fill="#201D29"/>
<path d="M429.905 389.06H407.687C406.18 389.062 404.707 388.621 403.449 387.791C402.192 386.961 401.207 385.779 400.617 384.393L397.651 377.399C397.152 376.232 396.95 374.959 397.064 373.695C397.178 372.43 397.603 371.214 398.303 370.154C399.002 369.095 399.953 368.226 401.071 367.625C402.189 367.023 403.439 366.709 404.708 366.71H432.832C434.102 366.709 435.351 367.023 436.469 367.625C437.587 368.226 438.538 369.095 439.238 370.154C439.937 371.214 440.363 372.43 440.476 373.695C440.59 374.959 440.388 376.232 439.889 377.399L436.91 384.393C436.325 385.769 435.349 386.944 434.105 387.773C432.86 388.602 431.4 389.049 429.905 389.06Z" fill="#201D29"/>
<path d="M460.586 489.377C460.586 490.568 460.233 491.732 459.571 492.723C458.909 493.713 457.969 494.485 456.869 494.941C455.769 495.396 454.558 495.516 453.39 495.283C452.222 495.051 451.149 494.477 450.307 493.635C449.465 492.793 448.891 491.72 448.659 490.552C448.427 489.384 448.546 488.173 449.002 487.072C449.458 485.972 450.229 485.031 451.219 484.37C452.21 483.708 453.374 483.355 454.565 483.355C455.356 483.353 456.14 483.508 456.871 483.81C457.602 484.112 458.267 484.555 458.826 485.115C459.385 485.674 459.829 486.339 460.131 487.07C460.433 487.802 460.587 488.586 460.586 489.377Z" fill="#201D29"/>
<path d="M424.804 489.377C424.804 490.569 424.451 491.733 423.788 492.724C423.126 493.715 422.185 494.486 421.084 494.942C419.983 495.397 418.772 495.516 417.603 495.282C416.435 495.049 415.362 494.474 414.521 493.631C413.679 492.787 413.107 491.713 412.876 490.544C412.645 489.375 412.766 488.164 413.224 487.064C413.681 485.963 414.455 485.024 415.447 484.364C416.439 483.703 417.604 483.352 418.796 483.355C419.586 483.353 420.369 483.508 421.1 483.81C421.83 484.112 422.494 484.556 423.052 485.116C423.611 485.675 424.053 486.34 424.354 487.071C424.654 487.803 424.807 488.586 424.804 489.377Z" fill="#201D29"/>
<path d="M377.006 489.377C377.006 490.568 377.359 491.732 378.02 492.723C378.682 493.713 379.622 494.485 380.723 494.941C381.823 495.396 383.033 495.516 384.201 495.283C385.369 495.051 386.442 494.477 387.284 493.635C388.126 492.793 388.7 491.72 388.932 490.552C389.165 489.384 389.045 488.173 388.59 487.072C388.134 485.972 387.362 485.031 386.372 484.37C385.382 483.708 384.218 483.355 383.027 483.355C382.236 483.353 381.452 483.508 380.721 483.81C379.989 484.112 379.325 484.555 378.765 485.115C378.206 485.674 377.763 486.339 377.461 487.07C377.159 487.802 377.004 488.586 377.006 489.377Z" fill="#201D29"/>
<path d="M385.315 491.934L381.761 490.323C384.978 483.244 390.191 477.258 396.761 473.099C403.33 468.941 410.971 466.79 418.745 466.912C426.517 466.791 434.155 468.942 440.722 473.101C447.29 477.259 452.5 483.245 455.715 490.323L452.174 491.934C449.266 485.541 444.555 480.136 438.619 476.384C432.682 472.631 425.779 470.695 418.757 470.812C411.732 470.693 404.825 472.629 398.884 476.381C392.943 480.133 388.227 485.539 385.315 491.934Z" fill="#201D29"/>
<path d="M506.096 200.942C499.487 188.271 477.179 186.878 477.179 186.878L423.002 200.418C423.002 200.418 400.413 239.862 396.041 260.281C392.73 275.777 353.854 334.566 338.181 361.187C333.183 369.651 337.146 370.316 339.92 371.594C369.553 385.339 459.422 371.594 459.422 371.594C470.659 371.594 482.05 360.343 484.402 349.347C487.074 336.945 489.643 317.689 489.707 289.599C489.835 231.219 519.66 226.948 506.096 200.942Z" fill="#201D29"/>
<path d="M467.105 354.346C469.993 353.362 472.561 351.617 474.539 349.295C476.517 346.972 477.831 344.159 478.342 341.151C480.978 324.109 482.23 306.881 482.088 289.637C482.203 231.219 505.099 217.653 497.301 199.011C488.352 177.748 429.917 186.404 410.627 199.011C394.545 209.521 392.73 239.926 388.409 260.383C384.727 277.618 379.805 339.873 378.361 358.936C408.633 360.803 438.725 364.178 467.105 354.346Z" fill="#434343"/>
<path d="M394.89 447.529L399.901 472.628C399.901 472.628 396.552 478.189 391.886 480.401C387.77 482.345 385.635 483.802 381.301 484.045C378.105 484.212 377.389 493.468 377.389 493.468H405.053L428.895 483.496C428.64 479.446 427.901 475.441 426.696 471.566C424.702 465.276 418.591 443.016 418.591 443.016L394.89 447.529Z" fill="#272C34"/>
<path d="M324.119 447.798L323.442 472.628C319.001 476.507 314.002 479.697 308.612 482.089C302.745 484.71 289.437 493.469 296.621 493.469H327.085L353.931 493.596C353.931 493.596 354.263 483.879 352.282 477.589C350.3 471.298 346.657 466.337 346.324 457.4C345.992 448.462 345.66 443.502 345.66 443.502L324.119 447.798Z" fill="#272C34"/>
<path d="M420.521 324.018L411.062 301.541H379.102C379.102 301.541 358.405 308.649 335.343 315.145C312.281 321.64 298.271 324.018 293.004 338.159C287.737 352.3 296.557 380.749 303.064 400.26C309.571 419.771 321.984 455.865 321.984 455.865C321.984 455.865 337.12 459.995 346.58 456.453C346.58 456.453 342.477 383.574 338.706 364.779C338.706 364.779 370.23 364.191 383.244 363.002C396.258 361.813 415.792 334.669 420.521 324.018Z" fill="#323945"/>
<path d="M398.175 316.334C391.681 319.287 357.766 335.423 351.464 341.177C343.972 347.991 345.545 358.911 349.099 365.47C352.652 372.029 366.842 400.362 375.114 417.521C383.385 434.679 394.046 458.333 394.046 458.333C394.046 458.333 404.094 460.698 420.649 452.413C420.649 452.413 413.478 417.482 409.336 398.559C406.524 386.105 403.08 373.802 399.019 361.698C399.019 361.698 429.521 363.692 443.762 360.739C458.003 357.785 463.871 354.231 463.283 334.132C462.695 314.032 458.553 301.004 458.553 301.004L400.592 301.592L398.175 316.334Z" fill="#323945"/>
<path d="M400.54 301.541L398.175 316.334C391.681 319.287 357.766 335.423 351.464 341.177C343.972 347.991 345.545 358.91 349.099 365.47C352.652 372.029 366.842 400.362 375.114 417.521" stroke="#272C34" stroke-width="0.989106" stroke-miterlimit="10"/>
<path d="M393.343 351.022C393.343 351.022 401.205 365.086 406.127 387.065" stroke="#272C34" stroke-width="0.989106" stroke-miterlimit="10"/>
<path d="M415.28 138.406C414.615 141.373 416.558 163.595 419.115 168.261C420.215 170.23 435.99 175.115 435.99 175.115C435.99 175.115 423.206 215.377 414.973 216.822C406.741 218.267 381.812 180.612 381.812 180.612C381.812 180.612 393.445 176.048 394.123 174.641C395.964 170.806 393.369 147.05 393.369 147.05L415.28 138.406Z" fill="#E8B3A0"/>
<path d="M394.148 174.641C393.741 175.119 393.235 175.502 392.666 175.767C396.552 176.122 400.47 175.665 404.171 174.424C410.818 172.276 414.564 167.903 417.543 162.623C415.868 154.299 414.833 140.682 415.344 138.406L393.458 147.05C393.458 147.05 395.989 170.819 394.148 174.641Z" fill="#D49684"/>
<path d="M413.299 163.799C410.512 166.203 405.628 171.892 396.68 173.427C393.241 174.015 388.179 172.8 386.184 170.959C382.349 167.469 376.929 157.022 377.542 151.192C377.862 148.072 377.542 143.93 378.079 140.145C378.604 136.859 378.399 132.474 378.898 130.479C380.572 123.6 384.407 116.415 390.237 115.213C406.101 111.978 427.003 127.602 426.249 132.474C425.52 137.064 422.797 144.902 421.582 150.873C420.598 155.373 418.041 159.733 413.299 163.799Z" fill="#E7B2A1"/>
<path d="M393.752 127.973L399.275 128.267L406.702 120.903L405.424 129.38L408.07 129.84C408.703 126.68 410.128 123.732 412.212 121.273L411.829 130.224C414.09 131.897 416.54 133.3 419.128 134.404C420.578 134.807 421.942 135.47 423.155 136.361L418.284 118.588L407.687 113.474L393.957 114.753L388.191 122.629L393.752 127.973Z" fill="#D49684"/>
<path d="M379.767 130.262C380.444 127.296 384.995 119.304 384.995 119.304L382.937 118.166C379.639 116.351 378.949 120.89 376.66 124.559L378.693 135.926C379.69 133.126 379.434 131.668 379.767 130.262Z" fill="#2A2D33"/>
<path d="M416.034 124.074C417.556 127.909 419.985 127.82 422.605 130.467C425.226 133.113 423.513 149.351 423.513 149.351C426.308 146.78 428.522 143.641 430.007 140.145C430.621 138.637 433.088 135.031 433.842 130.825C435.453 122.258 433.612 119.727 430.94 117.758C428.985 116.529 426.643 116.073 424.369 116.479L416.034 124.074Z" fill="#2A2D33"/>
<path d="M422.477 143.776C423.653 142.664 426.773 140.452 428.064 142.038C429.355 143.623 428.562 151.563 425.507 154.823C424.692 155.717 423.653 156.376 422.497 156.731C421.342 157.086 420.112 157.125 418.936 156.844L420.585 146.283L422.477 143.776Z" fill="#E7B2A1"/>
<path d="M420.713 126.592C420.713 126.592 418.949 134.404 419.857 136.885C421.506 141.437 420.291 150.655 420.291 150.655L424.127 142.562L427.271 135.696L420.713 126.592Z" fill="#2A2D33"/>
<path d="M423.385 145.848C424.497 143.738 426.773 143.636 426.939 145.157C427.105 146.679 426.261 147.011 426.261 147.011C425.837 147.069 425.431 147.219 425.07 147.451C424.71 147.683 424.406 147.991 424.178 148.354C423.082 150.131 422.441 152.151 422.311 154.235C422.311 154.235 420.701 150.962 423.385 145.848Z" fill="#D49684"/>
<path d="M410.371 119.458C412.532 121.926 411.01 129.073 409.898 130.249C409.898 130.249 419.575 133.931 423.104 132.359C426.274 130.927 427.412 126.439 427.412 126.439L423.922 118.934L414.973 116.287L410.371 119.458Z" fill="#2A2D33"/>
<path d="M425.009 110.917C424.024 109.293 418.617 103.834 405.974 103.783C396.795 103.783 389.47 106.544 386.146 109.14C380.342 113.692 378.207 118.857 376.66 124.623L380.496 126.132C384.783 127.331 389.211 127.958 393.663 127.999C395.434 125.679 397.511 123.611 399.837 121.849C398.45 123.76 397.471 125.936 396.961 128.242C400.183 128.6 405.296 129.444 405.296 129.444C406.702 125.097 411.688 120.801 412.084 121.338L423.59 122.233L426.773 119.995C427.184 116.858 426.564 113.672 425.009 110.917Z" fill="#2A2D33"/>
<path d="M397.92 134.942C398.211 133.977 398.842 133.15 399.697 132.615C401.671 132.763 403.595 133.309 405.353 134.221C407.111 135.133 408.665 136.391 409.924 137.921C409.924 137.921 408.863 137.818 408.453 137.716C407.444 137.422 402.023 134.507 397.92 134.942Z" fill="#2A2D33"/>
<path d="M390.224 134.2C390.448 133.251 390.34 132.253 389.917 131.374C389.917 131.374 386.798 130.249 380.969 132.819C380.969 132.819 381.147 133.573 382.247 133.458C383.346 133.343 387.718 132.116 390.224 134.2Z" fill="#2A2D33"/>
<path d="M393.471 142.038C392.615 142.971 391.835 143.943 391.055 144.94C390.275 145.937 389.521 146.935 388.792 147.957L388.243 148.725L387.974 149.108L387.718 149.607C387.67 149.795 387.64 149.988 387.629 150.182C387.639 150.37 387.678 150.556 387.744 150.732C387.867 151.054 388.074 151.337 388.345 151.55C389.099 152.27 390.07 152.719 391.106 152.829C391.106 152.829 391.886 152.727 391.375 152.42C390.488 152.066 389.633 151.638 388.818 151.141C388.647 150.981 388.523 150.777 388.46 150.552C388.397 150.326 388.397 150.088 388.46 149.863L388.639 149.543L388.92 149.159L389.47 148.392C390.186 147.369 390.902 146.346 391.579 145.298C392.257 144.25 392.87 143.15 393.471 142.038Z" fill="#D49684"/>
<path d="M462.337 257.647C463.36 251.254 453.146 181.507 452.11 180.587C450.154 178.899 436.463 174.578 428.153 172.059C423.807 181.009 417.517 186.583 406.983 187.031C400.425 187.312 391.541 184.052 387.488 178.234C373.937 182.07 370.179 184.141 370.179 184.141C370.179 184.141 365.615 198.206 367.277 200.942C368.939 203.678 370 240.501 369.553 259.565C369.335 268.579 365.181 295.173 364.35 307.154C378.77 315.464 407.214 312.971 410.627 313.38C414.462 313.841 431.912 314.595 442.778 317.817C455.562 321.589 461.685 327.803 462.363 327.087C464.996 324.235 460.688 267.876 462.337 257.647Z" fill="#8BD0FF"/>
<path d="M433.28 173.67C428.882 172.391 426.428 171.496 426.428 171.496C424.6 176.131 421.343 180.063 417.129 182.721C412.915 185.378 407.965 186.624 402.995 186.276C391.093 185.33 389.329 177.083 389.329 177.083C387.273 177.788 385.255 178.599 383.282 179.513C384.714 182.709 389.304 186.941 392.384 188.629C396.824 190.64 401.664 191.611 406.536 191.468C413.248 190.994 425.034 190.189 433.28 173.67Z" fill="white"/>
<path d="M402.356 142.882C402.062 144.339 401.077 145.362 400.17 145.17C399.262 144.978 398.764 143.649 399.07 142.191C399.377 140.734 400.349 139.723 401.269 139.915C402.19 140.107 402.701 141.398 402.356 142.882Z" fill="#2A2D33"/>
<path d="M387.629 139.826C387.322 141.27 386.351 142.293 385.43 142.101C384.51 141.91 384.037 140.58 384.343 139.135C384.65 137.69 385.622 136.655 386.542 136.846C387.463 137.038 387.936 138.368 387.629 139.826Z" fill="#2A2D33"/>
<path d="M389.137 275.854C386.581 275.24 379.741 275.649 375.714 276.059C371.687 276.468 370.256 276.404 368.428 276.583C366.6 276.762 366.127 277.976 367.609 278.756C369.092 279.536 371.125 280.636 376.724 280.035C382.324 279.434 389.802 279.281 389.802 279.281C389.802 279.281 390.518 276.122 389.137 275.854Z" fill="#E7B2A1"/>
<path d="M370.627 277.951C373.686 277.266 376.81 276.91 379.946 276.89C383.128 276.918 386.258 277.707 389.073 279.191C387.079 279.191 381.275 279.408 376.724 279.933C371.125 280.585 369.054 279.472 367.61 278.654C367.42 278.553 367.244 278.428 367.085 278.283C368.273 278.277 369.458 278.166 370.627 277.951Z" fill="#D38576"/>
<path d="M361.895 291.811C361.775 291.767 361.659 291.711 361.55 291.644L361.895 291.811Z" fill="#E7B2A1"/>
<path d="M360.118 287.361C360.233 286.581 363.007 284.165 364.823 282.758C367.152 280.991 369.8 279.689 372.621 278.923C375.484 278.04 383.845 275.726 385.865 275.649C389.904 275.496 393.407 276.928 395.81 277.452C398.214 277.976 402.969 280.47 405.743 280.47C409.579 280.47 425.507 276.813 425.507 276.813L423.487 290.2C423.487 290.2 416.801 291.21 414.539 291.478C408.581 292.194 404.938 294.624 399.441 294.918C393.944 295.212 391.771 292.949 389.444 292.757C386.607 292.676 383.779 293.11 381.096 294.035C379.038 294.828 375.983 296.759 374.398 296.759C372.813 296.759 372.403 294.905 372.403 294.905C371.12 295.246 369.871 295.704 368.671 296.273C367.162 297.053 365.002 295.787 365.104 294.317C365.104 294.317 363.723 295.595 362.649 295.199C361.576 294.803 361.077 293.626 361.87 291.862C361.87 291.862 365.27 288.729 366.868 287.476C368.507 286.294 370.215 285.21 371.982 284.229C373.534 283.682 375.118 283.23 376.724 282.873C376.724 282.873 374.168 283.129 372.25 283.41C371.326 283.526 370.447 283.873 369.693 284.42C367.801 285.61 366.421 286.53 364.12 287.898C362.867 288.55 359.914 288.947 360.118 287.361Z" fill="#E7B2A1"/>
<path d="M413.196 278.411C416.725 277.516 422.592 287.604 422.759 294.291C422.759 294.291 460.777 286.773 476.693 281.032C492.609 275.291 494.808 270.42 493.044 262.02C491.279 253.619 477.473 209.24 475.261 202.169C473.05 195.099 469.611 187.747 460.777 183.323C455.009 180.531 448.922 178.453 442.65 177.135C442.65 177.135 443.097 202.335 444.414 210.288C445.731 218.241 458.566 254.949 458.566 254.949L413.196 278.411Z" fill="#8BD0FF"/>
<path d="M471.631 260.127C471.631 260.127 465.495 253.862 458.566 254.898" stroke="#3FA9F5" stroke-width="1.06823" stroke-linecap="round" stroke-linejoin="round"/>
<path d="M370.153 184.141C364.969 186.882 360.336 190.558 356.488 194.984C344.266 207.769 331.329 227.587 324.771 237.266C316.27 249.796 310.006 258.299 310.006 263.669C310.006 269.039 314.033 281.122 314.033 281.122C314.033 281.122 319.849 275.304 326.561 274.409C333.272 273.514 342.911 277.733 342.911 277.733C342.911 277.733 342.464 267.326 342.911 264.641C343.359 261.956 355.631 249.656 361.448 244.733C367.264 239.811 379.447 230.554 379.447 230.554L370.153 184.141Z" fill="#8BD0FF"/>
<path d="M360.796 293.473H342.067L323.352 227.946H337.58L360.796 293.473Z" fill="#585858"/>
<path d="M355.414 293.473H272.843L254.115 227.946H336.698L355.414 293.473Z" fill="#201D29"/>
<path d="M355.26 291.977H272.089V296.861H355.26V291.977Z" fill="#201D29"/>
<path d="M397.166 291.977H355.26V296.861H397.166V291.977Z" fill="#201D29"/>
<path d="M388.294 156.013C391.042 157.457 399.454 156.447 402.062 154.555C402.062 154.555 399.198 159.35 394.225 159.056C388.843 158.736 388.294 156.013 388.294 156.013Z" fill="#2A2D33"/>
<path d="M369.923 214.84C369.923 214.84 371.764 248.991 370.205 262.71" stroke="#3FA9F5" stroke-width="1.06823" stroke-miterlimit="10"/>
<path d="M444.414 210.237C445.693 218.203 458.566 254.898 458.566 254.898L413.196 278.411C416.725 277.516 422.592 287.604 422.759 294.291C422.759 294.291 460.777 286.773 476.693 281.032" stroke="#3FA9F5" stroke-width="1.06823" stroke-linecap="round" stroke-linejoin="round"/>
<path d="M310.236 304.469H303.729L323.505 493.648H330L310.236 304.469Z" fill="#B48669"/>
<path d="M510.008 304.469H503.501L523.264 493.648H529.771L510.008 304.469Z" fill="#9C745B"/>
<path d="M193.827 304.469H200.321L180.558 493.648H174.051L193.827 304.469Z" fill="#B48669"/>
<path d="M539.832 297.04H244.451V306.885H539.832V297.04Z" fill="#9C745B"/>
<path d="M296.57 297.04H151.82V306.885H296.57V297.04Z" fill="#B48669"/>
<path d="M0 494.645H584" stroke="#DBEAFE" stroke-opacity="0.2" stroke-width="2.0969" stroke-miterlimit="10"/>
<path d="M204.387 293.818L286.97 293.844L297.21 225.644L217.375 225.618L204.387 293.818Z" fill="#8BBAFF"/>
<path d="M296.276 225.631L281.549 293.831H286.931L298.181 227.345C298.216 227.131 298.204 226.912 298.147 226.703C298.089 226.495 297.987 226.301 297.847 226.136C297.707 225.97 297.533 225.837 297.337 225.746C297.141 225.654 296.927 225.607 296.711 225.606L296.276 225.631Z" fill="#B7ACAC"/>
<path d="M173.092 297.232H285.333C286.654 297.232 287.724 296.161 287.724 294.841V294.739C287.724 293.418 286.654 292.348 285.333 292.348H173.092C171.772 292.348 170.701 293.418 170.701 294.739V294.841C170.701 296.161 171.772 297.232 173.092 297.232Z" fill="#B7ACAC"/>
<path d="M140.174 173.235C141.122 167.742 141.669 162.186 141.81 156.613L149.174 157.56L169.461 160.117C169.461 161.587 169.193 165.474 168.861 170.192L168.413 176.828C168.447 178.22 168.382 179.613 168.221 180.996C167.736 183.553 167.876 183.898 167.416 186.11C166.355 191.02 174.946 203.806 174.882 204.931C174.882 204.931 138.461 184.589 131.34 182.019C131.34 182.006 139.356 177.403 140.174 173.235Z" fill="#EBB6A4"/>
<path d="M187.026 149.492C184.585 150.873 183.408 152.842 183.472 153.698C183.536 154.555 183.779 163.863 183.229 165.602C182.68 167.341 181.299 169.259 177.196 169.885L175.61 170.09C173.169 170.409 170.19 171.177 168.49 176.687C168.475 176.755 168.45 176.82 168.413 176.879C167.467 179.001 163.21 174.45 159.349 170.064C157.503 167.839 155.518 165.734 153.405 163.761C151.471 162.11 150.011 159.974 149.174 157.572C146.22 150.272 146.042 140.312 146.042 140.312L149.8 124.726L170.995 117.054L181.222 119.522C181.759 119.816 183.038 125.071 183.038 125.071C183.038 125.071 184.099 135.3 184.124 137.857C184.138 140.224 184.845 142.535 186.157 144.505C187.282 146.078 189.481 148.124 187.026 149.492Z" fill="#EBB6A4"/>
<path d="M164.693 150.451C166.483 148.891 166.674 145.068 166.278 142.958C165.882 140.849 164.182 137.166 167.071 134.558C169.96 131.95 163.006 124.636 163.006 124.636C163.006 124.636 170.804 120.711 175.278 120.136C179.752 119.56 183.025 125.033 183.025 125.033C184.596 123.449 185.54 121.351 185.684 119.126C185.582 115.469 181.414 111.224 168.707 109.293C158.685 107.759 145.428 108.411 141.043 109.766C133.513 112.093 130.317 115.686 131.775 122.974C129.109 124.486 126.961 126.768 125.613 129.52C124.092 133.066 123.624 136.975 124.266 140.78C124.908 144.585 126.631 148.124 129.231 150.975C132.574 154.296 135.525 157.99 138.026 161.984C139.287 164.328 140.188 166.85 140.698 169.463C140.698 169.463 149.071 169.783 153.788 164.988C157.355 161.357 158.045 152.305 158.045 152.305L159.106 142.536L164.693 150.451Z" fill="#4E2100"/>
<path d="M162.149 143.534C158.979 140.005 153.891 140.836 154.479 146.014C154.978 150.323 157.036 151.128 160.193 154.581C162.379 156.946 164.284 155.719 164.374 154.517C164.629 151.103 164.08 145.72 162.124 143.534" fill="#E7B2A1"/>
<path d="M162.737 151.192C162.987 151.945 163.278 152.683 163.607 153.404C163.875 153.11 163.351 152.369 163.031 150.847C162.571 148.635 163.121 150.847 162.392 148.673C161.663 146.5 161.114 145.208 159.516 144.531C158.993 144.33 158.428 144.268 157.875 144.351C157.321 144.433 156.799 144.659 156.358 145.004C157.821 145.498 159.155 146.314 160.261 147.391C161.367 148.469 162.218 149.781 162.75 151.231" fill="#D38576"/>
<path d="M183.664 155.092C182.329 155.18 180.988 155.037 179.701 154.67C179.701 154.67 180.353 158.506 183.626 158.045L183.664 155.092Z" fill="white"/>
<path d="M180.161 130.799C180.564 130.576 181.011 130.445 181.471 130.414C181.93 130.383 182.391 130.453 182.82 130.62C183.229 130.825 183.165 132.116 183.165 132.116C182.805 131.843 182.378 131.671 181.929 131.617C181.479 131.563 181.024 131.629 180.609 131.809C179.964 132.048 179.388 132.443 178.934 132.96C178.869 132.514 178.954 132.06 179.176 131.668C179.399 131.277 179.745 130.971 180.161 130.799Z" fill="#4E2100"/>
<path d="M181.542 137.524C181.619 138.713 182.117 139.634 182.642 139.595C183.166 139.557 183.524 138.56 183.434 137.383C183.345 136.207 182.846 135.274 182.322 135.312C181.798 135.351 181.44 136.348 181.542 137.524Z" fill="#4E2100"/>
<path d="M168.49 176.687C168.476 176.755 168.45 176.82 168.413 176.879C168.413 177.237 168.413 177.595 168.413 177.953C168.234 177.416 168.055 176.879 167.876 176.316C166.79 172.839 164.68 170.358 163.261 167.098C162.517 165.194 162.086 163.182 161.983 161.14C162.587 162.644 163.495 164.007 164.65 165.144C165.805 166.282 167.181 167.169 168.694 167.75C170.916 168.826 173.266 169.612 175.687 170.09C173.156 169.86 170.19 171.177 168.49 176.687Z" fill="#D38576"/>
<path d="M141.976 428.913L129.397 435.012L108.56 463.14L132.031 493.379H155.489C155.489 493.379 154.862 487.574 152.075 485.58C149.289 483.585 141.976 478.65 141.976 478.65L139.42 467.641L156.844 441.123L141.976 428.913Z" fill="#272C34"/>
<path d="M183.14 445.777L172.044 458.691C172.044 458.691 166.93 476.067 166.93 477.55C166.93 479.033 164.719 487.907 165.077 490.119C165.434 492.33 165.077 494.926 167.301 494.926C169.525 494.926 218.615 492.752 218.615 492.752C218.615 492.752 218.986 487.203 211.213 483.879C205.281 481.322 195.681 474.993 194.939 473.893C194.198 472.794 199.017 446.148 199.017 446.148L183.14 445.777Z" fill="#272C34"/>
<path d="M165.601 372.182L129.397 435.012C129.397 435.012 135.009 454.357 156.857 455.61C156.857 455.61 192.421 408.673 203.658 396.795C214.895 384.917 211.763 367.464 211.763 367.464L165.601 372.182Z" fill="#354968"/>
<path d="M98.6011 329.938C113.622 327.214 143.267 312.728 145.313 310.682C147.358 308.637 199.554 313.981 213.514 317.881C230.133 322.535 237.215 328.57 238.583 338.824C239.951 349.078 227.666 390.734 220.149 413.263C212.632 435.792 204.949 458.358 204.949 458.358C204.949 458.358 186.835 467.603 172.044 458.729C172.044 458.729 183.958 385.262 185.326 375.021C185.326 375.021 159.375 377.757 135.469 371.607C111.564 365.457 98.6011 329.938 98.6011 329.938Z" fill="#354968"/>
<path d="M130.407 185.075C131.404 182.518 132.964 174.514 141.976 173.567C150.989 172.621 166.125 175.076 168.643 177.096C171.162 179.116 171.66 197.221 171.66 197.221L130.407 185.075Z" fill="white"/>
<path d="M98.4476 335.461C124.015 332.904 158.25 310.452 158.25 310.452C158.25 310.452 161.331 300.569 165.754 287.31C170.177 274.051 174.102 265.191 177.055 252.903C180.008 240.616 187.371 202.297 185.901 196.403C184.431 190.509 179.024 186.571 172.632 184.116C166.24 181.661 136.76 177.723 121.049 180.676C105.338 183.63 98.959 208.191 92.0557 222.933C85.1525 237.675 71.4228 304.993 70.4384 314.825C69.4541 324.657 73.417 337.916 98.4476 335.461Z" fill="#FFC077"/>
<path d="M172.044 458.729L185.326 375.021" stroke="#444644" stroke-width="1.51333" stroke-miterlimit="10"/>
<path d="M129.883 380.186H121.522V469.713H129.883V380.186Z" fill="#201D29"/>
<path d="M125.038 439.461H126.316C127.923 439.461 129.465 440.1 130.601 441.236C131.737 442.373 132.376 443.914 132.376 445.522V472.743C132.376 473.506 132.073 474.237 131.533 474.777C130.994 475.316 130.262 475.62 129.499 475.62H121.829C121.066 475.62 120.335 475.316 119.795 474.777C119.256 474.237 118.953 473.506 118.953 472.743V445.522C118.953 444.724 119.11 443.934 119.417 443.197C119.723 442.46 120.171 441.79 120.737 441.227C121.302 440.664 121.973 440.218 122.711 439.915C123.449 439.612 124.24 439.458 125.038 439.461Z" fill="#201D29"/>
<path d="M125.703 472.576C125.231 472.576 124.779 472.764 124.446 473.097C124.113 473.43 123.926 473.882 123.926 474.354V485.861C123.926 486.332 124.113 486.784 124.446 487.118C124.779 487.451 125.231 487.638 125.703 487.638C126.174 487.638 126.626 487.451 126.959 487.118C127.292 486.784 127.48 486.332 127.48 485.861V474.354C127.48 473.882 127.292 473.43 126.959 473.097C126.626 472.764 126.174 472.576 125.703 472.576Z" fill="#201D29"/>
<path d="M136.799 389.06H114.593C113.087 389.062 111.613 388.621 110.356 387.791C109.099 386.961 108.114 385.779 107.524 384.393L104.558 377.399C104.059 376.232 103.857 374.959 103.971 373.695C104.084 372.43 104.51 371.214 105.209 370.154C105.909 369.095 106.86 368.226 107.978 367.625C109.096 367.023 110.346 366.709 111.615 366.71H139.739C141.008 366.709 142.258 367.023 143.376 367.625C144.494 368.226 145.445 369.095 146.145 370.154C146.844 371.214 147.27 372.43 147.383 373.695C147.497 374.959 147.295 376.232 146.796 377.399L143.817 384.393C143.231 385.771 142.253 386.947 141.006 387.777C139.759 388.606 138.296 389.052 136.799 389.06Z" fill="#201D29"/>
<path d="M167.48 489.377C167.48 490.569 167.126 491.733 166.464 492.724C165.802 493.715 164.861 494.486 163.76 494.942C162.659 495.397 161.448 495.516 160.279 495.282C159.111 495.049 158.038 494.474 157.197 493.631C156.355 492.787 155.783 491.713 155.552 490.544C155.321 489.375 155.442 488.164 155.9 487.064C156.357 485.963 157.131 485.024 158.123 484.364C159.115 483.703 160.28 483.352 161.471 483.355C162.262 483.353 163.045 483.508 163.776 483.81C164.506 484.112 165.17 484.556 165.728 485.116C166.287 485.675 166.729 486.34 167.03 487.071C167.33 487.803 167.483 488.586 167.48 489.377Z" fill="#201D29"/>
<path d="M131.685 489.377C131.685 490.569 131.332 491.733 130.67 492.724C130.008 493.715 129.066 494.486 127.965 494.942C126.864 495.397 125.653 495.516 124.485 495.282C123.316 495.049 122.244 494.474 121.402 493.631C120.561 492.787 119.988 491.713 119.757 490.544C119.526 489.375 119.647 488.164 120.105 487.064C120.563 485.963 121.336 485.024 122.328 484.364C123.32 483.703 124.486 483.352 125.677 483.355C126.468 483.353 127.251 483.508 127.981 483.81C128.712 484.112 129.375 484.556 129.934 485.116C130.492 485.675 130.935 486.34 131.235 487.071C131.536 487.803 131.689 488.586 131.685 489.377Z" fill="#201D29"/>
<path d="M83.9126 489.377C83.9126 490.568 84.2657 491.732 84.9274 492.723C85.589 493.713 86.5293 494.485 87.6296 494.941C88.7298 495.396 89.9404 495.516 91.1084 495.283C92.2764 495.051 93.3493 494.477 94.1914 493.635C95.0334 492.793 95.6069 491.72 95.8392 490.552C96.0715 489.384 95.9523 488.173 95.4966 487.072C95.0409 485.972 94.2691 485.031 93.2789 484.37C92.2888 483.708 91.1246 483.355 89.9338 483.355C89.1426 483.353 88.3589 483.508 87.6276 483.81C86.8963 484.112 86.2319 484.555 85.6724 485.115C85.113 485.674 84.6695 486.339 84.3675 487.07C84.0655 487.802 83.9109 488.586 83.9126 489.377Z" fill="#201D29"/>
<path d="M92.2221 491.934L88.6682 490.323C91.8852 483.244 97.0982 477.258 103.668 473.099C110.237 468.941 117.878 466.79 125.652 466.912C133.423 466.793 141.061 468.944 147.628 473.103C154.195 477.261 159.406 483.246 162.622 490.323L159.081 491.934C156.173 485.541 151.462 480.136 145.526 476.384C139.589 472.631 132.686 470.695 125.664 470.812C118.639 470.693 111.732 472.629 105.791 476.381C99.8502 480.133 95.1342 485.539 92.2221 491.934Z" fill="#201D29"/>
<path d="M154.338 363.373C126.7 369.369 118.991 335.334 116.447 295.429C115.204 276.784 114.918 258.088 115.591 239.414C116.281 217.845 103.229 202.182 79.272 203.525C79.272 203.525 97.0414 260.089 99.726 290.583C102.411 321.077 96.6834 344.616 113.277 362.401C129.87 380.186 154.338 363.373 154.338 363.373Z" fill="#434343"/>
<path d="M141.912 359.831C121.241 357.274 110.362 314.851 106.962 283.116C105.377 268.259 100.276 237.356 99.7005 226.859C99.1253 216.362 96.0444 203.985 77.3801 203.384C57.6803 202.745 35.3983 203.985 26.309 204.011C8.98706 204.011 7.91322 214.367 11.1603 222.435C18.5493 240.821 15.0849 315.669 28.6868 345.115C42.2887 374.561 61.5155 381.375 114.76 381.375C168.004 381.375 195.412 379.151 201.689 375.571C208.529 371.735 214.051 360.534 204.182 359.87C197.368 359.358 151.002 360.956 141.912 359.831Z" fill="#201D29"/>
<path d="M203.019 284.101C198.838 282.989 196.473 283.257 195.349 285.495C194.224 287.732 192.293 290.085 192.293 291.197C192.293 292.309 195.63 292.309 196.601 292.028C197.573 291.747 199.158 292.718 200.5 292.437C201.843 292.156 207.314 291.747 207.314 291.747L203.019 284.101Z" fill="#EBB6A4"/>
<path d="M157.879 204.42C159.055 193.309 174.345 184.116 174.345 184.116C182.414 186.774 189.38 192.024 194.159 199.05C201.549 210.467 214.971 240.706 221.005 253.466C227.039 266.226 230.299 275.47 231.641 281.518C232.984 287.566 231.757 298.472 213.616 297.13C195.476 295.787 184.06 264.219 172.708 248.761C161.356 233.303 156.537 217.193 157.879 204.42Z" fill="#FFC077"/>
<path d="M182.974 265.088C182.974 265.088 169.334 239.939 165.729 227.92" stroke="#3F88F5" stroke-width="1.39464" stroke-miterlimit="10"/>
</g>
<defs>
<clipPath id="clip0_690_1247">
<rect width="584" height="496" fill="white"/>
</clipPath>
</defs>
</svg>
