<svg width="753" height="454" viewBox="0 0 753 454" fill="none" xmlns="http://www.w3.org/2000/svg">
<g clip-path="url(#clip0_690_949)">
<path d="M694.116 26.7568H569.807V178.336H694.116V26.7568Z" stroke="#C1C6CF" stroke-width="1.24579" stroke-linecap="round" stroke-linejoin="round"/>
<path d="M685.988 36.6663H577.923V168.438H685.988V36.6663Z" stroke="#C1C6CF" stroke-width="1.37037" stroke-linecap="round" stroke-linejoin="round"/>
<path d="M651.113 79.1843H612.798V125.908H651.113V79.1843Z" stroke="#11527E" stroke-width="1.37037" stroke-linecap="round" stroke-linejoin="round"/>
<path d="M276.53 202.189V8.76685" stroke="url(#paint0_linear_690_949)" stroke-width="1.24579" stroke-linecap="round" stroke-linejoin="round"/>
<path d="M22.5752 308.93H276.519V210.853" stroke="#11527E" stroke-width="1.24579" stroke-linecap="round" stroke-linejoin="round"/>
<path d="M541.219 150.722V9.69238" stroke="url(#paint1_linear_690_949)" stroke-width="1.24579" stroke-linecap="round" stroke-linejoin="round"/>
<path d="M287.264 17.2017V308.93H541.219V157.34" stroke="url(#paint2_linear_690_949)" stroke-width="1.24579" stroke-linecap="round" stroke-linejoin="round"/>
<path d="M130.584 431.672H112.066V452.577H130.584V431.672Z" fill="white" stroke="#11527E" stroke-width="1.24579" stroke-linecap="round" stroke-linejoin="round"/>
<path d="M189.646 341.641H52.9922V433.798H189.646V341.641Z" fill="white" stroke="#11527E" stroke-width="1.24579" stroke-linecap="round" stroke-linejoin="round"/>
<path d="M185.508 345.619H57.1416V429.821H185.508V345.619Z" fill="#9EBEDF" stroke="#11527E" stroke-width="1.24579" stroke-linecap="round" stroke-linejoin="round"/>
<path d="M377.063 334.041H297.872C294.247 334.043 290.734 335.294 287.925 337.584C285.116 339.875 283.183 343.064 282.452 346.613L260.265 452.417H371.645L392.46 353.071C392.947 350.777 392.915 348.403 392.367 346.122C391.82 343.842 390.77 341.712 389.295 339.889C387.82 338.066 385.956 336.594 383.84 335.583C381.724 334.571 379.409 334.044 377.063 334.041Z" fill="#11527E" stroke="#11527E" stroke-width="1.24579" stroke-linecap="round" stroke-linejoin="round"/>
<path d="M224.475 373.69C224.475 373.69 211.147 394.537 211.593 395.406C212.039 396.275 220.669 406.504 221.343 406.961C222.017 407.418 226.11 407.19 226.11 407.19L232.899 401.475C232.876 400.603 232.645 399.748 232.225 398.983C231.539 397.84 229.505 397.623 229.505 397.623C229.505 397.623 233.128 388.788 232.934 386.514C232.739 384.239 232.282 377.427 232.282 377.427L224.475 373.69Z" fill="white" stroke="#11527E" stroke-width="1.24579" stroke-linecap="round" stroke-linejoin="round"/>
<path d="M229.505 397.715L224.967 402.47" stroke="#11527E" stroke-width="1.24579" stroke-linecap="round" stroke-linejoin="round"/>
<path d="M226.921 254.617C226.921 254.617 270.781 329.778 270.781 330.806C270.781 331.835 232.248 377.473 232.248 377.473L224.475 373.644L241.45 327.686L219.286 312.336L226.921 254.617Z" fill="white" stroke="#11527E" stroke-width="1.24579" stroke-linecap="round" stroke-linejoin="round"/>
<path d="M224.944 290.323L235.174 323.274L223.023 315.273L224.944 290.323Z" fill="#11527E" stroke="#11527E" stroke-width="1.24579" stroke-linecap="round" stroke-linejoin="round"/>
<path d="M260.447 324.108L241.45 327.732L251.692 320.954" stroke="#11527E" stroke-width="1.24579" stroke-linecap="round" stroke-linejoin="round"/>
<path d="M226.418 368.341L236.626 371.987" stroke="#11527E" stroke-width="1.24579" stroke-linecap="round" stroke-linejoin="round"/>
<path d="M225.847 282.79L220.474 331.618L221.549 390.103H128.812L127.2 363.277C127.2 363.277 97.1489 270.698 97.4233 267.498C97.6976 264.297 147.512 239.861 147.512 239.861L189.634 238.524L226.933 254.617L227.196 267.761" fill="white"/>
<path d="M225.847 282.79L220.474 331.618L221.549 390.103H128.812L127.2 363.277C127.2 363.277 97.1489 270.698 97.4233 267.498C97.6976 264.297 147.512 239.861 147.512 239.861L189.634 238.524L226.933 254.617L227.196 267.761" stroke="#11527E" stroke-width="1.24579" stroke-linecap="round" stroke-linejoin="round"/>
<path d="M169.082 254.971L177.746 265.452L171.814 380.342L182.753 393.109L196.436 378.97L183.21 265.909L186.411 250.411L181.393 237.644L159.046 239.473L169.082 254.971Z" fill="#F7931E" stroke="#11527E" stroke-width="1.24579" stroke-linecap="round" stroke-linejoin="round"/>
<path d="M145.352 201.229L150.976 228.866L172.443 247.108L186.662 235.301L186.137 221.345H179.964L153.125 207.938L145.352 201.229Z" fill="white" stroke="#11527E" stroke-width="1.24579" stroke-linecap="round" stroke-linejoin="round"/>
<path d="M177.278 242.547L181.839 262.937L194.447 242.81L186.4 229.666L186.662 235.301L177.278 242.547Z" fill="white" stroke="#11527E" stroke-width="1.24579" stroke-linecap="round" stroke-linejoin="round"/>
<path d="M150.976 228.866L144.003 241.198L170.842 264.275L173.254 244.696L150.976 228.866Z" fill="white" stroke="#11527E" stroke-width="1.24579" stroke-linecap="round" stroke-linejoin="round"/>
<path d="M142.529 193.56C142.529 193.56 139.637 187.102 136.733 190.223C133.83 193.343 137.179 201.801 140.963 204.018C144.746 206.235 147.204 205.161 147.204 205.161C147.204 205.161 153.651 215.836 154.988 216.728C156.325 217.619 176.363 226.752 178.992 227.643C181.621 228.535 190.56 225.414 192.343 222.968C194.127 220.522 192.789 196.257 192.343 189.125C191.898 181.993 187.005 153.957 186.114 152.402C185.222 150.848 187.005 134.378 182.776 134.378C179.899 134.5 177.084 135.257 174.534 136.595C174.534 136.595 177.209 131.703 174.089 133.258C170.968 134.812 166.087 138.378 148.267 145.053C130.446 151.728 136.322 162.597 136.813 163.74C137.305 164.883 142.529 193.56 142.529 193.56Z" fill="white" stroke="#11527E" stroke-width="1.24579" stroke-linecap="round" stroke-linejoin="round"/>
<path d="M142.529 193.56C142.529 193.56 142.369 193.206 142.094 192.726L142.529 193.56Z" stroke="#11527E" stroke-width="1.24579" stroke-linecap="round" stroke-linejoin="round"/>
<path d="M186.045 151.865C185.519 148.653 186.8 134.355 182.856 134.355C179.979 134.477 177.164 135.234 174.614 136.572C174.614 136.572 177.289 131.68 174.169 133.234C171.048 134.789 166.167 138.355 148.347 145.03C130.526 151.705 136.322 162.597 136.813 163.74C137.305 164.883 142.609 193.571 142.609 193.571L146.609 192.234C146.609 192.234 143.5 182.885 145.055 181.33C146.609 179.776 149.501 177.993 149.501 177.101C149.501 176.21 145.718 167.752 147.947 165.306C149.821 163.18 178.329 154.242 186.045 151.865Z" fill="#11527E" stroke="#11527E" stroke-width="1.24579" stroke-linecap="round" stroke-linejoin="round"/>
<path d="M180.398 176.416L184.182 201.801L178.169 200.235" stroke="#11527E" stroke-width="1.24579" stroke-linecap="round" stroke-linejoin="round"/>
<path d="M171.94 178.198C171.94 178.198 163.938 177.055 159.48 179.764" stroke="#11527E" stroke-width="2.49158" stroke-linecap="round" stroke-linejoin="round"/>
<path d="M181.964 170.861C181.964 170.861 182.856 163.512 188.423 165.958" stroke="#11527E" stroke-width="2.49158" stroke-linecap="round" stroke-linejoin="round"/>
<path d="M166.156 205.801C166.156 205.801 172.168 208.247 176.615 208.476" stroke="#11527E" stroke-width="1.24579" stroke-linecap="round" stroke-linejoin="round"/>
<path d="M170.168 185.319C170.168 186.794 169.471 187.994 168.602 187.994C167.733 187.994 167.047 186.794 167.047 185.319C167.047 183.845 167.745 182.656 168.602 182.656C169.459 182.656 170.168 183.845 170.168 185.319Z" fill="#11527E" stroke="#11527E" stroke-width="1.24579" stroke-linecap="round" stroke-linejoin="round"/>
<path d="M189.303 179.742C189.303 181.216 188.606 182.405 187.748 182.405C186.891 182.405 186.194 181.262 186.194 179.742C186.194 178.222 186.891 177.067 187.748 177.067C188.606 177.067 189.303 178.279 189.303 179.742Z" fill="#11527E" stroke="#11527E" stroke-width="1.24579" stroke-linecap="round" stroke-linejoin="round"/>
<path d="M171.562 230.283C171.562 230.283 168.453 224.945 169.345 224.717C170.236 224.488 181.359 221.162 181.141 219.379C180.924 217.596 177.575 216.042 174.912 216.705C172.248 217.368 158.657 220.042 159.103 222.054C160.833 227.814 162.914 233.463 165.333 238.969C166.887 241.861 168.67 266.343 168.67 266.343H180.021L180.467 259.223C180.467 259.223 186.262 258.08 186.925 256.548C187.588 255.017 187.154 250.319 187.154 250.319C187.154 250.319 192.275 249.428 192.275 248.319C192.275 247.21 193.829 237.186 192.275 235.849C190.72 234.512 179.804 227.62 177.804 227.62C175.803 227.62 171.562 230.283 171.562 230.283Z" fill="white" stroke="#11527E" stroke-width="1.24579" stroke-linecap="round" stroke-linejoin="round"/>
<path d="M187.143 250.319L187.371 245.873L189.372 244.753" stroke="#11527E" stroke-width="1.24579" stroke-linecap="round" stroke-linejoin="round"/>
<path d="M171.563 230.283L166.887 233.403" stroke="#11527E" stroke-width="1.24579" stroke-linecap="round" stroke-linejoin="round"/>
<path d="M142.106 269.372L166.533 310.69L168.682 266.343H180.033C180.033 266.343 187.2 312.062 188.811 323.297C190.423 334.532 190.149 346.156 188.537 348.522C186.925 350.888 179.77 358.923 177.106 358.923C174.443 358.923 166.282 354.42 164.933 352.282C164.247 351.139 147.535 341.996 133.281 327.137C119.77 313.159 105.848 292.848 105.848 292.848" fill="white"/>
<path d="M142.106 269.372L166.533 310.69L168.682 266.343H180.033C180.033 266.343 187.2 312.062 188.811 323.297C190.423 334.532 190.149 346.156 188.537 348.522C186.925 350.888 179.77 358.923 177.106 358.923C174.443 358.923 166.282 354.42 164.933 352.282C164.247 351.139 147.535 341.996 133.281 327.137C119.77 313.159 105.848 292.848 105.848 292.848" stroke="#11527E" stroke-width="1.24579" stroke-linecap="round" stroke-linejoin="round"/>
<path d="M166.522 310.69L163.573 336.989" stroke="#11527E" stroke-width="1.24579" stroke-linecap="round" stroke-linejoin="round"/>
<path d="M168.133 272.858H180.204" stroke="#11527E" stroke-width="1.24579" stroke-linecap="round" stroke-linejoin="round"/>
<path d="M128.8 390.103V452.417H223.229L221.549 390.103H128.8Z" fill="#11527E" stroke="#11527E" stroke-width="1.24579" stroke-linecap="round" stroke-linejoin="round"/>
<path d="M405.994 156.608C405.994 156.608 392.037 160.368 388.288 169.455C384.539 178.541 387.213 180.461 388.014 180.199C388.814 179.936 390.7 176.438 390.7 176.438C390.7 176.438 387.751 184.759 391.511 188.245C395.272 191.731 401.445 196.566 401.445 196.566C401.445 196.566 400.633 207.309 397.41 214.019C394.186 220.728 389.625 228.248 392.049 231.163C394.472 234.078 397.41 229.826 397.41 229.826C397.41 229.826 400.096 236.535 409.492 238.969C418.888 241.404 438.469 244.764 446.527 243.69C451.445 242.992 456.086 240.991 459.97 237.895C459.97 237.895 457.546 242.467 461.844 239.781C466.142 237.095 468.828 233.597 473.115 223.939C477.401 214.281 480.099 198.977 477.95 187.159C475.801 175.341 465.376 165.443 458.358 159.785C451.34 154.128 437.143 148.779 424.26 150.116C411.378 151.453 405.994 156.608 405.994 156.608Z" fill="#11527E" stroke="#11527E" stroke-width="1.24579" stroke-linecap="round" stroke-linejoin="round"/>
<path d="M473.492 262.514L477.024 306.793L458.404 341.241L450.631 325.411L473.492 262.514Z" fill="#F7931E" stroke="#11527E" stroke-width="1.24579" stroke-linecap="round" stroke-linejoin="round"/>
<path d="M460.496 299.649L455.1 334.223L450.448 326.6L460.496 299.649Z" fill="#11527E" stroke="#11527E" stroke-width="1.24579" stroke-linecap="round" stroke-linejoin="round"/>
<path d="M353.39 452.417L357.208 409.705L469.32 414.288L471.229 451.651L353.39 452.417Z" fill="#11527E" stroke="#11527E" stroke-width="1.24579" stroke-linecap="round" stroke-linejoin="round"/>
<path d="M412.395 171.867C412.395 171.867 410.658 183.296 412.647 185.274C414.636 187.251 424.569 191.983 424.569 191.983C424.569 191.983 423.323 179.319 423.323 178.576C423.323 177.833 430.284 195.72 433.759 197.938C437.234 200.155 443.693 205.641 443.693 205.641C443.693 205.641 444.687 208.624 445.681 208.373C446.676 208.121 448.905 205.893 448.905 205.893C448.905 205.893 456.118 203.904 455.363 209.619C454.609 215.333 449.648 223.025 446.676 223.528C444.951 223.825 443.197 223.906 441.452 223.768C441.452 223.768 437.44 235.747 436.983 239.667C436.526 243.587 436.24 244.387 436.743 245.873C437.246 247.359 448.665 252.891 451.157 253.577C453.649 254.262 473.515 262.515 473.515 262.515L449.899 328.589L474.247 415.762C474.247 415.762 437.737 424.209 402.954 420.986C368.17 417.762 353.802 410.299 353.802 410.299L383.361 326.6L372.674 254.822L411.927 247.622L412.67 238.673C412.67 238.673 402.977 235.941 399.753 228.992C396.404 221.78 399.502 209.116 399.753 205.39C400.119 201.012 400.119 196.612 399.753 192.234C399.227 188.005 401.216 174.85 412.395 171.867Z" fill="#F7931E" stroke="#11527E" stroke-width="1.24579" stroke-linecap="round" stroke-linejoin="round"/>
<path d="M394.884 317.022C394.884 317.022 421.803 333.172 422.889 333.538" stroke="#11527E" stroke-width="1.24579" stroke-linecap="round" stroke-linejoin="round"/>
<path d="M405.651 327.434L424.672 340.35" stroke="#11527E" stroke-width="1.24579" stroke-linecap="round" stroke-linejoin="round"/>
<path d="M446.676 251.748C442.481 249.793 437.074 246.936 436.743 245.919C436.24 244.433 436.491 243.69 436.983 239.712C437.474 235.735 441.452 223.814 441.452 223.814C443.196 223.951 444.951 223.87 446.676 223.574C449.659 223.071 454.62 215.379 455.363 209.664C456.106 203.949 448.905 205.938 448.905 205.938C448.905 205.938 446.676 208.224 445.681 208.418C444.687 208.612 443.692 205.686 443.692 205.686C443.692 205.686 437.234 200.223 433.759 197.983C430.284 195.743 423.323 177.867 423.323 178.621C423.323 179.376 424.569 192.028 424.569 192.028C424.569 192.028 414.636 187.308 412.647 185.319C410.658 183.33 412.395 171.912 412.395 171.912C401.216 174.895 399.227 188.051 399.73 192.28C400.102 196.657 400.102 201.058 399.73 205.435C399.479 209.161 396.381 221.825 399.73 229.037C402.954 235.986 412.647 238.718 412.647 238.718L411.904 247.667L400.93 249.679L395.809 278.996L436.377 281.876L446.676 251.748Z" fill="white" stroke="#11527E" stroke-width="1.24579" stroke-linecap="round" stroke-linejoin="round"/>
<path d="M411.892 247.622L411.561 255.325" stroke="#11527E" stroke-width="1.24579" stroke-linecap="round" stroke-linejoin="round"/>
<path d="M436.925 230.854C432.905 234.279 427.929 236.385 422.671 236.889" stroke="#11527E" stroke-width="1.24579" stroke-linecap="round" stroke-linejoin="round"/>
<path d="M410.155 220.054C412.565 220.858 415.154 220.956 417.619 220.339C420.083 219.721 422.32 218.413 424.066 216.568" stroke="#11527E" stroke-width="1.24579" stroke-linecap="round" stroke-linejoin="round"/>
<path d="M413.15 193.743C413.377 195.139 413.377 196.564 413.15 197.96C412.841 201.275 406.874 210.03 408.692 210.933C410.509 211.836 412.064 211.458 415.676 211.756" stroke="#11527E" stroke-width="1.24579" stroke-linecap="round" stroke-linejoin="round"/>
<path d="M408.943 198.623C408.943 200.177 408.166 201.435 407.206 201.435C406.246 201.435 405.457 200.177 405.457 198.623C405.457 197.068 406.234 195.8 407.206 195.8C408.177 195.8 408.943 197.057 408.943 198.623Z" fill="#11527E"/>
<path d="M425.586 200.315C425.586 201.869 424.809 203.138 423.849 203.138C422.889 203.138 422.1 201.869 422.1 200.315C422.1 198.76 422.877 197.503 423.849 197.503C424.82 197.503 425.586 198.806 425.586 200.315Z" fill="#11527E"/>
<path d="M404.119 192.314C404.119 192.314 408.143 189.354 411.366 190.965" stroke="#11527E" stroke-width="1.24579" stroke-linecap="round" stroke-linejoin="round"/>
<path d="M421.837 191.777C421.837 191.777 427.735 190.965 429.838 195.8" stroke="#11527E" stroke-width="1.24579" stroke-linecap="round" stroke-linejoin="round"/>
<path d="M372.651 254.822L368.079 286.939L353.996 316.245L325.877 274.161C325.877 274.161 324.916 267.452 323.316 264.903C321.716 262.354 316.298 261.074 313.097 258.834C309.897 256.594 307.668 249.576 305.096 252.125C302.524 254.674 304.135 259.154 305.096 260.434C306.056 261.714 313.417 267.749 313.417 267.749L295.528 273.464C295.528 273.464 281.48 266.755 280.2 269.315C278.919 271.875 290.419 284.002 294.899 285.316C299.38 286.631 317.246 283.716 317.246 283.716C317.246 283.716 337.376 332.863 341.845 338.327C346.315 343.79 352.064 350.453 353.333 350.145C354.602 349.836 382.264 320.691 382.264 320.691L372.651 254.822Z" fill="white" stroke="#11527E" stroke-width="1.24579" stroke-linecap="round" stroke-linejoin="round"/>
<path d="M319.475 278.459C319.475 278.459 314.755 275.121 313.086 275.121C311.417 275.121 294.797 277.898 294.797 277.898C294.797 277.898 286.178 273.178 284.509 274.012" stroke="#11527E" stroke-width="1.24579" stroke-linecap="round" stroke-linejoin="round"/>
<path d="M366.981 336.909C374.663 329.114 382.264 320.714 382.264 320.714L372.651 254.822L368.079 286.939L353.996 316.245L366.981 336.909Z" fill="#F7931E" stroke="#11527E" stroke-width="1.24579" stroke-linecap="round" stroke-linejoin="round"/>
<path d="M479.242 294.574C479.242 294.574 480.076 280.402 483.14 278.184C486.203 275.967 496.193 272.904 497.302 270.961C498.411 269.018 500.08 269.818 499.805 272.344C499.531 274.87 496.468 278.459 495.633 278.733C494.799 279.007 490.638 281.51 490.638 281.51C491.948 282.638 493.342 283.662 494.81 284.573C495.633 284.848 506.47 287.065 506.47 287.065C506.47 287.065 517.306 278.184 517.306 280.402C517.306 282.619 510.082 296.243 509.304 297.9C508.527 299.558 502.355 300.129 499.851 300.403C497.348 300.678 485.403 301.798 485.403 301.798C485.403 301.798 482.351 333.195 482.065 340.418C481.779 347.642 477.07 354.305 474.567 355.974C472.063 357.643 458.175 345.687 458.449 341.241C458.724 336.795 475.961 301.512 475.961 301.512L479.242 294.574Z" fill="white" stroke="#11527E" stroke-width="1.24579" stroke-linecap="round" stroke-linejoin="round"/>
<path d="M482.74 296.952C482.74 296.952 485.357 291.511 489.244 292.38C493.13 293.249 504.812 294.666 504.812 294.666C504.812 294.666 510.082 287.717 512.311 287.442" stroke="#11527E" stroke-width="1.24579" stroke-linecap="round" stroke-linejoin="round"/>
<path d="M648.187 334.041H568.995C565.371 334.043 561.858 335.294 559.049 337.584C556.24 339.875 554.307 343.064 553.575 346.613L531.411 452.417H642.792L663.607 353.071C664.094 350.775 664.062 348.399 663.513 346.117C662.964 343.835 661.912 341.704 660.434 339.88C658.957 338.056 657.09 336.586 654.971 335.575C652.852 334.565 650.535 334.041 648.187 334.041Z" fill="#11527E" stroke="#11527E" stroke-width="1.24579" stroke-linecap="round" stroke-linejoin="round"/>
<path d="M553.655 330.063L502.96 354.065L488.398 419.077C488.398 419.077 482.099 419.317 481.848 421.02C481.759 422.719 481.844 424.423 482.099 426.106C482.099 426.106 477.733 426.357 477.241 430.232C476.796 433.561 477.045 436.947 477.973 440.176C478.705 442.119 485.974 451.091 488.158 451.331C490.036 451.532 491.9 451.856 493.736 452.302C494.467 452.542 618.17 452.302 618.17 452.302C618.17 452.302 623.028 451.822 624.24 450.851C625.057 449.987 625.567 448.879 625.692 447.696C625.692 447.696 629.121 445.033 629.326 443.33C629.532 441.627 628.115 431.203 628.115 429.02C628.115 426.837 636.848 363.54 637.339 359.174C637.831 354.808 636.368 353.105 635.156 351.894C633.944 350.682 620.593 342.921 614.775 340.464C608.957 338.007 588.976 329.183 588.976 329.183L553.655 330.063Z" fill="white" stroke="#11527E" stroke-width="1.24579" stroke-linecap="round" stroke-linejoin="round"/>
<path d="M558.982 373.347C560.24 372.718 587.559 340.715 595.263 331.617C592.849 330.574 590.371 329.685 587.845 328.954L553.656 329.686L543.631 334.852C546.237 343.116 554.021 364.329 555.587 368.249C557.531 373.107 557.531 374.044 558.982 373.347Z" fill="#F7931E" stroke="#11527E" stroke-width="1.24579" stroke-linecap="round" stroke-linejoin="round"/>
<path d="M548.317 257.885C548.317 257.885 538.978 269.006 538.978 273.178C538.978 277.35 540.773 281.91 538.784 284.299C536.795 286.688 525.673 291.843 527.856 294.586C529.468 296.497 531.342 298.171 533.423 299.558L533.023 305.912C533.023 305.912 536.978 321.468 539.173 322.222C541.367 322.977 548.317 322.817 548.317 322.817C548.317 322.817 557.05 357.574 559.233 357.963C561.417 358.351 587.867 328.954 587.867 328.954L586.839 317.262C586.839 317.262 597.126 300.381 599.95 292.643C602.773 284.905 597.172 268.812 589.228 261.463C581.283 254.114 565.223 252.925 559.233 253.519C555.293 254.064 551.546 255.563 548.317 257.885Z" fill="white" stroke="#11527E" stroke-width="1.24579" stroke-linecap="round" stroke-linejoin="round"/>
<path d="M542.602 274.801C542.602 274.801 547.723 273.178 551.289 276.356" stroke="#11527E" stroke-width="2.49158" stroke-linecap="round" stroke-linejoin="round"/>
<path d="M548.226 284.334C547.746 285.797 546.763 286.779 546.031 286.539C545.3 286.299 545.105 284.928 545.585 283.465C546.065 282.002 547.037 281.019 547.769 281.259C548.5 281.499 548.706 282.871 548.226 284.334Z" fill="#11527E" stroke="#11527E" stroke-width="1.24579" stroke-linecap="round" stroke-linejoin="round"/>
<path d="M549.678 248.559C549.678 248.559 531.388 251.736 535.778 255.302C540.167 258.868 564.183 265.235 569.338 267.018C574.494 268.801 560.605 271.989 562.594 273.578C564.583 275.167 568.55 282.722 568.55 282.722C568.55 282.722 567.749 292.654 565.12 298.015C562.491 303.375 550.421 310.519 550.421 310.519C550.421 310.519 544.065 301.981 540.693 301.981C537.321 301.981 532.543 302.781 532.943 305.958C533.343 309.136 534.726 317.673 534.932 318.462C535.138 319.251 532.543 327.194 535.332 328.989C538.121 330.783 552.409 325.011 558.765 322.234C565.12 319.456 568.092 318.062 568.492 314.096C568.893 310.13 575.042 292.254 575.042 292.254C575.042 292.254 579.214 289.477 583.044 290.071C586.873 290.665 586.816 299.009 583.444 301.981C580.97 304.104 578.383 306.092 575.694 307.935L586.816 317.273C586.816 317.273 611.243 292.654 611.643 283.122C612.043 273.59 599.927 256.708 594.76 251.348C589.593 245.987 559.805 244.581 549.678 248.559Z" fill="#11527E" stroke="#11527E" stroke-width="1.24579" stroke-linecap="round" stroke-linejoin="round"/>
<path d="M533.217 308.45C533.217 308.45 539.538 306.05 541.333 306.381C544.671 307.01 547.917 310.553 546.751 313.239C545.804 315.726 544.043 317.821 541.756 319.182C539.527 320.325 538.601 320.851 538.235 319.742C538.06 319.164 537.74 318.641 537.306 318.221C536.872 317.801 536.338 317.498 535.755 317.342C534.612 317.148 534.989 318.405 534.989 318.405C534.989 318.405 533.96 309.936 533.217 308.45Z" fill="white" stroke="#11527E" stroke-width="1.24579" stroke-linecap="round" stroke-linejoin="round"/>
<path d="M535.424 311.182C538.084 311.129 540.686 310.393 542.979 309.044" stroke="#11527E" stroke-width="1.24579" stroke-linecap="round" stroke-linejoin="round"/>
<path d="M485.449 426.46C485.449 426.46 495.393 427.912 499.508 437.135" stroke="#11527E" stroke-width="1.24579" stroke-linecap="round" stroke-linejoin="round"/>
<path d="M491.793 421.614C491.793 421.614 500.046 423.797 502.709 427.192" stroke="#11527E" stroke-width="1.24579" stroke-linecap="round" stroke-linejoin="round"/>
<path d="M601.001 381.153L593.914 423.066C593.914 423.066 582.758 425.009 582.758 428.403C582.758 431.798 588.828 440.53 588.828 440.53" stroke="#11527E" stroke-width="1.24579" stroke-linecap="round" stroke-linejoin="round"/>
<path d="M602.156 373.587L601.721 376.25" stroke="#11527E" stroke-width="1.24579" stroke-linecap="round" stroke-linejoin="round"/>
<path d="M614.615 418.094C615.808 418.122 616.997 418.244 618.17 418.459" stroke="#11527E" stroke-width="1.24579" stroke-linecap="round" stroke-linejoin="round"/>
<path d="M596.829 421.362C601.435 419.704 606.232 418.636 611.106 418.185" stroke="#11527E" stroke-width="1.24579" stroke-linecap="round" stroke-linejoin="round"/>
<path d="M615.267 424.517C615.267 424.517 623.268 427.946 626.423 438.827" stroke="#11527E" stroke-width="1.24579" stroke-linecap="round" stroke-linejoin="round"/>
<path d="M618.17 451.925C618.17 451.925 618.902 446.587 612.352 438.107C605.802 429.626 599.492 428.883 597.801 429.615C596.109 430.346 550.009 447.079 550.009 447.079C550.009 447.079 521.638 430.826 519.146 432.038C516.654 433.249 501.452 452.165 501.452 452.165L618.17 451.925Z" fill="white" stroke="#11527E" stroke-width="1.24579" stroke-linecap="round" stroke-linejoin="round"/>
<path d="M508.047 452.165L523.33 436.164" stroke="#11527E" stroke-width="1.24579" stroke-linecap="round" stroke-linejoin="round"/>
<path d="M516.289 451.445L530.12 439.067" stroke="#11527E" stroke-width="1.24579" stroke-linecap="round" stroke-linejoin="round"/>
<path d="M526.965 452.417L536.429 443.193" stroke="#11527E" stroke-width="1.24579" stroke-linecap="round" stroke-linejoin="round"/>
<path d="M537.641 451.685L541.516 448.531" stroke="#11527E" stroke-width="1.24579" stroke-linecap="round" stroke-linejoin="round"/>
<path d="M513.065 372.524L513.865 367.038" stroke="#11527E" stroke-width="1.24579" stroke-linecap="round" stroke-linejoin="round"/>
<path d="M501.497 452.165L512.036 379.622" stroke="#11527E" stroke-width="1.24579" stroke-linecap="round" stroke-linejoin="round"/>
<path d="M496.411 452.165C496.411 452.165 494.948 437.855 488.158 434.712C481.368 431.569 473.607 435.192 470.692 435.924C467.777 436.655 441.589 452.417 441.589 452.417L496.411 452.165Z" fill="white" stroke="#11527E" stroke-width="1.24579" stroke-linecap="round" stroke-linejoin="round"/>
<path d="M464.393 443.433C464.393 443.433 457.352 438.107 454.197 435.432C451.042 432.758 449.111 432.529 442.767 433.249C436.423 433.969 431.85 452.165 431.85 452.165H455.375L464.393 443.433Z" fill="white" stroke="#11527E" stroke-width="1.24579" stroke-linecap="round" stroke-linejoin="round"/>
<path d="M460.987 440.77C460.987 440.77 452.254 450.474 453.226 451.205C454.197 451.937 458.804 451.685 458.804 451.685C458.804 451.685 466.805 445.616 467.057 443.925C467.308 442.233 460.987 440.77 460.987 440.77Z" fill="white" stroke="#11527E" stroke-width="1.24579" stroke-linecap="round" stroke-linejoin="round"/>
<path d="M450.322 435.192L441.589 452.417L436.731 451.445C436.731 451.445 442.069 434.952 442.801 433.249C443.532 431.546 447.373 431.066 450.802 433.249" fill="white"/>
<path d="M450.322 435.192L441.589 452.417L436.731 451.445C436.731 451.445 442.069 434.952 442.801 433.249C443.532 431.546 447.373 431.066 450.802 433.249" stroke="#11527E" stroke-width="1.24579" stroke-linecap="round" stroke-linejoin="round"/>
<path d="M442.801 433.249C442.801 433.249 435.599 432.449 434.525 434.118C433.451 435.787 431.885 452.165 431.885 452.165L436.731 451.445L442.801 433.249Z" fill="white" stroke="#11527E" stroke-width="1.24579" stroke-linecap="round" stroke-linejoin="round"/>
<path d="M433.679 434.964C433.679 434.964 427.964 436.872 427.701 438.392C427.438 439.913 427.815 451.799 427.815 451.799L431.885 452.131L433.679 434.964Z" fill="white" stroke="#11527E" stroke-width="1.24579" stroke-linecap="round" stroke-linejoin="round"/>
<path d="M427.575 440.107C427.575 440.107 421.951 444.302 421.597 445.25C421.243 446.199 418.236 449.559 419.437 449.822C420.637 450.085 424.82 446.828 424.82 446.828L427.335 445.753L427.575 440.107Z" fill="white" stroke="#11527E" stroke-width="1.24579" stroke-linecap="round" stroke-linejoin="round"/>
<path d="M751.498 452.417H1.42847" stroke="#11527E" stroke-width="1.24579" stroke-linecap="round" stroke-linejoin="round"/>
<path d="M504.824 450.028H422.991V452.417H504.824V450.028Z" fill="#5089C6" stroke="#11527E" stroke-width="1.24579" stroke-linecap="round" stroke-linejoin="round"/>
<path d="M408.749 386.205H310.902L326.482 452.417H424.329L408.749 386.205Z" fill="#5089C6" stroke="#11527E" stroke-width="1.24579" stroke-linecap="round" stroke-linejoin="round"/>
<path d="M368.661 420.551C368.664 421.775 368.303 422.972 367.624 423.99C366.945 425.009 365.98 425.803 364.849 426.273C363.719 426.742 362.474 426.866 361.274 426.627C360.073 426.389 358.97 425.8 358.105 424.935C357.239 424.069 356.65 422.966 356.412 421.766C356.173 420.565 356.297 419.321 356.766 418.191C357.236 417.06 358.03 416.095 359.049 415.416C360.068 414.738 361.265 414.377 362.489 414.379C364.125 414.382 365.693 415.033 366.85 416.19C368.007 417.347 368.658 418.915 368.661 420.551Z" fill="#F7931E" stroke="#11527E" stroke-width="1.24579" stroke-linecap="round" stroke-linejoin="round"/>
<path d="M84.7466 418.905C84.7466 418.905 78.9512 414.95 74.459 418.116C69.9667 421.282 69.4523 437.067 74.459 442.599C77.3281 445.776 84.9866 443.124 84.9866 443.124L85.5124 435.489C85.5124 435.489 80.6887 440.324 78.1397 435.226C76.5622 432.072 77.3509 424.7 80.2543 423.374C83.1577 422.048 85.7753 424.963 85.7753 424.963L84.7466 418.905Z" fill="#F7931E" stroke="#11527E" stroke-width="1.24579" stroke-linecap="round" stroke-linejoin="round"/>
<path d="M87.9585 404.687C87.9585 404.687 97.5488 400.629 97.5488 392.892C97.5488 385.154 92.7594 385.142 92.0164 379.622" stroke="#11527E" stroke-width="1.24579" stroke-linecap="round" stroke-linejoin="round"/>
<path d="M99.3892 379.256C99.3892 379.256 98.6576 383.668 103.447 387.359C108.237 391.051 106.019 396.937 103.813 399.932" stroke="#11527E" stroke-width="1.24579" stroke-linecap="round" stroke-linejoin="round"/>
<path d="M100.864 375.187C101.628 373.569 102.929 372.265 104.544 371.495" stroke="#11527E" stroke-width="1.24579" stroke-linecap="round" stroke-linejoin="round"/>
<path d="M118.947 408.127H83.2834V452.417H118.947V408.127Z" fill="#F7931E" stroke="#11527E" stroke-width="1.24579" stroke-linecap="round" stroke-linejoin="round"/>
<path d="M131.155 74.4868H129.475V63.6516H106.499V74.4868H104.807C96.7282 74.4868 88.9799 77.696 83.2671 83.4083C77.5542 89.1206 74.3447 96.8682 74.3447 104.947V107.975H161.618V104.947C161.618 96.8682 158.408 89.1206 152.696 83.4083C146.983 77.696 139.234 74.4868 131.155 74.4868Z" fill="#11527E" stroke="#11527E" stroke-width="1.24579" stroke-linecap="round" stroke-linejoin="round"/>
<path d="M117.987 65.1371V1.49731" stroke="url(#paint3_linear_690_949)" stroke-width="1.24579" stroke-linecap="round" stroke-linejoin="round"/>
<path d="M481.379 74.4868H479.733V63.6516H456.758V74.4868H455.089C447.009 74.4868 439.261 77.696 433.548 83.4083C427.835 89.1206 424.626 96.8682 424.626 104.947V107.975H511.876V104.947C511.876 100.944 511.087 96.98 509.554 93.2823C508.021 89.5845 505.774 86.2251 502.942 83.3962C500.109 80.5673 496.747 78.3243 493.047 76.7956C489.347 75.2669 485.383 74.4823 481.379 74.4868Z" fill="#11527E" stroke="#11527E" stroke-width="1.24579" stroke-linecap="round" stroke-linejoin="round"/>
<path d="M468.211 65.1371V1.49731" stroke="url(#paint4_linear_690_949)" stroke-width="1.24579" stroke-linecap="round" stroke-linejoin="round"/>
<path d="M369.553 116.684H313.749C310.39 116.684 307.168 118.019 304.793 120.394C302.418 122.769 301.083 125.99 301.083 129.348V152.882C301.087 156.239 302.422 159.457 304.797 161.829C307.172 164.202 310.392 165.534 313.749 165.534H357.654L367.713 177.901V165.534H369.599C372.955 165.534 376.173 164.201 378.546 161.829C380.92 159.456 382.253 156.238 382.253 152.882V129.348C382.254 127.682 381.926 126.032 381.288 124.492C380.65 122.953 379.714 121.555 378.534 120.378C377.354 119.201 375.954 118.269 374.412 117.635C372.871 117.002 371.22 116.678 369.553 116.684Z" fill="white" stroke="#11527E" stroke-width="1.24579" stroke-linecap="round" stroke-linejoin="round"/>
<path d="M328.928 140.79C328.928 141.468 328.727 142.131 328.351 142.695C327.974 143.259 327.438 143.698 326.812 143.958C326.185 144.217 325.495 144.285 324.83 144.153C324.165 144.02 323.554 143.694 323.074 143.214C322.595 142.735 322.268 142.124 322.136 141.459C322.004 140.794 322.072 140.104 322.331 139.478C322.591 138.851 323.03 138.315 323.594 137.939C324.158 137.562 324.821 137.361 325.499 137.361C326.409 137.361 327.281 137.722 327.924 138.365C328.567 139.008 328.928 139.88 328.928 140.79Z" fill="#F7931E" stroke="#11527E" stroke-width="1.24579" stroke-linecap="round" stroke-linejoin="round"/>
<path d="M341.651 144.23C343.551 144.23 345.091 142.69 345.091 140.79C345.091 138.89 343.551 137.349 341.651 137.349C339.751 137.349 338.21 138.89 338.21 140.79C338.21 142.69 339.751 144.23 341.651 144.23Z" fill="#F7931E" stroke="#11527E" stroke-width="1.24579" stroke-linecap="round" stroke-linejoin="round"/>
<path d="M357.814 144.23C359.714 144.23 361.255 142.69 361.255 140.79C361.255 138.89 359.714 137.349 357.814 137.349C355.914 137.349 354.373 138.89 354.373 140.79C354.373 142.69 355.914 144.23 357.814 144.23Z" fill="#F7931E" stroke="#11527E" stroke-width="1.24579" stroke-linecap="round" stroke-linejoin="round"/>
</g>
<defs>
<linearGradient id="paint0_linear_690_949" x1="277.03" y1="8.76685" x2="277.03" y2="202.189" gradientUnits="userSpaceOnUse">
<stop stop-color="#001E6C" stop-opacity="0"/>
<stop offset="1" stop-color="#001E6C"/>
</linearGradient>
<linearGradient id="paint1_linear_690_949" x1="541.719" y1="9.69238" x2="541.719" y2="150.722" gradientUnits="userSpaceOnUse">
<stop stop-color="#001E6C" stop-opacity="0"/>
<stop offset="1" stop-color="#001E6C"/>
</linearGradient>
<linearGradient id="paint2_linear_690_949" x1="414.241" y1="17.2017" x2="414.241" y2="308.93" gradientUnits="userSpaceOnUse">
<stop stop-color="#001E6C" stop-opacity="0"/>
<stop offset="1" stop-color="#001E6C"/>
</linearGradient>
<linearGradient id="paint3_linear_690_949" x1="118.487" y1="1.49731" x2="118.487" y2="65.1371" gradientUnits="userSpaceOnUse">
<stop offset="0.00520833" stop-color="#001E6C" stop-opacity="0"/>
<stop offset="1" stop-color="#001E6C"/>
</linearGradient>
<linearGradient id="paint4_linear_690_949" x1="468.711" y1="1.49731" x2="468.711" y2="65.1371" gradientUnits="userSpaceOnUse">
<stop stop-color="#001E6C" stop-opacity="0"/>
<stop offset="1" stop-color="#001E6C"/>
</linearGradient>
<clipPath id="clip0_690_949">
<rect width="751.212" height="452.222" fill="white" transform="translate(0.856934 0.926025)"/>
</clipPath>
</defs>
</svg>
