<svg width="136" height="135" viewBox="0 0 136 135" fill="none" xmlns="http://www.w3.org/2000/svg">
<circle cx="68.0002" cy="67.6667" r="67.1481" fill="white"/>
<circle cx="68.0002" cy="67.6667" r="65.7778" stroke="#F7931E" stroke-opacity="0.3" stroke-width="2.74074"/>
<ellipse cx="68.0002" cy="67.0426" rx="55.363" ry="54.8148" fill="#F7931E"/>
<path d="M91.717 49.2747C91.4797 49.1184 91.2071 49.0225 90.9234 48.9956C90.6397 48.9687 90.3537 49.0116 90.0907 49.1206C86.7408 50.5521 83.0552 51.0346 79.4445 50.5144C75.8339 49.9942 72.44 48.4917 69.641 46.1743L69.3815 45.9516C69.0707 45.6952 68.6789 45.5548 68.2743 45.5548C67.8697 45.5548 67.4779 45.6952 67.167 45.9516L66.9075 46.1743C64.1085 48.4917 60.7146 49.9942 57.104 50.5144C53.4934 51.0346 49.8078 50.5521 46.4578 49.1206C46.1949 49.0103 45.9084 48.9662 45.6241 48.9922C45.3397 49.0181 45.0663 49.1134 44.8282 49.2695C44.5901 49.4255 44.3946 49.6375 44.2594 49.8865C44.1241 50.1355 44.0532 50.4138 44.053 50.6965V59.5354C44.0563 65.9847 45.8285 72.312 49.1802 77.842C52.532 83.372 57.3376 87.897 63.084 90.934L67.5476 93.315C67.7979 93.447 68.0772 93.516 68.3608 93.516C68.6444 93.516 68.9236 93.447 69.1739 93.315L73.6376 90.934C79.3517 87.8743 84.1222 83.3394 87.4425 77.8111C90.7629 72.2828 92.509 65.9673 92.4956 59.5354V50.6965C92.4941 50.4143 92.4223 50.1369 92.2864 49.8889C92.1506 49.6409 91.955 49.4299 91.717 49.2747ZM89.0354 59.5525C89.0423 65.3755 87.4528 71.0911 84.4363 76.0898C81.4199 81.0886 77.0897 85.1829 71.9075 87.9363L68.2743 89.8548L64.6411 87.9192C59.4589 85.1658 55.1287 81.0714 52.1122 76.0727C49.0958 71.074 47.5063 65.3583 47.5132 59.5354V53.146C51.0206 54.2069 54.7327 54.4263 58.3427 53.7859C61.9527 53.1455 65.357 51.6638 68.2743 49.4631C71.1915 51.6638 74.5958 53.1455 78.2058 53.7859C81.8158 54.4263 85.5279 54.2069 89.0354 53.146V59.5525Z" fill="white"/>
<path d="M74.3296 62.6872V61.8307C74.3296 60.2406 73.6917 58.7157 72.5561 57.5913C71.4205 56.467 69.8803 55.8353 68.2743 55.8353C66.6683 55.8353 65.1281 56.467 63.9925 57.5913C62.8569 58.7157 62.219 60.2406 62.219 61.8307V62.6872C61.3013 62.6872 60.4212 63.0481 59.7723 63.6906C59.1233 64.3331 58.7588 65.2045 58.7588 66.1131V78.1038C58.7588 79.0125 59.1233 79.8839 59.7723 80.5263C60.4212 81.1688 61.3013 81.5298 62.219 81.5298H74.3296C75.2473 81.5298 76.1274 81.1688 76.7763 80.5263C77.4253 79.8839 77.7898 79.0125 77.7898 78.1038V66.1131C77.7898 65.2045 77.4253 64.3331 76.7763 63.6906C76.1274 63.0481 75.2473 62.6872 74.3296 62.6872ZM65.6792 61.8307C65.6792 61.1492 65.9526 60.4957 66.4393 60.0138C66.9259 59.532 67.586 59.2613 68.2743 59.2613C68.9626 59.2613 69.6227 59.532 70.1093 60.0138C70.596 60.4957 70.8694 61.1492 70.8694 61.8307V62.6872H65.6792V61.8307ZM74.3296 78.1038H62.219V66.1131H74.3296V78.1038Z" fill="white"/>
</svg>
