<svg width="439" height="549" viewBox="0 0 439 549" fill="none" xmlns="http://www.w3.org/2000/svg">
<g opacity="0.16">
<mask id="mask0_690_365" style="mask-type:luminance" maskUnits="userSpaceOnUse" x="0" y="0" width="439" height="549">
<path d="M438.519 274.482V273.916C438.519 423.649 313.116 548.556 163.348 548.556H0V0.407715H163.348C313.116 0.407715 438.519 124.714 438.519 274.482Z" fill="white"/>
</mask>
<g mask="url(#mask0_690_365)">
<path d="M491.565 0.407715H-123.776V644.04H491.565V0.407715Z" fill="#F7931E"/>
<mask id="mask1_690_365" style="mask-type:luminance" maskUnits="userSpaceOnUse" x="-124" y="0" width="616" height="645">
<path d="M491.565 0.407715H-123.776V644.04H491.565V0.407715Z" fill="white"/>
</mask>
<g mask="url(#mask1_690_365)">
<path d="M28.2915 0.407715H0V644.04H28.2915V0.407715Z" fill="#F7931E"/>
<path d="M53.0458 0.407715H28.2908V644.04H53.0458V0.407715Z" fill="#F7931E"/>
<path d="M81.3382 0.407715H53.0466V644.04H81.3382V0.407715Z" fill="#F7931E"/>
<path d="M123.775 0.407715H81.3376V644.04H123.775V0.407715Z" fill="#F7931E"/>
<path d="M152.066 0.407715H123.775V644.04H152.066V0.407715Z" fill="#F7931E"/>
<path d="M176.821 0.407715H152.066V644.04H176.821V0.407715Z" fill="#F7931E"/>
<path d="M205.113 0.407715H176.822V644.04H205.113V0.407715Z" fill="#F7931E"/>
<path d="M233.405 0.407715H205.113V644.04H233.405V0.407715Z" fill="#F7931E"/>
<path d="M261.696 0.407715H233.405V644.04H261.696V0.407715Z" fill="#F7931E"/>
<path d="M286.452 0.407715H261.697V644.04H286.452V0.407715Z" fill="#F7931E"/>
<path d="M314.743 0.407715H286.452V644.04H314.743V0.407715Z" fill="#F7931E"/>
<path d="M357.18 0.407715H314.743V644.04H357.18V0.407715Z" fill="#F7931E"/>
<path d="M381.935 0.407715H357.18V644.04H381.935V0.407715Z" fill="#F7931E"/>
<path d="M410.227 0.407715H381.936V644.04H410.227V0.407715Z" fill="#F7931E"/>
<path d="M438.518 0.407715H410.227V644.04H438.518V0.407715Z" fill="#F7931E"/>
<path d="M466.81 0.407715H438.518V644.04H466.81V0.407715Z" fill="#F7931E"/>
</g>
<path d="M0.282715 545.62V0.54895L357.392 244.882L0.282715 545.62Z" fill="#11527E"/>
<path d="M-34.657 569.845L356.827 244.776L708.738 510.433L-34.657 569.845Z" fill="#3FA9F5"/>
</g>
</g>
</svg>
