<svg width="248" height="73" viewBox="0 0 248 73" fill="none" xmlns="http://www.w3.org/2000/svg">
<path d="M238.049 72.0371H9.65436C4.63195 72.0371 0.518555 68.0265 0.518555 63.1297V9.68526C0.518555 4.78841 4.63195 0.777854 9.65436 0.777854H238.049C243.072 0.777854 247.185 4.78841 247.185 9.68526V63.1297C247.185 68.0265 243.072 72.0371 238.049 72.0371Z" fill="black"/>
<path d="M238.049 2.20526C242.279 2.20526 245.721 5.56113 245.721 9.68526V63.1297C245.721 67.2538 242.279 70.6097 238.049 70.6097H9.65436C5.42448 70.6097 1.98257 67.2538 1.98257 63.1297V9.68526C1.98257 5.56113 5.42448 2.20526 9.65436 2.20526H238.049ZM238.049 0.777854H9.65436C4.63195 0.777854 0.518555 4.78841 0.518555 9.68526V63.1297C0.518555 68.0265 4.63195 72.0371 9.65436 72.0371H238.049C243.072 72.0371 247.185 68.0265 247.185 63.1297V9.68526C247.185 4.78841 243.072 0.777854 238.049 0.777854Z" fill="#A6A6A6"/>
<path d="M19.5851 14.2077C19.0484 14.7555 18.7378 15.6084 18.7378 16.7129V56.1104C18.7378 57.2149 19.0484 58.0678 19.5851 58.6156L19.7176 58.7358L42.3607 36.6677V36.1466L19.7176 14.0785L19.5851 14.2077Z" fill="url(#paint0_linear_690_1429)"/>
<path d="M49.8999 44.0276L42.3606 36.6678V36.1468L49.9091 28.787L50.0781 28.8828L59.0174 33.842C61.5686 35.2493 61.5686 37.5653 59.0174 38.9815L50.0781 43.9318L49.8999 44.0276Z" fill="url(#paint1_linear_690_1429)"/>
<path d="M50.0782 43.9319L42.3608 36.4073L19.5852 58.6157C20.4326 59.4842 21.8143 59.5889 23.3857 58.7204L50.0782 43.9319Z" fill="url(#paint2_linear_690_1429)"/>
<path d="M50.0782 28.8829L23.3857 14.0944C21.8143 13.2349 20.4326 13.3395 19.5852 14.208L42.3608 36.4075L50.0782 28.8829Z" fill="url(#paint3_linear_690_1429)"/>
<path d="M87.1579 19.0267C87.1579 20.5143 86.7011 21.7057 85.8012 22.5942C84.7666 23.6475 83.4191 24.1775 81.7678 24.1775C80.1896 24.1775 78.842 23.6386 77.7366 22.5763C76.6289 21.4986 76.0762 20.1758 76.0762 18.5925C76.0762 17.0092 76.6289 15.6865 77.7366 14.6176C78.842 13.5465 80.1896 13.0076 81.7678 13.0076C82.5535 13.0076 83.3026 13.1657 84.0175 13.4596C84.7301 13.7558 85.3102 14.1566 85.7304 14.651L84.7757 15.5907C84.0426 14.7467 83.0445 14.3303 81.7678 14.3303C80.6167 14.3303 79.6186 14.7222 78.7712 15.5128C77.933 16.3055 77.5128 17.3321 77.5128 18.5925C77.5128 19.8529 77.933 20.8884 78.7712 21.6812C79.6186 22.4628 80.6167 22.8636 81.7678 22.8636C82.9897 22.8636 84.0175 22.4628 84.8283 21.6722C85.3627 21.1489 85.6665 20.4274 85.7464 19.5055H81.7678V18.2184H87.0757C87.1396 18.4968 87.1579 18.7662 87.1579 19.0267Z" fill="white" stroke="white" stroke-width="0.162878" stroke-miterlimit="10"/>
<path d="M95.5787 14.5643H90.5929V17.9491H95.0877V19.2362H90.5929V22.621H95.5787V23.9327H89.1814V13.2527H95.5787V14.5643Z" fill="white" stroke="white" stroke-width="0.162878" stroke-miterlimit="10"/>
<path d="M101.522 23.9327H100.11V14.5643H97.052V13.2527H104.582V14.5643H101.522V23.9327Z" fill="white" stroke="white" stroke-width="0.162878" stroke-miterlimit="10"/>
<path d="M110.032 23.9327V13.2527H111.441V23.9327H110.032Z" fill="white" stroke="white" stroke-width="0.162878" stroke-miterlimit="10"/>
<path d="M117.687 23.9327H116.287V14.5643H113.218V13.2527H120.757V14.5643H117.687V23.9327Z" fill="white" stroke="white" stroke-width="0.162878" stroke-miterlimit="10"/>
<path d="M135.013 22.5585C133.933 23.6386 132.595 24.1775 130.998 24.1775C129.393 24.1775 128.054 23.6386 126.974 22.5585C125.896 21.4807 125.359 20.158 125.359 18.5925C125.359 17.027 125.896 15.7043 126.974 14.6265C128.054 13.5465 129.393 13.0076 130.998 13.0076C132.586 13.0076 133.924 13.5465 135.004 14.6354C136.091 15.7221 136.628 17.0359 136.628 18.5925C136.628 20.158 136.091 21.4807 135.013 22.5585ZM128.018 21.6633C128.831 22.4628 129.82 22.8636 130.998 22.8636C132.168 22.8636 133.166 22.4628 133.97 21.6633C134.78 20.8639 135.192 19.8373 135.192 18.5925C135.192 17.3477 134.78 16.3211 133.97 15.5217C133.166 14.7222 132.168 14.3214 130.998 14.3214C129.82 14.3214 128.831 14.7222 128.018 15.5217C127.207 16.3211 126.796 17.3477 126.796 18.5925C126.796 19.8373 127.207 20.8639 128.018 21.6633Z" fill="white" stroke="white" stroke-width="0.162878" stroke-miterlimit="10"/>
<path d="M138.608 23.9327V13.2527H140.321L145.648 21.5588H145.709L145.648 19.5057V13.2527H147.057V23.9327H145.586L140.008 15.2168H139.947L140.008 17.2788V23.9327H138.608Z" fill="white" stroke="white" stroke-width="0.162878" stroke-miterlimit="10"/>
<path d="M125.012 39.5296C120.72 39.5296 117.215 42.714 117.215 47.1076C117.215 51.4655 120.72 54.6833 125.012 54.6833C129.313 54.6833 132.819 51.4655 132.819 47.1076C132.819 42.714 129.313 39.5296 125.012 39.5296ZM125.012 51.6993C122.657 51.6993 120.631 49.8043 120.631 47.1076C120.631 44.3752 122.657 42.5136 125.012 42.5136C127.367 42.5136 129.402 44.3752 129.402 47.1076C129.402 49.8043 127.367 51.6993 125.012 51.6993ZM107.999 39.5296C103.698 39.5296 100.201 42.714 100.201 47.1076C100.201 51.4655 103.698 54.6833 107.999 54.6833C112.297 54.6833 115.796 51.4655 115.796 47.1076C115.796 42.714 112.297 39.5296 107.999 39.5296ZM107.999 51.6993C105.642 51.6993 103.609 49.8043 103.609 47.1076C103.609 44.3752 105.642 42.5136 107.999 42.5136C110.354 42.5136 112.379 44.3752 112.379 47.1076C112.379 49.8043 110.354 51.6993 107.999 51.6993ZM87.7539 41.8522V45.0722H95.6404C95.4097 46.8715 94.7931 48.1943 93.8475 49.1162C92.6964 50.2296 90.9035 51.4655 87.7539 51.4655C82.9006 51.4655 79.1001 47.6464 79.1001 42.9144C79.1001 38.1823 82.9006 34.3633 87.7539 34.3633C90.3782 34.3633 92.2876 35.3631 93.6968 36.6592L96.0241 34.39C94.0531 32.5551 91.4311 31.1455 87.7539 31.1455C81.0985 31.1455 75.5051 36.4253 75.5051 42.9144C75.5051 49.4034 81.0985 54.6833 87.7539 54.6833C91.3512 54.6833 94.0531 53.5342 96.1772 51.3786C98.3538 49.2565 99.0321 46.2725 99.0321 43.863C99.0321 43.1148 98.9681 42.4267 98.8539 41.8522H87.7539ZM170.538 44.3485C169.896 42.6538 167.916 39.5296 163.883 39.5296C159.886 39.5296 156.558 42.6004 156.558 47.1076C156.558 51.3519 159.851 54.6833 164.266 54.6833C167.836 54.6833 169.896 52.5611 170.744 51.3252L168.094 49.6039C167.21 50.8642 166.007 51.6993 164.266 51.6993C162.537 51.6993 161.297 50.9266 160.502 49.4034L170.897 45.2103L170.538 44.3485ZM159.94 46.8715C159.851 43.9499 162.268 42.4534 163.999 42.4534C165.356 42.4534 166.507 43.1148 166.891 44.0612L159.94 46.8715ZM151.492 54.2223H154.909V31.9538H151.492V54.2223ZM145.896 41.2175H145.782C145.015 40.3312 143.551 39.5296 141.696 39.5296C137.804 39.5296 134.246 42.8609 134.246 47.132C134.246 51.3786 137.804 54.6833 141.696 54.6833C143.551 54.6833 145.015 53.875 145.782 52.9619H145.896V54.0486C145.896 56.9458 144.309 58.5023 141.749 58.5023C139.661 58.5023 138.366 57.0326 137.832 55.7967L134.86 57.0059C135.717 59.0145 137.985 61.4863 141.749 61.4863C145.755 61.4863 149.135 59.1882 149.135 53.5966V39.9905H145.896V41.2175ZM141.989 51.6993C139.634 51.6993 137.663 49.7775 137.663 47.132C137.663 44.462 139.634 42.5136 141.989 42.5136C144.309 42.5136 146.139 44.462 146.139 47.132C146.139 49.7775 144.309 51.6993 141.989 51.6993ZM186.535 31.9538H178.363V54.2223H181.77V45.7848H186.535C190.319 45.7848 194.031 43.1148 194.031 38.8682C194.031 34.6238 190.31 31.9538 186.535 31.9538ZM186.624 42.6872H181.77V35.0514H186.624C189.168 35.0514 190.621 37.1112 190.621 38.8682C190.621 40.5918 189.168 42.6872 186.624 42.6872ZM207.689 39.4873C205.227 39.4873 202.666 40.5472 201.613 42.8966L204.637 44.1325C205.288 42.8966 206.485 42.4957 207.75 42.4957C209.518 42.4957 211.311 43.5312 211.338 45.3595V45.5933C210.722 45.2459 209.402 44.7315 207.778 44.7315C204.521 44.7315 201.202 46.4796 201.202 49.7419C201.202 52.7259 203.87 54.6477 206.869 54.6477C209.162 54.6477 210.427 53.6389 211.222 52.4654H211.338V54.1867H214.63V45.6445C214.63 41.6963 211.606 39.4873 207.689 39.4873ZM207.278 51.6904C206.163 51.6904 204.61 51.1515 204.61 49.8043C204.61 48.0807 206.547 47.4193 208.223 47.4193C209.724 47.4193 210.427 47.7422 211.338 48.1675C211.071 50.2296 209.251 51.6904 207.278 51.6904ZM226.62 39.9749L222.703 49.6283H222.587L218.537 39.9749H214.863L220.947 53.4652L217.475 60.9719H221.036L230.412 39.9749H226.62ZM195.904 54.2223H199.32V31.9538H195.904V54.2223Z" fill="white"/>
<defs>
<linearGradient id="paint0_linear_690_1429" x1="40.3503" y1="56.5207" x2="10.4623" y2="25.8664" gradientUnits="userSpaceOnUse">
<stop stop-color="#00A0FF"/>
<stop offset="0.0066" stop-color="#00A1FF"/>
<stop offset="0.2601" stop-color="#00BEFF"/>
<stop offset="0.5122" stop-color="#00D2FF"/>
<stop offset="0.7604" stop-color="#00DFFF"/>
<stop offset="1" stop-color="#00E3FF"/>
</linearGradient>
<linearGradient id="paint1_linear_690_1429" x1="62.3395" y1="36.4048" x2="18.1279" y2="36.4048" gradientUnits="userSpaceOnUse">
<stop stop-color="#FFE000"/>
<stop offset="0.4087" stop-color="#FFBD00"/>
<stop offset="0.7754" stop-color="#FFA500"/>
<stop offset="1" stop-color="#FF9C00"/>
</linearGradient>
<linearGradient id="paint2_linear_690_1429" x1="45.8817" y1="32.3169" x2="5.3512" y2="-9.25286" gradientUnits="userSpaceOnUse">
<stop stop-color="#FF3A44"/>
<stop offset="1" stop-color="#C31162"/>
</linearGradient>
<linearGradient id="paint3_linear_690_1429" x1="13.8521" y1="71.7232" x2="31.9508" y2="53.1606" gradientUnits="userSpaceOnUse">
<stop stop-color="#32A071"/>
<stop offset="0.0685" stop-color="#2DA771"/>
<stop offset="0.4762" stop-color="#15CF74"/>
<stop offset="0.8009" stop-color="#06E775"/>
<stop offset="1" stop-color="#00F076"/>
</linearGradient>
</defs>
</svg>
