 <svg width="584" height="455" viewBox="0 0 584 455" fill="none" xmlns="http://www.w3.org/2000/svg">
                                            <g clip-path="url(#clip0_690_1063)">
                                                <path d="M231.792 234.96L273.469 251.057L272.744 303.823L251.102 401.621L228.043 397.384L237.053 303.823L231.792 234.96Z" fill="#FFCC82" />
                                                <path d="M251.228 400.896L285.455 430.618L242.424 428.382L236.344 420.869L232.737 427.831L222.609 427.279L228.059 397.415L251.228 400.896Z" fill="#201D29" />
                                                <path d="M251.244 400.676L228.043 397.384C228.043 397.384 239.179 415.986 251.244 400.676Z" fill="#FFB673" />
                                                <path d="M195.864 178.367L187.894 176.555C187.263 176.466 186.669 176.204 186.177 175.799C184.712 174.602 181.845 171.987 183.531 171.2C185.752 170.16 195.486 171.798 195.486 171.798" fill="#FFCC82" />
                                                <path d="M197.124 183.47L189.138 181.658C188.512 181.569 187.923 181.307 187.437 180.902C185.972 179.705 183.106 177.091 184.791 176.303C186.996 175.263 196.746 176.886 196.746 176.886" fill="#FFCC82" />
                                                <path d="M198.368 188.573L190.398 186.762C189.768 186.669 189.175 186.408 188.681 186.006C187.216 184.808 184.35 182.194 186.035 181.406C188.256 180.367 197.99 181.989 197.99 181.989" fill="#FFCC82" />
                                                <path d="M197.912 187.266C197.912 187.266 189.516 185.438 187.295 186.478C185.61 187.266 188.477 189.88 189.941 191.077C190.433 191.473 191.019 191.734 191.642 191.833L196.116 192.841C197.142 193.084 198.221 192.938 199.146 192.432C200.071 191.926 200.775 191.096 201.124 190.101C202.321 186.651 207.094 178.681 205.409 173.168C202.652 164.175 199.108 160.315 199.108 160.315L194.273 172.633L197.912 187.266Z" fill="#FFCC82" />
                                                <path d="M214.434 6.30256C209.039 11.276 205.208 17.7121 203.408 24.8258C201.125 32.6067 204.605 35.0164 203.518 45.0025C202.321 56.0282 192.241 52.248 188.744 63.9037C184.098 79.3239 195.281 85.5142 190.319 97.926C185.594 109.503 174.269 108.29 169.843 119.851C165.417 131.412 172.725 144.171 174.379 147.069C187.468 169.892 224.94 182.162 250.74 167.545C260.726 161.875 274.367 149.101 274.178 134.279C274.052 121.175 263.262 116.449 260.569 99.5011C258.442 86.0655 267.247 83.3564 265.105 70.0153C263.089 57.4145 256.174 57.1938 254.898 45.4436C253.323 31.4094 260.033 26.9993 256.474 16.8714C252.725 5.94023 238.738 2.14429 236.438 1.5615C224.058 -1.74621 216.655 5.02673 214.434 6.30256Z" fill="#201D29" />
                                                <path d="M307.696 156.677L266.019 117.032C261.435 111.913 269.437 76.7723 274.004 81.9072L307.696 125.222L326.44 110.432C329.275 107.739 340.616 96.1618 344.286 94.886C347.247 93.8622 346.743 96.8547 350.681 101.864C352.744 104.494 307.696 156.677 307.696 156.677Z" fill="#FFCC82" />
                                                <path d="M254.82 72.9762C254.82 72.9762 278.446 78.0482 296.954 102.273L271.878 114.165L257.844 103.911L254.82 72.9762Z" fill="#84B5D5" />
                                                <path d="M157.809 124.34L186.76 88.5068C192.131 84.2225 223.444 91.342 218.072 95.6263L183.011 127.049C183.011 127.049 198.62 159.402 200.715 162.71C211.882 180.429 199.959 170.963 194.745 174.617C191.989 176.539 157.809 124.34 157.809 124.34Z" fill="#FFCC82" />
                                                <path d="M199.093 234.96L240.77 251.057L240.045 303.823L218.419 401.621L195.344 397.384L204.354 303.823L199.093 234.96Z" fill="#FFCC82" />
                                                <path d="M218.529 400.896L252.756 430.618L209.725 428.382L203.645 420.869L200.038 427.831L189.926 427.279L195.36 397.415L218.529 400.896Z" fill="#201D29" />
                                                <path d="M218.592 400.676L195.391 397.384C195.391 397.384 206.48 415.986 218.592 400.676Z" fill="#FFB673" />
                                                <path d="M202.18 97.4847C202.18 97.4847 194.698 124.025 213.064 132.137C231.429 140.249 251.417 138.201 261.734 133.255C268.491 130.01 275.91 114.889 269.909 95.3582C264.27 77.0083 202.18 97.4847 202.18 97.4847Z" fill="#84B5D5" />
                                                <path d="M237.383 121.379C257.713 121.379 274.193 109.849 274.193 95.6262C274.193 81.4033 257.713 69.8734 237.383 69.8734C217.054 69.8734 200.573 81.4033 200.573 95.6262C200.573 109.849 217.054 121.379 237.383 121.379Z" fill="#84B5D5" />
                                                <path d="M244.156 55.5242L242.235 34.5439L228.547 38.2139L227.885 52.437L242.439 52.6733L244.156 55.5242Z" fill="#201D29" />
                                                <path d="M226.83 65.1953C226.421 68.0777 225.917 71.0545 225.255 75.7011C224.137 83.7026 229.461 91.2001 237.383 101.738C237.383 101.738 248.819 84.4114 248.63 76.1106L246.314 65.6679C239.069 68.3771 231.193 66.6601 226.83 65.1953Z" fill="#FFCC82" />
                                                <path d="M246.314 65.6679L244.235 56.3119L244.156 55.5243L242.439 52.6733L227.885 52.4368L227.696 56.5322C227.476 60.1077 227.208 62.6121 226.83 65.1953C231.193 66.6601 239.069 68.3771 246.314 65.6679Z" fill="#FFCC82" />
                                                <path d="M227.854 55.1933L227.319 61.1157C227.319 61.1157 237.383 66.0933 245.369 61.431L227.854 55.1933Z" fill="#E69F5E" />
                                                <path d="M254.268 14.2723C256.568 14.9338 261.719 33.3785 257.513 49.161C253.134 65.605 233.21 65.6362 225.051 52.0274C214.718 34.843 219.364 21.4076 220.514 17.5801C222.546 10.8545 241.557 10.6653 254.268 14.2723Z" fill="#FFCC82" />
                                                <path d="M260.002 15.5797C261.167 19.612 258.017 24.6521 254.3 27.2038C249.181 30.732 244.959 28.1175 238.155 32.1655C234.249 34.4652 235.005 35.6779 231.036 38.324C225.979 41.7105 216.702 45.1286 212.26 42.0099C206.968 38.3084 209.299 25.9438 215.332 18.2731C222.467 9.23198 233.824 7.89315 237.084 7.64113C245.07 7.08985 258.08 9.02728 260.002 15.5797Z" fill="#201D29" />
                                                <path d="M203.944 123.537C206.13 135.094 206.771 146.889 205.85 158.615L270.287 159.812C270.287 159.812 264.554 141.572 269.799 122.623L203.944 123.537Z" fill="#84B5D5" />
                                                <path d="M226.357 71.0546C226.357 71.0546 202.274 72.3934 180.176 93.421L202.794 109.046L218.545 101.171L226.357 71.0546Z" fill="#84B5D5" />
                                                <path d="M252.441 36.4811C252.26 36.6881 252.168 36.9583 252.186 37.2329C252.203 37.5075 252.329 37.7639 252.536 37.9459C252.745 38.1276 253.017 38.2189 253.293 38.1997C253.569 38.1805 253.827 38.0524 254.009 37.8436C254.19 37.6347 254.282 37.3622 254.262 37.086C254.243 36.8098 254.115 36.5525 253.906 36.3708C253.697 36.1913 253.425 36.1024 253.151 36.1231C252.876 36.1438 252.621 36.2725 252.441 36.4811Z" fill="#201D29" />
                                                <path d="M246.33 47.8692C245.516 46.5646 245.05 45.0735 244.975 43.5377C244.975 43.475 245 43.4151 245.045 43.3708C245.089 43.3265 245.149 43.3016 245.211 43.3016C245.274 43.3016 245.334 43.3265 245.379 43.3708C245.423 43.4151 245.448 43.475 245.448 43.5377C245.92 49.6333 250.41 50.2634 250.599 50.2949C250.661 50.2949 250.721 50.3198 250.765 50.3641C250.81 50.4085 250.835 50.4684 250.835 50.531C250.835 50.5937 250.81 50.654 250.765 50.6983C250.721 50.7426 250.661 50.7675 250.599 50.7675C249.725 50.6065 248.895 50.2655 248.16 49.7666C247.425 49.2677 246.802 48.6216 246.33 47.8692Z" fill="#201D29" />
                                                <path d="M258.647 34.78L261.608 44.5929C261.784 45.2026 261.736 45.8553 261.474 46.4329C261.211 47.0105 260.75 47.475 260.175 47.7431L254.804 49.9327L258.647 34.78Z" fill="#FFCC82" />
                                                <path d="M218.325 39.9148C218.607 41.247 219.279 42.4656 220.254 43.4161C221.23 44.3666 222.465 45.0065 223.804 45.2546C225.143 45.5027 226.526 45.348 227.777 44.81C229.028 44.272 230.092 43.375 230.833 42.2324C231.574 41.0898 231.959 39.753 231.94 38.3912C231.922 37.0294 231.499 35.7039 230.727 34.5823C229.954 33.4606 228.866 32.5931 227.601 32.09C226.335 31.5869 224.949 31.4707 223.617 31.7559C222.733 31.943 221.895 32.3025 221.151 32.8141C220.406 33.3257 219.769 33.9793 219.278 34.7372C218.786 35.4952 218.449 36.3425 218.286 37.231C218.122 38.1195 218.135 39.0315 218.325 39.9148Z" fill="#FFCC82" />
                                                <path d="M225.57 40.7498L224.058 36.3868L224.515 36.2292L226.027 40.5923L225.57 40.7498Z" fill="#201D29" />
                                                <path d="M222.94 39.4739L222.782 39.0172L227.145 37.5051L227.303 37.9618L222.94 39.4739Z" fill="#201D29" />
                                                <path d="M218.782 46.0737C218.921 46.742 219.256 47.3535 219.743 47.8315C220.231 48.3094 220.849 48.6322 221.52 48.7586C222.191 48.885 222.884 48.8092 223.512 48.5413C224.14 48.2734 224.674 47.8252 225.047 47.2535C225.42 46.6818 225.615 46.0122 225.608 45.3296C225.6 44.647 225.39 43.982 225.004 43.4188C224.618 42.8556 224.074 42.4196 223.44 42.1659C222.806 41.9123 222.112 41.8526 221.444 41.9941C220.55 42.1833 219.768 42.7191 219.269 43.4838C218.77 44.2485 218.595 45.1799 218.782 46.0737Z" fill="white" />
                                                <path d="M206.291 148.802C206.291 148.802 231.319 157.985 268.145 148.802C268.145 148.802 297.159 225.147 288.055 301.586H184.759C184.759 301.586 182.617 207.742 206.291 148.802Z" fill="#84B5D5" />
                                                <path d="M238.754 156.22V181.06" stroke="white" stroke-width="0.551285" stroke-miterlimit="10" />
                                                <path d="M243.904 163.482C244.539 163.482 245.054 162.967 245.054 162.332C245.054 161.697 244.539 161.182 243.904 161.182C243.269 161.182 242.754 161.697 242.754 162.332C242.754 162.967 243.269 163.482 243.904 163.482Z" stroke="white" stroke-width="0.551285" stroke-miterlimit="10" />
                                                <path d="M243.904 171.83C244.539 171.83 245.054 171.315 245.054 170.68C245.054 170.045 244.539 169.53 243.904 169.53C243.269 169.53 242.754 170.045 242.754 170.68C242.754 171.315 243.269 171.83 243.904 171.83Z" stroke="white" stroke-width="0.551285" stroke-miterlimit="10" />
                                                <path d="M243.904 180.178C244.539 180.178 245.054 179.663 245.054 179.028C245.054 178.393 244.539 177.878 243.904 177.878C243.269 177.878 242.754 178.393 242.754 179.028C242.754 179.663 243.269 180.178 243.904 180.178Z" stroke="white" stroke-width="0.551285" stroke-miterlimit="10" />
                                                <path d="M355.201 109.44L370.038 111.818C370.459 111.869 370.86 112.026 371.204 112.275C372.165 112.952 374.007 114.433 372.779 114.795C371.078 115.268 354.949 112.937 354.949 112.937" fill="#FFCC82" />
                                                <path d="M352.586 93.9566L354.965 97.5321C355.905 98.5464 356.963 99.4452 358.115 100.21L370.527 104.053C370.527 104.053 373.504 106.038 371.803 106.825C370.101 107.613 355.862 105.439 355.862 105.439L373.015 108.164C373.352 108.22 373.673 108.343 373.96 108.526C374.968 109.251 377.41 111.094 375.851 111.535C373.913 112.086 355.5 109.424 355.5 109.424" fill="#FFCC82" />
                                                <path d="M368.652 115.772C367.944 115.099 367.093 114.592 366.163 114.291L356.051 113.204L356.65 104.998L353.122 96.5712L345.246 94.8703C345.246 94.8703 334.819 99.9578 343.104 110.889C343.761 111.692 344.628 112.298 345.608 112.638L354.618 115.945C354.815 115.992 355.015 116.023 355.217 116.04C357.248 116.166 367.817 117.489 368.526 117.268C368.904 117.158 368.983 116.213 368.652 115.772Z" fill="#FFCC82" />
                                                <path d="M355.626 99.7215L354.918 97.107C354.666 95.9099 356.146 95.4057 357.453 94.5867L361.958 92.3817C362.541 92.0982 362.572 91.4839 361.958 91.2319C360.997 90.7187 359.935 90.4219 358.846 90.3621C357.758 90.3022 356.67 90.4808 355.658 90.8854L344.018 94.9178L355.626 99.7215Z" fill="#FFCC82" />
                                                <path d="M251.48 9.1687C248.359 9.05085 245.233 9.14585 242.124 9.4525C239.332 9.70873 236.585 10.3227 233.95 11.2795C233.296 11.4822 232.659 11.7349 232.044 12.0355C231.387 12.2681 230.754 12.5635 230.154 12.9176C229.54 13.2327 228.909 13.579 228.263 13.8782C227.618 14.1775 227.066 14.6658 226.436 15.0438L225.476 15.611C225.192 15.8315 224.893 16.0677 224.578 16.2724C223.979 16.7292 223.334 17.1546 222.688 17.5956C221.428 18.525 220.199 19.5489 218.687 20.4624C219.031 18.7972 219.559 17.1752 220.262 15.6268C220.672 14.8865 221.097 14.1459 221.553 13.4214L222.263 12.3189L223.113 11.3425C223.696 10.6968 224.294 10.051 224.924 9.42097C225.554 8.79093 226.326 8.33415 227.035 7.84587C227.75 7.30803 228.521 6.84842 229.335 6.47534C230.128 6.04561 230.955 5.68219 231.807 5.38862C235.186 4.16448 238.834 3.88134 242.361 4.56954C245.802 5.12735 248.986 6.73342 251.48 9.1687Z" fill="#201D29" />
                                                <path d="M483.997 324.977L367.235 412.206" stroke="#6D5EAB" stroke-width="1.5751" stroke-miterlimit="10" />
                                                <path d="M388.31 306.516L488.013 444.495" stroke="#6D5EAB" stroke-width="1.5751" stroke-miterlimit="10" />
                                                <path d="M364.337 297.774C363.391 294.845 362.998 293.049 362.998 293.049C382.072 300.751 422.505 300.358 438.303 287.221C454.101 274.085 438.713 229.195 439.674 189.455C440.635 149.715 461.284 146.612 461.284 146.612C496.661 131.365 507.293 158 507.293 158L495.086 173.751L491.148 213.775L494.928 282.732L491.085 317.211L470.798 339.341L395.193 343.5C378.056 329.891 369.424 311.809 365.597 301.397C365.222 300.563 364.901 299.705 364.636 298.83L364.337 297.774Z" fill="#C1B6EE" />
                                                <path d="M392.231 333.34C414.818 342.444 460.749 342.271 479.445 326.725C498.141 311.179 480.579 255.845 481.713 208.75C482.847 161.654 507.293 158.032 507.293 158.032C507.293 158.032 489.446 201.111 493.652 232.88C497.605 262.713 510.632 316.03 485.131 338.239C467.915 353.265 433.263 354.793 403.226 348.603C397.209 347.359 394.941 345.295 392.924 338.176L392.231 333.34Z" fill="#AEA4D6" />
                                                <path d="M392.232 333.34C392.232 333.34 371.078 312.864 362.998 293.081C362.998 293.081 365.66 332.868 399.446 347.485C399.446 347.485 396.957 347.595 392.232 333.34Z" fill="#B3B3B3" />
                                                <path d="M322.88 419.876L276.682 447.834L332.992 446.291L341.261 439.155L345.656 445.897L360.273 445.456L353.027 416.805L322.88 419.876Z" fill="#201D29" />
                                                <path d="M298.088 434.871L300.403 443.125L337.985 441.975L332.992 446.291L276.682 447.834L298.088 434.871Z" fill="#201D29" />
                                                <path d="M343.104 441.991L359.265 441.502L360.273 445.456L345.656 445.897L343.104 441.991Z" fill="#22175E" />
                                                <path d="M360.871 419.876L314.674 447.834L370.983 446.291L379.253 439.155L383.647 445.897L398.264 445.456L391.019 416.805L360.871 419.876Z" fill="#201D29" />
                                                <path d="M336.079 434.871L338.395 443.125L375.976 441.975L370.983 446.291L314.674 447.834L336.079 434.871Z" fill="#201D29" />
                                                <path d="M381.095 441.991L397.272 441.502L398.264 445.456L383.647 445.897L381.095 441.991Z" fill="#201D29" />
                                                <path d="M362.777 422.916L317.099 422.57L318.075 293.411C318.106 290.604 318.97 287.868 320.557 285.552C322.144 283.236 324.383 281.443 326.991 280.401L426.537 241.024L443.328 283.551L363.596 315.053L362.777 422.916Z" fill="#4880A7" />
                                                <path d="M394.893 425.326L349.215 424.98L350.176 296.31C350.204 293.401 351.126 290.572 352.816 288.205C354.507 285.838 356.885 284.048 359.627 283.079L462.087 247.797L469.427 266.367C470.671 269.506 471.283 272.859 471.229 276.234C471.175 279.61 470.456 282.941 469.113 286.039C467.77 289.136 465.829 291.938 463.402 294.284C460.975 296.63 458.109 298.475 454.968 299.712L395.633 317.495L394.893 425.326Z" fill="#346A91" />
                                                <path d="M395.87 239.748L327.873 263.17L315.398 228.675L372.196 209.112L393.302 152.535L424.584 170.79L395.87 239.748Z" fill="#84B5D5" />
                                                <path d="M410.487 136.863L457.141 143.651C477.208 148.062 482.217 160.804 480.768 171.908L471.317 224.312V268.746H382.718L386.734 179.264C385.758 165.702 390.704 152.771 398.831 141.871C400.085 140.122 401.766 138.723 403.714 137.808C405.831 136.838 408.186 136.509 410.487 136.863Z" fill="#11527E" />
                                                <path d="M441.311 113.645L441.469 138.374C441.469 141.682 433.94 150.44 425.324 152.834C424.149 153.151 422.915 153.184 421.724 152.93C420.534 152.676 419.42 152.142 418.477 151.372C417.533 150.603 416.787 149.62 416.298 148.504C415.81 147.389 415.595 146.173 415.669 144.958L417.15 121.442L441.311 113.645Z" fill="#D18252" />
                                                <path d="M416.504 131.539L417.181 120.954L435.153 110.779L434.838 115.047C434.838 115.047 432.806 122.23 416.504 131.539Z" fill="#755237" />
                                                <path d="M420.316 152.613C420.316 152.613 406.691 187.833 411.999 199.599C411.999 199.536 423.655 182.777 420.316 152.613Z" fill="#402B6E" />
                                                <path d="M442.966 141.666L441.438 134.547L420.3 152.487L424.773 161.67L442.966 141.666Z" fill="white" />
                                                <path d="M416.362 134.374L416.126 137.618L420.3 152.487L413.574 159.119L411.385 136.941L416.362 134.374Z" fill="white" />
                                                <path d="M441.359 121.285L411.574 124.34C409.761 124.579 407.918 124.393 406.189 123.799C404.46 123.205 402.893 122.219 401.609 120.917C400.326 119.615 399.361 118.034 398.792 116.296C398.223 114.559 398.064 112.714 398.327 110.905L403.194 83.8761L442.178 79.6073L441.359 121.285Z" fill="#D18252" />
                                                <path d="M398.989 77.0087C400.186 96.3509 430.916 82.7419 430.491 91.0584C429.341 112.322 441.643 108.936 441.643 108.936C441.643 108.936 460.544 79.2295 441.863 76.5361C423.182 73.8427 397.225 48.3734 398.989 77.0087Z" fill="#201D29" />
                                                <path d="M448.053 102.21C448.21 103.754 447.907 105.311 447.182 106.683C446.458 108.056 445.343 109.184 443.98 109.925C442.616 110.667 441.064 110.989 439.518 110.851C437.972 110.713 436.501 110.121 435.29 109.15C434.079 108.178 433.182 106.871 432.712 105.392C432.242 103.913 432.22 102.327 432.648 100.835C433.076 99.343 433.935 98.011 435.117 97.0058C436.3 96.0006 437.754 95.3671 439.296 95.1853C441.387 94.9641 443.481 95.578 445.121 96.8939C446.761 98.2097 447.815 100.121 448.053 102.21Z" fill="#D18252" />
                                                <path d="M403.588 89.6093L396.311 99.2961C395.24 100.745 396.311 102.446 398.39 102.62L402.596 102.824L403.588 89.6093Z" fill="#D18252" />
                                                <path d="M438.634 105.423L438.224 105.093L441.69 100.777L442.099 101.108L438.634 105.423Z" fill="#201D29" />
                                                <path d="M442.146 105.045L437.831 101.58L438.161 101.155L442.493 104.636L442.146 105.045Z" fill="#201D29" />
                                                <path d="M408.928 96.1145C408.945 96.2636 408.933 96.4147 408.892 96.559C408.85 96.7033 408.78 96.8383 408.687 96.9555C408.593 97.0727 408.477 97.17 408.345 97.242C408.214 97.314 408.069 97.359 407.92 97.3746C407.766 97.3979 407.61 97.3899 407.46 97.3512C407.31 97.3125 407.169 97.2441 407.047 97.1497C406.924 97.0553 406.821 96.9371 406.746 96.8021C406.67 96.6671 406.621 96.518 406.604 96.3641C406.587 96.2101 406.602 96.0544 406.646 95.9061C406.691 95.7577 406.765 95.6197 406.865 95.5008C406.964 95.3818 407.086 95.2843 407.224 95.2139C407.362 95.1434 407.513 95.1016 407.668 95.0908C407.97 95.06 408.273 95.1504 408.509 95.3423C408.745 95.5342 408.896 95.8118 408.928 96.1145Z" fill="#201D29" />
                                                <path d="M412.786 94.5079C412.628 94.5242 412.468 94.4911 412.33 94.4133L408.03 92.0822C407.938 92.0327 407.858 91.9655 407.793 91.8849C407.727 91.8042 407.679 91.7114 407.65 91.6119C407.62 91.5123 407.611 91.4081 407.622 91.305C407.633 91.2018 407.665 91.1018 407.715 91.0108C407.764 90.9175 407.832 90.8352 407.913 90.7685C407.995 90.7019 408.09 90.6526 408.191 90.6232C408.292 90.5938 408.399 90.5853 408.504 90.5978C408.609 90.6103 408.71 90.6435 408.801 90.6959L413.086 93.0112C413.267 93.1141 413.401 93.2832 413.46 93.4831C413.519 93.6829 413.497 93.898 413.401 94.0826C413.341 94.1988 413.254 94.2983 413.147 94.3725C413.04 94.4467 412.916 94.4934 412.786 94.5079Z" fill="#201D29" />
                                                <path d="M405.336 105.36C405.13 105.416 404.913 105.416 404.706 105.36L400.217 104.179C400.085 104.143 399.961 104.081 399.852 103.997C399.744 103.913 399.653 103.808 399.585 103.689C399.517 103.57 399.473 103.439 399.456 103.302C399.439 103.166 399.449 103.028 399.485 102.896C399.521 102.763 399.583 102.639 399.667 102.531C399.751 102.422 399.856 102.331 399.975 102.263C400.094 102.195 400.226 102.151 400.362 102.134C400.498 102.117 400.636 102.127 400.768 102.163L405.258 103.329C405.524 103.406 405.751 103.584 405.889 103.825C406.027 104.066 406.066 104.351 405.998 104.62C405.958 104.789 405.877 104.945 405.761 105.074C405.646 105.204 405.5 105.302 405.336 105.36Z" fill="#201D29" />
                                                <path d="M319.21 239.732C319.21 239.732 287.708 236.314 288.055 239.905C288.401 243.496 287.519 250.096 291.457 253.735C295.394 257.373 299.726 264.241 305.633 262.981C311.539 261.72 322.045 256.302 322.045 256.302L319.21 239.732Z" fill="#D18252" />
                                                <path d="M319.21 239.732C319.21 239.732 294.638 232.518 292.433 232.439C290.228 232.361 289.803 239.338 299.521 240.315C306.087 240.786 312.683 240.591 319.21 239.732Z" fill="#D18252" />
                                                <path d="M346.947 241.496C346.947 241.496 321.494 236.771 319.289 236.976C317.083 237.181 317.351 244.19 327.164 244.064C333.828 243.875 340.456 243.014 346.947 241.496Z" fill="#D18252" />
                                                <path d="M293.803 230.738L293.677 265.028C293.677 266.241 300.734 267.265 309.428 267.296C318.123 267.328 325.179 266.367 325.179 265.138L325.305 230.864L293.803 230.738Z" fill="#11527E" />
                                                <path d="M325.368 230.864C325.368 232.077 318.296 233.038 309.617 233.007C300.939 232.975 293.866 231.967 293.866 230.738C293.866 229.51 300.939 228.565 309.617 228.596C318.296 228.628 325.368 229.636 325.368 230.864Z" fill="#755237" />
                                                <path d="M331.385 260.618H331.244H320.344L320.454 235.007H331.338C332.591 235.007 333.793 235.505 334.679 236.391C335.566 237.277 336.063 238.479 336.063 239.732V255.987C336.039 257.216 335.537 258.387 334.663 259.251C333.79 260.116 332.614 260.606 331.385 260.618ZM324.25 256.712H331.291C331.392 256.71 331.492 256.688 331.585 256.647C331.678 256.606 331.762 256.548 331.832 256.475C331.902 256.401 331.957 256.315 331.994 256.221C332.031 256.126 332.049 256.026 332.047 255.924V239.669C332.049 239.564 332.03 239.46 331.992 239.363C331.953 239.266 331.895 239.177 331.822 239.102C331.749 239.027 331.661 238.968 331.564 238.927C331.468 238.887 331.364 238.866 331.259 238.866H324.25V256.712Z" fill="#11527E" />
                                                <path d="M346.947 241.496C346.947 241.496 314.941 241.355 315.65 244.946C316.359 248.537 316.186 255.247 320.533 258.476C324.88 261.705 329.984 268.163 335.67 266.351C341.356 264.54 351.421 257.909 351.421 257.909L346.947 241.496Z" fill="#D18252" />
                                                <path d="M407.715 262.287L344.711 272.699L338.741 236.471L388.247 228.313L441.469 162.363C442.948 160.372 444.816 158.704 446.961 157.46C449.106 156.216 451.482 155.423 453.944 155.128C456.405 154.833 458.901 155.043 461.279 155.745C463.657 156.448 465.867 157.628 467.773 159.213C471.39 162.196 473.717 166.459 474.271 171.115C474.826 175.77 473.565 180.46 470.75 184.21L407.715 262.287Z" fill="#84B5D5" />
                                                <path d="M399.178 106.227C399.178 106.227 421.135 112.07 432.255 103.974C432.255 103.974 439.233 131.539 407.605 126.735C393.019 124.514 399.178 106.227 399.178 106.227Z" fill="#201D29" />
                                                <path d="M401.304 109.912C404.814 109.691 408.204 108.551 411.133 106.605C411.133 106.605 409.337 117.52 401.304 109.912Z" fill="white" />
                                                <path d="M309.948 227.21C309.948 227.21 301.049 217.539 306.893 210.294C312.736 203.048 313.477 201.284 310.043 195.802C310.043 195.802 324.534 197.031 317.918 206.734C314.768 211.302 312.201 214.247 310.326 218.783C309.098 221.807 309.948 227.21 309.948 227.21Z" fill="white" />
                                                <path d="M44.78 306.705L153.714 403.543" stroke="#6D5EAB" stroke-width="1.5751" stroke-miterlimit="10" />
                                                <path d="M141.696 296.436L30.6357 425.452" stroke="#6D5EAB" stroke-width="1.5751" stroke-miterlimit="10" />
                                                <path d="M166.315 289.757C167.512 286.906 168.047 285.189 168.047 285.189C148.39 291.238 108.194 287.426 93.5137 272.998C78.8338 258.57 98.0341 215.145 100.46 175.468C102.885 135.791 82.5507 130.94 82.5507 130.94C48.5915 112.747 35.7388 138.39 35.7388 138.39L46.5757 155.18L47.0956 195.393L37.4715 263.784L38.3537 298.436L56.6877 322.188L131.694 332.758C149.918 320.661 160.046 303.366 164.771 293.38C165.221 292.578 165.616 291.747 165.953 290.891L166.315 289.757Z" fill="#C1B6EE" />
                                                <path d="M135.506 322.834C112.242 329.985 66.4849 325.984 49.1746 308.832C31.8642 291.679 54.0734 238.047 56.9243 191.093C59.7753 144.139 35.7389 138.39 35.7389 138.39C35.7389 138.39 49.915 182.824 42.9846 214.121C36.5109 243.512 19.0115 295.522 42.5277 319.826C58.4205 336.254 92.805 340.727 123.283 337.152C129.379 336.427 131.805 334.569 134.435 327.701L135.506 322.834Z" fill="#AEA4D6" />
                                                <path d="M135.506 322.835C135.506 322.835 158.329 304.169 168.047 285.189C168.047 285.189 162.03 324.567 127.095 336.317C127.11 336.317 129.599 336.617 135.506 322.835Z" fill="#B3B3B3" />
                                                <path d="M122.511 104.053C119.093 96.5239 106.76 87.3254 97.7191 86.0496C80.5662 83.624 68.0756 103.486 64.1851 109.676C59.4598 117.079 55.0024 131.46 58.3416 140.8C62.9566 153.779 88.4888 164.694 103.83 158.205C121.156 150.849 129.883 120.481 122.511 104.053Z" fill="#201D29" />
                                                <path d="M144.264 237.59L201.849 242.567L204.716 209.506L159.479 205.6L127.646 155.071L103.783 178.13L144.264 237.59Z" fill="#11527E" />
                                                <path d="M174.049 414.615L206.905 442.652L166.142 440.983L160.314 433.832L156.974 440.573L146.406 440.101L152.281 411.465L174.049 414.615Z" fill="#201D29" />
                                                <path d="M191.674 429.658L189.815 437.895L162.613 436.667L166.142 440.983L206.905 442.652L191.674 429.658Z" fill="#201D29" />
                                                <path d="M158.912 436.667L147.209 436.147L146.406 440.101L156.974 440.573L158.912 436.667Z" fill="#201D29" />
                                                <path d="M73.8563 242.394C73.8563 242.394 66.4217 283.992 84.3306 294.262C103.799 305.414 149.933 332.175 149.933 332.175C149.933 332.175 153.761 371.773 152.863 383.901C152.123 394.013 152.123 407.874 152.28 411.544C152.406 414.442 173.875 415.954 174.048 414.694C175.041 407.59 177.057 393.178 177.797 388.091C180.947 366.323 184.097 333.388 181.987 315.258C179.782 296.798 123.425 255.215 123.425 255.215L73.8563 242.394Z" fill="#346A90" />
                                                <path d="M85.3389 411.938L98.0815 454.339L64.9256 429.406L63.7916 420.065L57.4754 423.767L48.8911 417.246L68.8004 396.738L85.3389 411.938Z" fill="#201D29" />
                                                <path d="M92.1747 434.682L86.3153 440.494L64.2324 423.751L64.9255 429.406L98.0813 454.339L92.1747 434.682Z" fill="#201D29" />
                                                <path d="M61.1296 421.625L51.6475 414.426L48.8911 417.246L57.4754 423.767L61.1296 421.625Z" fill="#201D29" />
                                                <path d="M66.7211 261.484C66.7211 261.484 47.9616 288.608 60.4207 305.587C68.1387 316.093 110.824 324.488 110.824 324.488C110.824 324.488 73.1473 392.218 65.3033 400.345L85.9215 413.86C90.9303 408.678 107.611 386.075 110.855 382.216C114.1 378.357 144.862 337.199 145.318 325.433C146.563 292.986 120.274 272.51 120.274 272.51L66.7211 261.484Z" fill="#4880A7" />
                                                <path d="M107.721 142.407L74.3759 151.054C56.7663 157.008 50.8756 168.9 53.2697 178.744L69.3041 234.156L66.0593 266.997L137.097 259.2L131.521 212.814C144.295 187.801 127.111 154.755 118.731 145.746C117.448 144.312 115.822 143.228 114.006 142.596C111.975 141.915 109.789 141.849 107.721 142.407Z" fill="white" />
                                                <path d="M80.6608 119.316L80.0151 146.896C80.3144 149.857 87.9692 156.992 95.955 158.3C97.0436 158.463 98.1557 158.366 99.1994 158.015C100.243 157.665 101.189 157.071 101.958 156.283C102.727 155.496 103.298 154.537 103.624 153.485C103.949 152.433 104.02 151.319 103.83 150.235L100.176 129.239L80.6608 119.316Z" fill="#FFB673" />
                                                <path d="M103.012 145.368L101.437 135.917L84.2834 128.546L84.9764 132.342C84.9764 132.342 87.4496 138.611 103.012 145.368Z" fill="#E69F5E" />
                                                <path d="M79.1487 149.81L103.972 284.055L60.484 282.906L65.6658 225.068L46.0085 163.639C46.0085 163.639 57.7116 155.354 79.1487 149.81Z" fill="#11527E" />
                                                <path d="M108.556 142.233C108.556 142.233 127.363 145.21 132.891 162.788C140.042 185.501 137.097 208.466 137.097 208.466L156.722 275.944L130.702 278.732C130.702 278.732 115.722 225.021 130.591 200.15C139.491 185.249 108.556 142.233 108.556 142.233Z" fill="#11527E" />
                                                <path d="M79.1488 149.81L61.1296 183.501L78.2982 191.518L73.7934 209.411L94.1122 230.738L79.1488 149.81Z" fill="#11527E" />
                                                <path d="M108.556 142.233C108.556 142.233 123.645 155.779 128.276 168.663L108.556 142.233Z" fill="#11527E" />
                                                <path d="M78.9912 149.983L79.6528 143.431L100.428 157.48L97.3254 166.191L78.9912 149.983Z" fill="white" />
                                                <path d="M102.193 140.816L102.728 143.698L100.428 157.48L107.138 162.789L106.934 142.627L102.193 140.816Z" fill="white" />
                                                <path d="M97.4357 166.6L78.8337 150.172L79.1488 149.81L97.2152 165.765L100.208 157.402L100.665 157.559L97.4357 166.6Z" fill="#11527E" />
                                                <path d="M107.39 163.277L100.287 157.669L100.586 157.291L106.886 162.284L106.682 142.627H107.17L107.39 163.277Z" fill="#11527E" />
                                                <path d="M81.4641 132.531L99.4678 140.832C101.137 141.674 102.992 142.079 104.86 142.007C106.728 141.936 108.547 141.39 110.147 140.422C112.557 138.858 114.254 136.408 114.872 133.602L122.417 111.314L90.9147 98.5558L81.4641 132.531Z" fill="#FFB673" />
                                                <path d="M122.511 111.314C122.779 112.889 94.5528 120.764 89.6385 115.803C80.0146 106.1 80.5032 127.569 80.5032 127.569C80.5032 127.569 58.4516 92.712 94.4899 87.1047C108.335 84.8838 120.18 97.7683 122.511 111.314Z" fill="#201D29" />
                                                <path d="M78.4084 118.181C78.6787 119.535 79.3445 120.778 80.3216 121.754C81.2986 122.729 82.5428 123.393 83.8971 123.661C85.2514 123.929 86.655 123.789 87.9298 123.259C89.2046 122.729 90.2936 121.833 91.0589 120.684C91.8241 119.535 92.2314 118.185 92.229 116.804C92.2267 115.423 91.8146 114.075 91.0454 112.928C90.2762 111.782 89.1845 110.889 87.9079 110.364C86.6313 109.838 85.2274 109.703 83.874 109.975C82.0618 110.34 80.4684 111.409 79.4436 112.948C78.4189 114.486 78.0466 116.369 78.4084 118.181Z" fill="#FFB673" />
                                                <path d="M84.5195 123.742C84.7889 124.663 84.9267 125.617 84.9291 126.577C84.9291 130.373 82.8974 133.444 80.393 133.444C77.8886 133.444 75.8565 130.373 75.8565 126.577C75.8565 122.781 77.8886 119.71 80.393 119.71C80.6707 119.712 80.9466 119.754 81.2121 119.835V118.513C80.9435 118.45 80.6687 118.418 80.393 118.418C77.2428 118.418 74.5652 122.072 74.5652 126.577C74.5652 131.082 77.1798 134.736 80.393 134.736C83.6062 134.736 86.2208 131.082 86.2208 126.577C86.216 125.626 86.0943 124.679 85.8585 123.757C85.4127 123.792 84.9645 123.786 84.5195 123.742Z" fill="white" />
                                                <path d="M85.8114 119.048L84.3623 114.669L84.8033 114.512L86.2682 118.89L85.8114 119.048Z" fill="#201D29" />
                                                <path d="M87.3678 115.992L82.9912 117.457L83.1411 117.905L87.5177 116.44L87.3678 115.992Z" fill="#201D29" />
                                                <path d="M113.754 119.883C113.687 120.005 113.646 120.14 113.633 120.279C113.62 120.418 113.634 120.558 113.676 120.691C113.718 120.824 113.786 120.947 113.877 121.053C113.967 121.159 114.078 121.246 114.203 121.308C114.327 121.37 114.464 121.407 114.603 121.416C114.742 121.424 114.881 121.405 115.013 121.359C115.144 121.312 115.265 121.24 115.368 121.146C115.471 121.052 115.554 120.939 115.613 120.812C115.725 120.567 115.738 120.288 115.648 120.033C115.559 119.779 115.374 119.569 115.133 119.448C114.891 119.328 114.613 119.306 114.355 119.387C114.098 119.468 113.882 119.646 113.754 119.883Z" fill="#201D29" />
                                                <path d="M109.422 130.342C108.301 129.283 107.471 127.954 107.012 126.482C107 126.453 106.994 126.422 106.994 126.391C106.995 126.36 107.002 126.329 107.016 126.301C107.029 126.272 107.048 126.247 107.072 126.227C107.096 126.207 107.124 126.192 107.154 126.183C107.215 126.162 107.281 126.165 107.34 126.192C107.398 126.218 107.444 126.266 107.469 126.325C109.469 132.121 113.974 131.585 114.163 131.554C114.225 131.549 114.287 131.567 114.336 131.605C114.386 131.643 114.42 131.698 114.431 131.759C114.438 131.79 114.438 131.823 114.431 131.854C114.424 131.885 114.41 131.915 114.391 131.94C114.371 131.966 114.347 131.987 114.318 132.002C114.29 132.017 114.258 132.025 114.226 132.027C113.353 132.091 112.475 131.974 111.649 131.684C110.822 131.394 110.064 130.937 109.422 130.342Z" fill="#201D29" />
                                                <path d="M119.928 118.308L120.857 125.427C120.915 125.872 120.809 126.323 120.56 126.697C120.312 127.07 119.936 127.341 119.503 127.459L116.557 128.278L119.928 118.308Z" fill="#FFB673" />
                                                <path d="M189.579 241.496L192.619 208.451L193.092 208.498L190.052 241.543L189.579 241.496Z" fill="#22175E" />
                                                <path d="M135.915 267.769L216.497 265.832L191.327 256.932L79.448 263.894L135.915 267.769Z" fill="#CFC4FF" />
                                                <path d="M138.42 267.281L166.976 260.004L161.905 264.54L138.908 270.557H138.735C135.9 270.777 82.9132 267.911 81.3853 267.533C79.8575 267.155 79.448 263.863 79.448 263.863C79.448 263.863 136.782 267.596 138.42 267.281Z" fill="#AEA4D6" />
                                                <path d="M62.9883 259.72C62.9883 259.72 74.1715 265.422 83.4646 261.484C92.7577 257.547 92.2696 263.847 96.3019 269.832C100.334 275.818 104.177 276.637 104.177 276.637C104.177 276.637 98.8375 257.42 97.1679 256.16C95.4983 254.9 89.1982 254.286 89.1982 254.286L68.1862 248.285L62.9883 259.72Z" fill="#FFB673" />
                                                <path d="M81.7163 253.829C81.7163 253.829 98.6643 252.853 100.917 254.538C115.502 265.438 111.249 268.43 111.249 268.43C111.249 268.43 99.4205 260.145 95.9237 257.405L81.7163 253.829Z" fill="#FFB673" />
                                                <path d="M80.6292 254.743C80.6292 254.743 96.8999 249.892 99.5304 251.01C116.242 258.271 112.777 262.162 112.777 262.162C112.777 262.162 99.3572 256.822 95.3407 254.979L80.6292 254.743Z" fill="#FFB673" />
                                                <path d="M79.0542 256.932C79.0542 256.932 93.7816 248.49 96.5537 249.057C114.478 252.333 112.006 256.932 112.006 256.932C112.006 256.932 97.7193 254.774 93.372 253.908L79.0542 256.932Z" fill="#FFB673" />
                                                <path d="M68.1387 248.395C68.1387 248.395 93.3405 246.41 95.4826 246.332C109.013 245.78 107.973 249.482 107.973 249.482C107.973 249.482 87.3393 255.782 84.0473 255.782L68.1387 248.395Z" fill="#FFB673" />
                                                <path d="M142.42 269.675L217.222 266.446C223.144 264.603 223.034 255.199 223.034 255.199L233.524 199.724C234.097 197.017 233.594 194.193 232.123 191.849C231.521 190.736 230.598 189.829 229.475 189.248C228.351 188.666 227.078 188.437 225.822 188.589L151.021 191.833C146.059 192.778 146.295 197.441 145.208 203.064L134.183 261.059C134.876 266.588 138.546 270.415 142.42 269.675Z" fill="#FDFDFD" />
                                                <path d="M184.413 228.754C182.334 232.235 182.129 236.629 183.94 238.519C185.752 240.409 188.918 239.133 190.997 235.652C193.076 232.171 193.281 227.777 191.469 225.887C189.658 223.997 186.492 225.257 184.413 228.754Z" fill="#CFC4FF" />
                                                <path d="M13.719 225.068L56.7666 271.376L79.9678 247.655L51.5214 218.909L61.6965 202.229L79.1487 149.778L62.1376 154.771C49.3163 158.867 44.4334 163.041 38.5111 175.578L13.719 225.068Z" fill="#11527E" />
                                                <path d="M49.7732 263.863L49.4109 263.532L71.1945 239.89L71.541 240.22L49.7732 263.863Z" fill="#22175E" />
                                                <path d="M115.171 124.687C114.628 124.679 114.093 124.561 113.596 124.341C112.45 123.711 111.599 122.655 111.227 121.401C110.855 120.148 110.994 118.799 111.612 117.646C112.144 116.405 113.09 115.386 114.289 114.764C114.842 114.474 115.453 114.311 116.077 114.286C116.701 114.262 117.322 114.376 117.896 114.622C118.465 114.881 118.968 115.265 119.369 115.745C119.77 116.225 120.058 116.788 120.212 117.394C120.565 118.7 120.448 120.088 119.881 121.316C119.348 122.558 118.402 123.576 117.203 124.199C116.571 124.511 115.877 124.678 115.171 124.687ZM116.258 115.473C115.742 115.47 115.234 115.595 114.778 115.835C113.823 116.323 113.07 117.132 112.651 118.119C112.163 118.986 112.035 120.009 112.295 120.97C112.554 121.93 113.18 122.75 114.037 123.254C114.452 123.431 114.901 123.511 115.351 123.49C115.801 123.468 116.241 123.344 116.636 123.128C117.599 122.645 118.358 121.835 118.778 120.844C119.237 119.858 119.332 118.742 119.046 117.694C118.939 117.255 118.735 116.846 118.449 116.497C118.163 116.148 117.801 115.868 117.392 115.677C117.018 115.525 116.615 115.455 116.211 115.473H116.258Z" fill="white" />
                                                <path d="M112.037 118.465L92.3008 116.418L92.1118 115.236L112.179 117.3L112.037 118.465Z" fill="white" />
                                                <path d="M508.064 266.351H0V281.157H508.064V266.351Z" fill="#6D5EAB" />
                                                <path d="M531.218 423.294C521.453 416.994 521.878 395.163 530.037 386.689C534.195 382.357 538.354 383.633 539.866 379.491C542.512 372.245 531.36 364.307 534.148 356.1C535.456 352.257 538.102 353.423 540.748 348.887C545.473 340.854 539.645 332.962 543 325.417C545.961 318.739 553.805 313.966 557.885 315.967C563.35 318.739 564.989 335.34 558.862 343.893C556.83 346.713 554.136 348.319 554.404 351.28C554.656 355.344 559.775 355.502 561.287 359.77C563.965 367.284 550.954 375.002 553.144 384.972C554.026 388.973 556.294 388.39 558.121 393.068C561.445 401.731 558.121 415.497 548.671 421.609C548.104 421.955 538.495 428.02 531.218 423.294Z" fill="#079E1F" />
                                                <path d="M536.653 417.01L535.818 417.183C534.069 408.504 534.573 400.928 537.393 394.643C538.607 391.918 540.262 389.411 542.291 387.224C544.363 385.216 545.756 382.612 546.277 379.774C547.001 375.427 545.631 372.56 544.166 369.536C542.701 366.512 541.189 363.393 542.04 358.794C542.606 355.973 543.948 353.366 545.914 351.265C548.193 348.899 549.58 345.814 549.836 342.539C549.948 341.053 549.911 339.56 549.726 338.081C549.433 335.985 549.503 333.854 549.931 331.781C550.699 328.156 552.319 324.765 554.656 321.889L555.302 322.504C553.055 325.247 551.494 328.487 550.75 331.954C550.342 333.924 550.278 335.948 550.561 337.939C550.762 339.475 550.799 341.027 550.671 342.571C550.391 346.03 548.941 349.291 546.56 351.816C544.687 353.79 543.409 356.252 542.874 358.92C542.071 363.204 543.441 366.055 544.906 369.063C546.371 372.072 547.883 375.222 547.096 379.9C546.558 382.899 545.092 385.654 542.906 387.776C540.953 389.905 539.357 392.336 538.18 394.974C535.424 401.133 534.936 408.52 536.653 417.01Z" fill="#079E1F" />
                                                <path d="M535.581 423.168C524.713 422.176 516.507 402.976 520.193 391.793C522.067 386.075 526.131 385.256 525.8 380.924C525.233 373.379 512.538 371.647 511.703 363.188C511.325 359.235 514.05 359.014 514.538 353.738C515.42 344.555 507.34 340.365 507.261 332.222C507.182 325.008 511.987 317.196 516.35 317.101C522.146 316.975 530.069 330.694 528.163 341.011C527.533 344.414 525.91 347.028 527.233 349.532C529.045 352.95 533.534 350.698 536.479 353.722C541.724 359.046 533.597 371.82 539.346 379.428C541.693 382.578 543.425 381.003 546.812 384.153C553.112 390.154 555.664 403.7 549.962 413.419C549.568 414.175 543.693 423.909 535.581 423.168Z" fill="#079E1F" />
                                                <path d="M537.77 415.151L537.141 415.702C532.226 408.929 529.69 402.094 529.58 395.336C529.555 392.368 529.991 389.414 530.872 386.579C531.86 383.906 532.03 381 531.36 378.231C530.289 374.088 527.974 372.245 525.532 370.355C523.091 368.465 520.555 366.386 519.484 361.96C518.865 359.188 518.995 356.301 519.862 353.596C520.902 350.532 520.902 347.21 519.862 344.146C519.387 342.807 518.769 341.524 518.019 340.318C516.944 338.602 516.166 336.717 515.719 334.742C514.952 331.164 515.011 327.458 515.892 323.906L516.696 324.126C515.833 327.536 515.768 331.099 516.507 334.537C516.927 336.422 517.674 338.218 518.712 339.846C519.482 341.111 520.121 342.451 520.618 343.846C521.728 347.072 521.761 350.571 520.712 353.817C519.892 356.362 519.762 359.08 520.334 361.692C521.342 365.803 523.626 367.646 526.068 369.568C529.066 371.542 531.249 374.536 532.211 377.995C532.924 380.929 532.754 384.008 531.722 386.846C530.857 389.592 530.432 392.458 530.462 395.336C530.462 401.889 532.982 408.551 537.77 415.151Z" fill="white" />
                                                <path d="M545.899 411.922C539.913 405.621 543.693 390.138 550.892 385.649C554.577 383.365 557.349 385.051 559.098 382.389C562.154 377.663 555.412 369.993 558.72 364.685C560.295 362.196 561.98 363.519 564.611 360.794C569.336 355.959 566.359 349.265 569.966 344.524C573.116 340.334 579.559 338.412 582.142 340.664C585.623 343.673 584.142 355.786 578.377 360.716C576.487 362.291 574.345 362.984 574.014 365.126C573.541 368.055 577.164 369.142 577.59 372.466C578.314 378.325 567.761 381.349 567.745 388.799C567.745 391.808 569.478 391.824 570.014 395.494C571.022 402.282 566.485 411.465 558.736 414.033C558.216 414.19 550.372 416.663 545.899 411.922Z" fill="#079E1F" />
                                                <path d="M550.797 408.472H550.183C550.309 401.952 551.884 396.659 554.908 392.721C556.222 391.008 557.82 389.532 559.633 388.358C561.434 387.32 562.854 385.73 563.681 383.822C564.605 381.35 564.644 378.634 563.791 376.136C562.901 373.514 562.974 370.66 563.996 368.087C564.839 366.193 566.219 364.589 567.966 363.472C569.981 362.21 571.473 360.264 572.171 357.99C572.49 356.965 572.701 355.909 572.801 354.84C572.928 353.31 573.317 351.813 573.951 350.414C575.073 347.984 576.783 345.872 578.928 344.271L579.29 344.823C577.249 346.362 575.624 348.387 574.565 350.714C573.963 352.048 573.595 353.476 573.478 354.935C573.381 356.064 573.159 357.178 572.817 358.258C572.085 360.659 570.514 362.716 568.391 364.055C566.732 365.109 565.418 366.626 564.61 368.418C563.661 370.85 563.605 373.54 564.453 376.01C565.35 378.653 565.3 381.527 564.311 384.137C563.445 386.162 561.948 387.852 560.043 388.957C558.292 390.095 556.747 391.522 555.475 393.178C552.514 396.959 550.938 402.125 550.797 408.472Z" fill="white" />
                                                <path d="M561.602 446.149H525.06L514.144 404.047H572.533L561.602 446.149Z" fill="#6D5EAB" />
                                            </g>
                                            <defs>
                                                <clipPath id="clip0_690_1063">
                                                    <rect width="584" height="453.755" fill="white" transform="translate(0 0.584961)" />
                                                </clipPath>
                                            </defs>
                                        </svg>