<svg width="563" height="563" viewBox="0 0 563 563" fill="none" xmlns="http://www.w3.org/2000/svg">
<rect x="0.962891" y="0.962952" width="561.852" height="561.852" fill="#E5EEF5"/>
<g clip-path="url(#clip0_690_694)">
<path d="M490.566 506.63H62.6453C61.9972 506.627 61.3762 506.342 60.918 505.836C60.4597 505.33 60.2014 504.645 60.1995 503.929C60.2014 503.213 60.4596 502.527 60.9178 502.021C61.376 501.515 61.997 501.229 62.6453 501.226H490.566C491.215 501.228 491.836 501.514 492.295 502.02C492.754 502.527 493.012 503.213 493.014 503.929C493.012 504.645 492.753 505.331 492.294 505.836C491.836 506.342 491.214 506.627 490.566 506.63Z" fill="#8F93AE"/>
<path d="M219.662 105.295H184.402L195.717 73.3287H205.438L219.662 105.295Z" fill="#67656B"/>
<path d="M205.94 105.295H170.68L188.312 73.3287H200.939L205.94 105.295Z" fill="#201D29"/>
<path d="M196.763 2.33307H195.844V73.3288H196.763V2.33307Z" fill="#201D29"/>
<path d="M308.817 192.963H287.133V218.756H308.817V192.963Z" fill="#F0B297"/>
<path d="M308.817 192.963V200.895C303.413 205.258 296.135 208.206 287.133 208.827V192.963H308.817Z" fill="#D1785E"/>
<path d="M309.414 189.483C310.399 189.716 311.435 189.582 312.329 189.107C313.202 188.637 313.998 188.035 314.688 187.322C316.56 185.517 318.305 183.242 318.17 180.692C318.127 179.838 317.838 178.954 317.17 178.39C316.376 177.72 315.166 177.639 314.199 178.014C313.237 178.427 312.425 179.126 311.875 180.016L309.414 189.483Z" fill="#F0B297"/>
<path d="M285.971 189.483C284.986 189.716 283.95 189.582 283.056 189.107C282.182 188.637 281.387 188.035 280.697 187.322C278.825 185.517 277.08 183.242 277.215 180.692C277.258 179.838 277.547 178.954 278.214 178.39C279.009 177.72 280.219 177.639 281.186 178.014C282.148 178.427 282.959 179.126 283.51 180.016L285.971 189.483Z" fill="#F0B297"/>
<path d="M313.245 190.718C313.988 182.74 316.068 178.087 317.354 173.478C318.273 170.025 319.202 164.125 315.193 158.924C311.224 153.521 301.265 150.451 292.15 153.034C282.964 155.622 277.874 160.991 278.984 167.102C279.546 170.76 280.065 175.82 280.684 179.597C281.192 182.734 280.238 185.882 281.397 188.94C283.558 194.2 291.909 203.427 298.488 203.427C303.859 203.427 312.734 194.208 313.245 190.718Z" fill="#F0B297"/>
<g style="mix-blend-mode:soft-light">
<path d="M299.65 183.102C299.598 183.254 299.533 183.401 299.455 183.542C299.393 183.69 299.288 183.816 299.155 183.907C299.02 183.98 298.818 183.928 298.658 183.701C298.572 183.569 298.518 183.418 298.502 183.261C298.481 183.074 298.503 182.884 298.566 182.706C298.628 182.529 298.73 182.367 298.864 182.234C298.975 182.126 299.11 182.044 299.258 181.996C299.528 181.924 299.712 182.015 299.771 182.159C299.816 182.314 299.816 182.479 299.771 182.634C299.744 182.793 299.704 182.95 299.65 183.102Z" fill="#F2F2F2"/>
</g>
<path d="M297.967 183.642C297.94 183.534 297.918 183.436 297.902 183.347C297.886 183.258 297.872 183.185 297.861 183.107C297.85 183.017 297.845 182.927 297.848 182.837C297.848 182.734 297.864 182.621 297.878 182.504C297.916 182.284 297.934 182.061 297.932 181.837C297.934 181.751 297.919 181.665 297.888 181.585C297.857 181.505 297.81 181.432 297.751 181.37C297.706 181.323 297.645 181.296 297.581 181.293C297.517 181.289 297.453 181.311 297.405 181.353C297.239 181.49 297.104 181.659 297.008 181.851C296.835 182.153 296.727 182.488 296.692 182.834C296.675 183.039 296.689 183.244 296.735 183.445C296.78 183.642 296.848 183.833 296.937 184.015C297.02 184.185 297.117 184.347 297.226 184.501C297.325 184.638 297.432 184.769 297.548 184.893C297.729 185.088 297.925 185.269 298.134 185.433C298.475 185.703 298.675 185.792 298.791 185.611C298.907 185.43 298.885 185.23 298.702 184.925C298.612 184.774 298.48 184.598 298.334 184.385C298.256 184.274 298.185 184.158 298.121 184.039C298.053 183.913 298.001 183.78 297.967 183.642Z" fill="#D1785E"/>
<path d="M303.57 175.456C304.456 175.254 305.371 175.211 306.272 175.329C307.182 175.444 308.066 175.718 308.882 176.139C309.692 176.571 309.333 177.395 308.522 177.198C307.727 177.001 306.922 176.848 306.11 176.742C305.298 176.635 304.481 176.575 303.662 176.563C302.843 176.553 302.684 175.666 303.57 175.456Z" fill="#1A1A1A"/>
<path d="M292.59 175.383C290.78 175.017 288.898 175.304 287.279 176.193C286.468 176.642 286.852 177.458 287.66 177.247C288.451 177.031 289.254 176.861 290.064 176.736C290.87 176.613 291.681 176.535 292.496 176.504C293.336 176.466 293.479 175.566 292.59 175.383Z" fill="#1A1A1A"/>
<path d="M291.739 182.18V180.059C291.735 179.568 291.537 179.098 291.187 178.753C290.838 178.407 290.366 178.213 289.875 178.214C289.384 178.218 288.914 178.417 288.568 178.766C288.223 179.115 288.029 179.587 288.03 180.078V182.199C288.032 183.22 291.745 183.199 291.739 182.18Z" fill="#1A1A1A"/>
<path d="M304.491 182.18V180.059C304.495 179.568 304.693 179.098 305.042 178.752C305.392 178.406 305.864 178.213 306.355 178.214C306.847 178.218 307.317 178.417 307.662 178.766C308.008 179.115 308.202 179.587 308.201 180.078V182.199C308.198 183.22 304.486 183.199 304.491 182.18Z" fill="#1A1A1A"/>
<path d="M294.13 190.275C295.712 190.913 297.434 191.122 299.122 190.881C300.811 190.64 302.406 189.957 303.746 188.902C304.159 188.575 303.575 187.997 303.167 188.321C301.929 189.272 300.462 189.881 298.914 190.084C297.366 190.288 295.791 190.081 294.349 189.483C294.244 189.455 294.132 189.469 294.038 189.523C293.943 189.576 293.873 189.665 293.844 189.769C293.818 189.874 293.833 189.985 293.886 190.079C293.939 190.173 294.027 190.243 294.13 190.275Z" fill="#A33939"/>
<path d="M338.957 220.372C341.324 222.22 345.403 226.021 345.647 228.058C345.89 230.095 353.638 284.238 354.122 287.742C355.092 294.766 332.684 287.555 331.835 282.97C330.987 278.386 321.626 245.001 321.626 245.001L330.668 218.494C330.668 218.494 336.458 218.424 338.957 220.372Z" fill="#393734"/>
<path d="M326.718 300.013C332.392 334.908 327.483 399.212 326.01 408.676C324.519 418.245 304.756 402.443 304.127 392.793C303.897 389.324 304.81 385.873 304.816 382.399C304.816 379.327 303.478 376.377 303.427 373.297C302.986 346.396 297.683 342.619 293.838 326.03L287.625 300.013H326.718Z" fill="#2C2A28"/>
<path d="M268.294 500.813C272.498 498.802 276.204 496.682 277.247 494.52L277.712 475.406C277.874 473.984 278.182 472.25 276.793 472.058L270.482 471.185C269.883 471.107 269.276 471.251 268.777 471.59C268.277 471.93 267.918 472.44 267.77 473.025C267.067 475.657 264.595 484.373 264.595 484.373L252.273 496.53C251.019 497.765 249.687 499.027 249.571 500.823C249.549 500.869 268.294 500.813 268.294 500.813Z" fill="#B3B3B3"/>
<path d="M277.588 480.458C277.19 480.396 278.617 490.67 273.935 491.438C273.634 491.483 273.331 491.508 273.027 491.513L272.657 487.174C272.657 487.174 266.005 484.102 261.021 484.491L259.867 486.858L245.697 494.655C244.527 495.812 242.754 497.56 242.59 499.97C242.597 500.383 242.739 500.782 242.995 501.107H278.806C278.806 501.107 277.987 480.517 277.588 480.458Z" fill="#1A1A1A"/>
<path d="M339.751 500.745C339.751 500.745 338.892 497.719 337.941 496.471L328.577 484.202C328.577 484.202 327.399 476.265 327.08 473.874C327.016 473.341 326.762 472.85 326.365 472.489C325.968 472.128 325.455 471.921 324.919 471.907L319.332 471.812C319.036 471.811 318.742 471.869 318.469 471.981C318.195 472.093 317.946 472.259 317.736 472.468C317.526 472.676 317.36 472.925 317.246 473.198C317.132 473.471 317.073 473.764 317.073 474.06L316.438 491.351C317.519 494.658 318.791 497.541 320.221 500.704L339.751 500.745Z" fill="#B3B3B3"/>
<path d="M338.873 495.72L332.538 487.42L331.665 484.789C327.372 483.776 321.247 485.553 321.247 485.553L320.437 489.287C320.173 489.242 319.912 489.179 319.656 489.098C315.668 487.796 316.954 480.966 316.592 480.963C316.23 480.96 312.064 501.104 312.064 501.104H340.946C340.959 500.994 340.973 500.885 340.978 500.775C341.11 498.651 339.762 496.89 338.873 495.72Z" fill="#1A1A1A"/>
<path d="M269.836 298.022C264.025 332.917 266.9 397.223 268.405 406.687C269.928 416.257 290.124 400.455 290.777 390.804C291.01 387.335 290.08 383.882 290.072 380.408C290.072 377.339 290.78 374.307 291.493 371.306C295.422 354.717 303.721 338.129 307.65 321.54V298.035L269.836 298.022Z" fill="#2C2A28"/>
<path d="M264.779 478.045C264.533 464.302 264.779 450.558 265 436.814C265.116 429.909 265.233 423.004 265.351 416.1C265.519 406.374 266.086 396.518 269.674 387.343C270.755 384.604 287.954 377.536 290.078 380.408C290.078 380.408 291.512 393.943 292.409 400.074C292.998 404.11 292.198 408.179 291.399 412.196C287.052 433.961 284.782 456.28 280.438 478.045H264.779Z" fill="#2C2A28"/>
<path d="M329.909 479.153C330.15 465.409 329.577 452.546 329.347 438.805C329.232 431.9 329.117 424.995 329.001 418.091C328.839 408.365 328.283 398.509 324.779 389.332C323.733 386.595 306.89 379.527 304.81 382.399C304.81 382.399 303.408 395.935 302.53 402.065C301.952 406.098 302.738 410.17 303.519 414.187C307.771 435.952 309.797 457.445 314.055 479.21L329.909 479.153Z" fill="#2C2A28"/>
<path d="M282.797 312.543C282.154 312.543 281.716 312.543 281.551 312.543C278.309 312.503 268.712 309.712 267.318 307.54C270.898 289.036 268.721 277.883 266.613 267.095C265.43 261.024 264.079 247.878 264.079 247.878C262.785 245.446 261.288 227.291 262.39 219.804L286.166 209.808L297.18 213.107H299.401L310.416 209.808L334.191 219.804C335.294 227.291 333.8 245.449 332.505 247.878C332.505 247.878 330.838 261.341 329.32 267.465C326.751 277.829 324.095 288.539 327.699 306.87L327.715 306.951C326.999 308.032 321.653 310.801 319.043 311.212C310.684 312.522 283.931 312.543 282.797 312.543Z" fill="#DCD0C8"/>
<path d="M302.487 223.26L306.642 219.232L304.17 212.477L298.302 211.956L292.431 212.477L289.961 219.232L294.117 223.26L287.603 286.583L298.302 299.092L308.998 286.583L302.487 223.26Z" fill="#D6513A"/>
<path d="M309.735 204.345L298.302 211.956L302.487 212.812L305.842 230.176L316.997 212.615L309.735 204.345Z" fill="#EAE3DE"/>
<path d="M286.865 204.345L298.302 211.956L294.117 212.812L290.761 230.176L279.603 212.615L286.865 204.345Z" fill="#EAE3DE"/>
<path d="M257.773 220.066C255.407 221.912 251.33 225.713 251.086 227.75C250.843 229.787 245.632 272.869 244.281 284.694C243.441 296.093 265.014 296.222 266.343 293.07C267.672 289.917 275.105 244.709 275.105 244.709L266.062 218.202C266.062 218.202 260.28 218.118 257.773 220.066Z" fill="#393734"/>
<path d="M337.039 219.396L315.204 210.573L308.498 262.337L307.65 326.69C316.025 332.401 331.473 330.434 333.167 328.286C334.861 326.138 332.087 311.725 331.738 308.955C327.956 279.666 333.527 248.399 333.527 248.399C333.527 248.399 338.328 226.494 337.039 219.396Z" fill="#393734"/>
<path d="M288.954 261.9L281.389 210.567L260.151 218.942C258.859 226.04 263.066 248.391 263.066 248.391C263.066 248.391 270.455 279.147 265.719 308.002C265.511 310.52 262.571 326.252 263.793 327.994C265.014 329.737 283.245 333.771 290.683 328.856L288.954 261.9Z" fill="#393734"/>
<path d="M311.997 171.733C311.193 171.682 310.405 171.487 309.671 171.157C307.752 170.279 305.642 169.698 304.586 168.021C303.168 165.77 304.543 162.641 302.5 162.023C299.258 161.045 292.82 164.065 289.945 162.409C289.35 162.066 288.839 161.594 288.449 161.029C287.76 162.007 286.744 162.874 285.763 163.638C283.991 165.022 282.037 166.61 281.921 168.715C281.848 170.006 282.499 171.227 282.856 172.481C283.529 174.859 281.627 181.97 281.627 181.97C280.922 181.005 278.925 177.396 278.422 175.864C277.834 174.091 278.117 172.173 277.68 170.366C277.209 168.423 275.926 166.691 275.518 164.735C275.067 162.509 275.907 160.118 277.639 158.475C277.495 157.394 277.478 156.3 277.59 155.214C277.861 152.902 278.941 150.576 280.989 149.146C282.81 147.877 285.458 147.482 287.506 148.36C291.096 145.269 295.314 142.457 300.136 142.941C304.475 143.378 307.863 146.399 311.859 147.974C314.199 148.895 316.749 149.325 319.113 150.187C321.477 151.048 323.768 152.532 324.565 154.701C324.755 155.257 324.826 155.846 324.771 156.431C324.716 157.015 324.537 157.582 324.246 158.092C324.926 158.559 325.419 159.25 325.64 160.045C326.051 161.723 325.286 163.447 324.379 164.96C323.471 166.472 319.553 168.499 319.245 170.193C318.897 172.108 315.504 181.97 315.504 181.97L313.196 171.703C312.798 171.753 312.397 171.763 311.997 171.733Z" fill="#2C1E1C"/>
<path d="M348.1 291.47C348.316 290.036 343.52 276.208 337.833 274.239C332.146 272.269 278.001 266.633 278.001 266.633C278.001 266.633 275.199 271.332 276.158 274.976C276.158 274.976 316.144 288.485 321.431 290.122C326.718 291.759 347.886 292.897 348.1 291.47Z" fill="#F0B297"/>
<path d="M280.314 267.349C280.314 267.349 269.41 262.962 268.696 262.6V278.461L278.736 275.071L280.314 267.349Z" fill="#F0B297"/>
<path d="M286.555 264.496L283.091 280.539C283.091 280.539 319.24 291.727 334.08 294.834C348.921 297.941 355.186 292.364 353.927 287.293C352.668 282.222 348.375 274.714 339.179 272.463C329.982 270.213 286.555 264.496 286.555 264.496Z" fill="#393734"/>
<path d="M252 292.046C252.054 290.598 256.701 274.236 262.661 273.358C268.621 272.48 329.393 281.463 329.393 281.463C329.393 281.463 326.691 289.814 324.462 290.716C324.462 290.716 294 291.87 283.164 293.202C277.671 293.861 251.946 293.494 252 292.046Z" fill="#F0B297"/>
<path d="M319.834 289.698C323.128 291.492 326.894 291.948 330.449 292.94C331.9 293.351 333.632 293.686 334.653 292.67C335.229 292.105 335.418 291.246 335.583 290.433C336.123 287.817 333.845 284.07 334.38 280.652C334.753 278.253 334.886 273.152 333.656 273.296C330.414 273.671 325.122 278.899 321.715 280.612C321.222 280.861 320.811 281.245 320.529 281.72C319.405 283.603 317.038 288.177 319.834 289.698Z" fill="#F0B297"/>
<path d="M333.575 282.795C337.017 282.876 339.352 282.722 342.075 282.079C343.782 281.679 345.655 280.188 350.785 277.129C352.695 275.986 350.102 274.576 348.084 275.508C345.052 276.894 345.628 276.797 341.87 278.013C338.83 278.999 336.01 277.743 333.008 278.186C330.99 278.483 331.53 282.746 333.575 282.795Z" fill="#F0B297"/>
<path d="M333.818 286.669C338.66 286.331 340.33 286.847 343.418 286.048C345.76 285.44 346.908 284.47 350.672 283.041C353.252 282.06 351.666 279.218 349.091 280.196C345.239 281.66 343.885 282.217 343.885 282.217C339.941 283.319 335.837 282.36 331.835 282.971C329.142 283.384 331.092 286.858 333.818 286.669Z" fill="#F0B297"/>
<path d="M333.543 289.752C337.652 290.533 341.567 290.868 343.518 290.543C344.423 290.392 348.221 288.857 349.278 288.487C350.337 288.088 351.314 287.499 352.163 286.75C352.871 285.94 351.952 284.589 350.831 284.859C349.526 285.162 345.328 286.669 342.483 287.153C338.449 287.836 336.096 285.667 332.068 285.869C329.369 285.996 330.849 289.238 333.543 289.752Z" fill="#F0B297"/>
<path d="M332.135 293.345C335.766 293.926 337.055 293.691 338.646 293.737C339.384 293.756 342.064 293.283 343.731 293.229C344.628 293.199 347.122 292.734 347.122 292.734C347.778 292.118 347.243 290.976 346.311 291.016C345.231 291.067 343.231 291.221 340.908 291.167C337.617 291.086 334.556 289.546 331.325 289.036C329.166 288.687 329.955 292.996 332.135 293.345Z" fill="#F0B297"/>
<path d="M332.522 281.792C334.01 278.837 334.886 276.813 336.28 276.303C337.79 275.762 339.814 274.987 340.694 274.438C341.575 273.89 342.491 272.593 342.586 271.521C342.775 269.359 338.819 270.81 335.858 271.364C333.502 271.804 332.262 272.655 331.23 273.644C329.95 274.871 325.557 279.25 325.557 279.25L332.522 281.792Z" fill="#F0B297"/>
<path d="M316.997 293.513L320.477 276.935C320.477 276.935 266.608 271.04 262.007 270.472C257.406 269.905 249.795 275.922 248.817 281.992C247.839 288.063 248.622 292.986 254.872 294.331C261.121 295.677 316.997 293.513 316.997 293.513Z" fill="#393734"/>
<path d="M346.997 292.281C345.647 290.341 343.831 284.327 344.347 281.085C344.863 277.843 362.751 244.088 362.751 244.088C362.751 244.088 378.343 251.072 378.135 258.031C378.135 258.031 360.401 292.254 358.853 292.927C357.305 293.599 348.419 294.321 346.997 292.281Z" fill="#F8A588"/>
<path d="M380.04 220.229C376.781 221.264 371.994 222.755 370.929 224.822C369.865 226.889 356.027 253.73 349.91 265.836C352.882 273.858 360.909 279.648 368.984 282.493C376.368 274.055 380.377 259.082 385.138 248.935L390.968 220.296C390.968 220.296 383.476 219.135 380.04 220.229Z" fill="#F7931E"/>
<path d="M424.026 195.851H402.529V221.423H424.026V195.851Z" fill="#F0B297"/>
<path d="M424.029 195.851V203.716C418.682 208.039 411.455 210.965 402.531 211.581V195.851H424.029Z" fill="#B36650"/>
<path d="M425.191 192.166C426.164 192.398 427.188 192.267 428.071 191.796C428.934 191.332 429.719 190.737 430.399 190.032C432.253 188.249 433.974 186.001 433.841 183.483C433.798 182.64 433.515 181.767 432.855 181.211C432.069 180.549 430.875 180.47 429.905 180.84C428.955 181.248 428.154 181.939 427.611 182.818L425.191 192.166Z" fill="#F0B297"/>
<path d="M402.045 192.166C401.073 192.398 400.049 192.266 399.168 191.796C398.304 191.331 397.518 190.736 396.836 190.032C394.985 188.249 393.264 186.001 393.394 183.483C393.44 182.64 393.724 181.767 394.383 181.211C395.166 180.549 396.363 180.47 397.333 180.84C398.283 181.248 399.084 181.939 399.627 182.818L402.045 192.166Z" fill="#F0B297"/>
<path d="M428.978 193.398C429.711 185.517 431.764 180.924 433.031 176.377C433.936 172.968 434.855 167.14 430.889 162.001C426.971 156.665 417.134 153.626 408.129 156.185C399.06 158.74 394.026 164.041 395.126 170.079C395.666 173.692 396.207 178.693 396.804 182.421C397.306 185.52 396.363 188.635 397.509 191.65C399.643 196.845 407.894 205.969 414.389 205.969C419.706 205.939 428.471 196.824 428.978 193.398Z" fill="#F0B297"/>
<g style="mix-blend-mode:soft-light">
<path d="M415.297 187.138C415.245 187.289 415.18 187.436 415.102 187.576C415.04 187.721 414.938 187.845 414.808 187.935C414.673 188.005 414.473 187.957 414.316 187.73C414.232 187.6 414.179 187.452 414.162 187.298C414.144 187.115 414.165 186.931 414.224 186.757C414.288 186.583 414.388 186.424 414.519 186.292C414.629 186.185 414.763 186.105 414.911 186.06C415.181 185.985 415.356 186.076 415.416 186.217C415.46 186.37 415.46 186.533 415.416 186.687C415.388 186.84 415.349 186.991 415.297 187.138Z" fill="#F2F2F2"/>
</g>
<path d="M413.646 187.673L413.581 187.381C413.581 187.295 413.552 187.222 413.544 187.144C413.536 187.054 413.536 186.963 413.544 186.873C413.544 186.773 413.56 186.663 413.573 186.547C413.611 186.329 413.628 186.108 413.625 185.887C413.628 185.802 413.613 185.717 413.583 185.638C413.552 185.559 413.506 185.486 413.446 185.425C413.402 185.38 413.342 185.352 413.278 185.349C413.214 185.346 413.152 185.368 413.103 185.409C412.941 185.544 412.809 185.712 412.714 185.901C412.544 186.199 412.437 186.529 412.401 186.871C412.384 187.073 412.399 187.278 412.444 187.476C412.489 187.67 412.556 187.859 412.644 188.038C412.725 188.206 412.821 188.367 412.93 188.519C413.026 188.655 413.132 188.784 413.246 188.905C413.425 189.099 413.619 189.28 413.824 189.445C414.162 189.716 414.365 189.799 414.473 189.618C414.581 189.437 414.567 189.243 414.386 188.943C414.297 188.794 414.168 188.619 414.022 188.403C413.951 188.297 413.876 188.184 413.811 188.062C413.741 187.939 413.686 187.809 413.646 187.673Z" fill="#D1785E"/>
<path d="M420.571 176.52C421.538 176.374 422.525 176.424 423.472 176.669C424.418 176.909 426.463 179.5 425.634 179.176C424.816 178.853 423.979 178.582 423.126 178.366C422.28 178.148 421.42 177.986 420.552 177.879C419.663 177.758 419.606 176.674 420.571 176.52Z" fill="#2C120D"/>
<path d="M406.257 176.666C405.28 176.708 404.322 176.946 403.439 177.366C402.553 177.785 401.029 180.724 401.791 180.246C402.532 179.77 403.303 179.341 404.098 178.963C404.886 178.586 405.699 178.262 406.53 177.993C407.375 177.712 407.232 176.647 406.257 176.666Z" fill="#2C120D"/>
<path d="M407.416 185.05V182.956C407.412 182.47 407.216 182.006 406.87 181.664C406.525 181.323 406.059 181.132 405.573 181.132C405.088 181.137 404.625 181.334 404.284 181.679C403.943 182.024 403.752 182.49 403.752 182.975V185.071C403.752 185.541 404.725 184.28 405.579 184.304C406.549 184.334 407.421 185.587 407.416 185.05Z" fill="#2C120D"/>
<path d="M420.011 185.05V182.956C420.016 182.47 420.212 182.006 420.557 181.664C420.902 181.323 421.368 181.132 421.854 181.132C422.339 181.137 422.803 181.334 423.144 181.679C423.485 182.024 423.676 182.49 423.675 182.975V185.071C423.675 185.571 422.762 184.261 421.849 184.261C420.935 184.261 420.009 185.563 420.011 185.05Z" fill="#2C120D"/>
<path d="M410.374 191.758C411.11 192.804 412.177 193.571 413.403 193.934C414.629 194.298 415.942 194.236 417.129 193.76C417.227 193.704 417.3 193.611 417.33 193.502C417.36 193.392 417.346 193.275 417.291 193.176C417.234 193.08 417.141 193.008 417.033 192.978C416.925 192.947 416.809 192.959 416.71 193.012C415.725 193.385 414.644 193.423 413.635 193.121C412.625 192.818 411.744 192.192 411.125 191.339C410.817 190.891 410.066 191.304 410.38 191.758H410.374Z" fill="#C2502F"/>
<path d="M457.063 292.821C459.284 292.162 462.466 289.803 463.22 286.667C463.974 283.53 459.894 240.905 459.894 240.905C459.894 240.905 443.143 241.394 440.712 247.786C440.712 247.786 448.309 285.183 448.968 286.704C449.628 288.226 454.569 293.57 457.063 292.821Z" fill="#F0B297"/>
<path d="M453.891 222.733C455.936 224.457 459.44 227.977 459.589 229.801C459.737 231.624 463.447 256.656 464.255 267.23C459.708 272.145 450.452 272.442 443.762 272.094C440.944 263.786 437.637 244.096 437.637 244.096L446.572 220.796C446.572 220.796 451.732 220.915 453.891 222.733Z" fill="#F7931E"/>
<path d="M472.595 490.951L464.22 467.122H454.35L455.412 490.951C455.412 490.951 474.451 496.26 472.595 490.951Z" fill="#B3B3B3"/>
<path d="M450.533 501.277C450.533 501.277 451.381 489.02 455.625 487.564L457.109 483.716C457.109 483.716 464.322 482.052 469.412 483.716L471.957 487.807C471.957 487.807 476.623 490.719 477.047 493.145C477.472 495.571 477.896 501.277 477.896 501.277H450.533Z" fill="#393734"/>
<path d="M441.774 301.98C447.409 336.562 446.391 377.053 448.369 390.629C449.755 400.131 428.006 400.528 424.01 393.174C421.705 388.932 417.574 358.246 416.632 355.35C413.946 347.077 406.811 341.747 402.999 325.301V301.98H441.774Z" fill="#11527E"/>
<path d="M387.561 500.937C392.016 498.805 395.936 496.558 397.05 494.269L397.541 474.006C397.714 472.499 398.041 470.662 396.569 470.456L389.879 469.535C389.244 469.447 388.599 469.597 388.068 469.955C387.536 470.313 387.155 470.854 386.996 471.475C386.251 474.266 383.633 483.503 383.633 483.503L370.573 496.379C369.243 497.69 367.833 499.027 367.703 500.929C367.698 500.997 387.561 500.937 387.561 500.937Z" fill="#B3B3B3"/>
<path d="M397.412 479.366C396.99 479.302 398.492 490.19 393.54 491C393.222 491.05 392.9 491.077 392.578 491.081L392.186 486.488C392.186 486.488 385.135 483.246 379.853 483.646L378.632 486.153L363.616 494.418C362.373 495.642 360.498 497.492 360.322 500.048C360.331 500.486 360.482 500.909 360.752 501.253H398.703C398.703 501.253 397.833 479.431 397.412 479.366Z" fill="#393734"/>
<path d="M385.381 300.008C379.623 334.59 382.471 398.35 383.962 407.733C385.473 417.222 405.495 401.554 406.143 391.988C406.376 388.548 405.452 385.125 405.446 381.681C405.446 378.638 406.149 375.634 406.851 372.657C410.747 356.211 418.977 339.766 422.87 323.321V300.008H385.381Z" fill="#11527E"/>
<path d="M380.369 478.478C380.126 464.853 380.369 451.225 380.588 437.601C380.703 430.756 380.82 423.912 380.939 417.068C381.101 407.423 381.666 397.653 385.216 388.556C386.275 385.855 403.339 378.83 405.446 381.681C405.446 381.681 406.868 395.1 407.756 401.179C408.343 405.177 408.751 411.759 407.959 415.73C403.847 436.328 401.718 456.875 398.592 478.478H380.369Z" fill="#11527E"/>
<path d="M469.588 475.822C466.705 462.502 462.688 445.139 459.351 431.927C457.676 425.288 455.999 418.651 454.32 412.015C451.959 402.662 450.168 391.901 444.705 383.839C443.084 381.435 422.724 379.292 421.37 382.534C421.37 382.534 424.596 396.435 425.153 402.551C425.509 406.574 427.193 410.338 428.857 414.026C437.894 434.067 442.609 456.286 451.646 476.327L469.588 475.822Z" fill="#11527E"/>
<path d="M450.214 221.655L425.688 211.345L414.54 214.682H412.665L401.518 211.345L376.992 221.655C375.714 228.68 378.681 250.812 378.681 250.812C378.951 270.165 387.326 280.974 381.712 309.58C382.847 312.7 394.08 315.48 396.982 315.524C398.7 315.545 425.89 315.524 434.358 314.189C436.754 313.811 444.829 310.255 443.868 308.553C438.248 279.942 448.244 270.165 448.515 250.812C448.515 250.812 451.486 228.69 450.214 221.655Z" fill="#F7931E"/>
<path d="M382.136 247.449C379.553 247.346 376.941 247.138 374.374 246.833C373.922 246.775 373.506 246.556 373.203 246.215C372.9 245.875 372.729 245.437 372.723 244.982C372.453 234.715 372.802 222.463 373.345 213.999C373.38 213.435 373.619 212.904 374.016 212.504C374.414 212.103 374.943 211.86 375.506 211.821C378.608 211.653 381.739 211.632 384.816 211.753C387.893 211.875 391.006 212.145 394.064 212.564C394.608 212.646 395.1 212.934 395.437 213.369C395.774 213.803 395.93 214.351 395.874 214.898C395.153 223.357 393.683 235.58 391.873 245.749C391.795 246.209 391.563 246.629 391.215 246.939C390.867 247.25 390.423 247.433 389.958 247.459C387.348 247.551 384.719 247.551 382.136 247.449Z" fill="#E6E6E6"/>
<path d="M389.944 247.2C384.759 247.403 379.565 247.198 374.412 246.587C374.016 246.537 373.651 246.345 373.385 246.047C373.119 245.749 372.971 245.365 372.966 244.966C372.696 235.588 373.002 223.147 373.585 214.007C373.615 213.507 373.825 213.035 374.176 212.679C374.527 212.323 374.996 212.106 375.495 212.07C381.676 211.735 387.875 211.981 394.01 212.802C394.497 212.869 394.938 213.123 395.241 213.511C395.544 213.898 395.684 214.388 395.631 214.877C394.85 224.011 393.289 236.404 391.633 245.703C391.564 246.108 391.359 246.477 391.052 246.749C390.745 247.021 390.354 247.18 389.944 247.2Z" fill="#CCCCCC"/>
<path d="M382.444 241.38C377.527 237.298 374.798 231.811 373.045 225.994C372.861 232.268 372.775 238.59 372.966 244.966C372.97 245.365 373.119 245.749 373.385 246.047C373.651 246.345 374.016 246.537 374.412 246.587C379.565 247.198 384.758 247.403 389.944 247.2C390.352 247.178 390.74 247.018 391.045 246.746C391.35 246.474 391.554 246.106 391.622 245.703C391.716 245.163 391.805 244.647 391.892 244.117C388.615 244.312 385.378 243.599 382.444 241.38Z" fill="#B3B3B3"/>
<path d="M377.154 224.63C376.8 224.588 376.477 224.407 376.255 224.128C376.033 223.849 375.931 223.493 375.971 223.138L376.479 216.465C376.486 216.29 376.528 216.119 376.602 215.96C376.676 215.801 376.781 215.659 376.91 215.541C377.039 215.424 377.191 215.333 377.356 215.274C377.52 215.215 377.695 215.189 377.87 215.198C378.224 215.241 378.547 215.422 378.768 215.702C378.99 215.982 379.091 216.338 379.051 216.692L378.545 223.363C378.538 223.537 378.496 223.709 378.422 223.867C378.347 224.026 378.243 224.168 378.113 224.286C377.984 224.403 377.833 224.494 377.668 224.554C377.503 224.613 377.329 224.638 377.154 224.63Z" fill="#B3B3B3"/>
<path d="M378.67 217.397C378.665 217.528 378.633 217.656 378.578 217.774C378.523 217.893 378.445 217.999 378.349 218.087C378.252 218.175 378.139 218.243 378.016 218.287C377.893 218.331 377.763 218.35 377.632 218.343C377.369 218.31 377.129 218.174 376.964 217.966C376.8 217.758 376.723 217.494 376.751 217.23C376.756 217.099 376.787 216.971 376.842 216.853C376.897 216.735 376.975 216.628 377.071 216.54C377.167 216.452 377.28 216.384 377.403 216.34C377.526 216.296 377.656 216.277 377.786 216.284C378.05 216.317 378.291 216.452 378.456 216.66C378.621 216.868 378.698 217.133 378.67 217.397Z" fill="#999999"/>
<path d="M377.638 218.27C377.394 218.237 377.174 218.11 377.022 217.917C376.871 217.724 376.801 217.479 376.827 217.235C376.832 217.114 376.861 216.996 376.913 216.886C376.964 216.776 377.036 216.678 377.126 216.596C377.215 216.515 377.32 216.452 377.433 216.411C377.547 216.369 377.668 216.351 377.789 216.357C378.032 216.39 378.253 216.517 378.404 216.71C378.556 216.903 378.626 217.148 378.599 217.392C378.595 217.513 378.566 217.632 378.515 217.742C378.464 217.851 378.391 217.95 378.302 218.032C378.212 218.113 378.108 218.176 377.994 218.217C377.88 218.258 377.759 218.276 377.638 218.27Z" fill="#1A1A1A"/>
<path d="M378.47 219.999C378.465 220.13 378.434 220.258 378.379 220.376C378.323 220.495 378.245 220.601 378.149 220.689C378.052 220.777 377.939 220.845 377.816 220.889C377.693 220.933 377.563 220.952 377.432 220.945C377.169 220.911 376.93 220.776 376.765 220.568C376.601 220.36 376.524 220.095 376.552 219.832C376.556 219.701 376.587 219.573 376.642 219.454C376.697 219.336 376.775 219.229 376.872 219.141C376.969 219.053 377.082 218.985 377.205 218.941C377.328 218.898 377.459 218.879 377.589 218.886C377.852 218.919 378.092 219.054 378.257 219.263C378.422 219.471 378.498 219.735 378.47 219.999Z" fill="#999999"/>
<path d="M377.438 220.869C377.195 220.837 376.974 220.711 376.823 220.518C376.671 220.325 376.601 220.081 376.627 219.837C376.632 219.716 376.661 219.597 376.712 219.487C376.763 219.378 376.835 219.279 376.925 219.197C377.014 219.116 377.119 219.052 377.233 219.012C377.347 218.971 377.468 218.953 377.589 218.959C377.832 218.991 378.053 219.117 378.204 219.31C378.356 219.503 378.426 219.747 378.4 219.991C378.394 220.112 378.365 220.231 378.314 220.34C378.263 220.45 378.191 220.548 378.101 220.63C378.012 220.712 377.907 220.775 377.793 220.816C377.68 220.857 377.559 220.875 377.438 220.869Z" fill="#1A1A1A"/>
<path d="M378.27 222.598C378.265 222.729 378.234 222.857 378.179 222.975C378.123 223.094 378.045 223.2 377.949 223.288C377.852 223.376 377.739 223.444 377.616 223.488C377.493 223.532 377.363 223.551 377.232 223.544C376.969 223.51 376.729 223.375 376.565 223.167C376.4 222.959 376.323 222.694 376.352 222.431C376.357 222.3 376.388 222.172 376.443 222.054C376.498 221.935 376.576 221.829 376.673 221.741C376.769 221.653 376.882 221.585 377.005 221.541C377.128 221.497 377.259 221.478 377.389 221.485C377.653 221.518 377.892 221.653 378.057 221.861C378.222 222.07 378.298 222.334 378.27 222.598Z" fill="#999999"/>
<path d="M377.241 223.471C376.997 223.438 376.777 223.311 376.625 223.118C376.474 222.925 376.404 222.68 376.43 222.436C376.435 222.315 376.464 222.196 376.515 222.086C376.566 221.977 376.638 221.878 376.728 221.796C376.817 221.715 376.922 221.652 377.036 221.611C377.15 221.57 377.271 221.552 377.392 221.558C377.635 221.591 377.856 221.718 378.007 221.911C378.158 222.104 378.229 222.349 378.202 222.593C378.197 222.714 378.168 222.832 378.117 222.942C378.066 223.052 377.993 223.15 377.904 223.232C377.815 223.313 377.71 223.376 377.596 223.417C377.482 223.458 377.361 223.477 377.241 223.471Z" fill="#1A1A1A"/>
<path d="M364.934 243.034C363.405 248.924 371.302 252.612 374.45 250.777C376.517 249.572 375.649 245.42 377.178 239.53C377.819 237.058 374.95 230.868 374.725 230.001C374.725 230.001 366.463 237.141 364.934 243.034Z" fill="#F0B297"/>
<path d="M380.853 245.622C380.464 245.484 378.98 245.606 378.548 246.098C377.419 247.381 376.657 249.531 374.844 250.639C374.25 251.001 373.439 250.588 372.866 250.112C372.369 249.699 372.202 248.789 372.699 248.294C374.158 246.843 375.798 244.574 377.489 243.374C378.259 242.834 380.461 243.05 381.882 243.261C384.192 243.599 386.226 243.85 388.417 244.682C389.976 245.271 388.307 246.678 386.667 246.26C386.667 246.26 381.001 245.673 380.853 245.622Z" fill="#F0B297"/>
<path d="M371.005 233.654C372.223 231.611 376.422 227.839 378.413 226.359C380.404 224.878 387.515 222.447 389.571 221.607C391.627 220.766 392.068 223.811 389.36 224.981C386.653 226.151 380.115 229.352 380.115 229.352C380.115 229.352 376.292 234.756 375.576 236.107C374.86 237.458 369.786 235.688 371.005 233.654Z" fill="#F0B297"/>
<path d="M375.314 235.631L382.485 231.979C382.485 231.979 390.56 230.811 392.635 230.693C394.71 230.574 394.283 233.421 391.765 233.737C389.247 234.053 383.041 235.239 383.041 235.239C383.041 235.239 375.625 240.054 374.952 240.737C374.279 241.421 375.314 235.631 375.314 235.631Z" fill="#F0B297"/>
<path d="M373.969 241.362L380.666 237.093C380.666 237.093 387.761 236.217 389.836 236.096C391.911 235.974 391.487 238.825 388.966 239.141C386.445 239.457 381.18 240.251 381.18 240.251C381.18 240.251 374.639 245.241 373.966 245.925C373.293 246.608 373.969 241.362 373.969 241.362Z" fill="#F0B297"/>
<path d="M343.058 282.89C341.845 289.122 343.426 293.008 347.892 294.896C352.722 296.939 358.523 296.177 360.463 289.66C362.403 283.144 373.539 244.86 373.539 244.86C373.539 244.86 368.776 239.822 366.347 241.702C365.01 242.737 344.104 277.529 343.058 282.89Z" fill="#F0B297"/>
<path d="M424.264 207.139L413.603 214.682L417.753 215.53L421.079 232.746L430.264 218.31C430.804 217.463 431.044 216.46 430.946 215.46C430.848 214.46 430.418 213.523 429.724 212.796L424.264 207.139Z" fill="#F9F1E8"/>
<path d="M402.266 207.139L413.614 214.682L409.464 215.53L406.138 232.746L396.882 218.175C396.361 217.357 396.12 216.391 396.195 215.423C396.27 214.456 396.657 213.539 397.298 212.81L402.266 207.139Z" fill="#F9F1E8"/>
<path d="M434.195 172.806C434.617 170.56 434.798 168.291 434.428 166.051C433.85 162.561 431.653 159.127 428.252 157.992C430.11 156.765 430.283 153.939 429.13 152.064C427.976 150.189 425.888 149.047 423.805 148.244C416.78 145.529 408.426 145.651 402.007 149.557C395.588 153.464 392.027 162.655 393.502 168.564C394.977 174.472 395.626 177.55 399.716 177.317C403.328 177.115 406.524 174.989 409.275 172.673C412.025 170.358 416.151 166.189 419.406 164.63C421.973 163.401 425.15 162.988 427.728 164.003C430.729 170.509 429.962 177.966 430.278 185.658C431.196 182.859 432.566 179.444 433.342 176.528C433.655 175.297 433.966 174.056 434.195 172.806Z" fill="#2C120D"/>
<path d="M396.963 185.352L398.741 165.867C398.741 165.867 395.942 163.379 394.559 164.533C393.175 165.686 396.963 185.352 396.963 185.352Z" fill="#2C120D"/>
<path d="M454.618 278.683C453.372 278.413 447.237 286.153 444.711 290.3C442.184 294.448 431.861 326.433 431.861 326.433C431.861 326.433 436.062 330.972 439.594 330.486C439.594 330.486 462.669 292.554 463.215 288.15C464.309 279.326 455.863 278.942 454.618 278.683Z" fill="#F0B297"/>
<path d="M434.195 320.876C434.195 320.876 427.914 321.195 427.749 324.231C427.584 327.268 436.432 335.951 439.71 334.311C442.987 332.671 442.184 327.438 441.031 325.304C439.877 323.17 436.732 320.5 434.195 320.876Z" fill="#F0B297"/>
<path d="M218.023 198.315C222.737 212.656 222.662 228.739 216.048 242.307C213.887 246.762 210.458 251.344 205.533 251.895C202.742 252.206 200.005 251.139 197.403 250.091C188.258 246.411 179.01 242.677 171.04 236.879C167.63 234.399 164.191 230.879 164.586 226.683C164.823 224.138 166.477 221.931 168.384 220.234C170.292 218.537 172.515 217.211 174.425 215.514C183.187 207.738 183.16 192.714 192.581 185.755C195.153 183.855 216.494 193.668 218.023 198.315Z" fill="#F57780"/>
<path d="M135.242 280.45C134.383 278.829 133.543 273.966 134.254 271.51C134.964 269.054 152.061 244.563 152.061 244.563C152.061 244.563 163.483 251.469 162.673 256.848C162.673 256.848 144.798 280.707 143.634 281.328C141.029 282.717 136.147 282.176 135.242 280.45Z" fill="#F8A588"/>
<path d="M167.506 227.785C164.88 228.277 160.101 229.62 159.077 231.13C158.053 232.64 146.125 249.772 140.224 258.574C141.767 265.08 147.973 267.517 153.965 270.497C160.498 264.653 164.302 257.896 168.965 250.477L175.606 230.549C175.606 230.549 170.276 227.264 167.506 227.785Z" fill="#F7931E"/>
<path d="M140.327 268.681C139.349 268.292 134.254 271.51 130.695 275.765C128.118 278.848 117.187 305.66 117.187 305.66C117.187 305.66 117.187 309.982 118.894 311.622C118.894 311.622 141.813 286.934 144.434 280.944C145.906 277.586 141.302 269.068 140.327 268.681Z" fill="#F8A588"/>
<path d="M111.556 306.535C111.556 306.535 106.726 307.275 104.64 306.991C102.554 306.708 103.954 309.712 106.026 310.131C108.098 310.55 108.676 311.187 111.021 312.727C113.367 314.267 117.168 315.85 118.316 315.429C119.464 315.007 121.275 309.077 122.082 307.324C122.89 305.57 120.912 302.35 119.11 303.001C117.308 303.652 113.204 306.33 111.556 306.535Z" fill="#F8A588"/>
<path d="M129.107 269.748L126.616 266.614L89.2402 286.337L95.3029 287.288C95.3029 287.288 108.306 288.72 129.107 269.748Z" fill="#856861"/>
<path d="M128.299 327.687L121.869 326.111L89.2402 286.356L95.9297 287.234L128.299 327.687Z" fill="#856861"/>
<path d="M107.717 303.571L95.7135 288.568L91.5259 288.02L104.775 304.163L107.717 303.571Z" fill="white"/>
<path d="M95.5271 287.182C95.5271 287.182 113.504 274.663 129.998 267.406L154.635 313.495L128.299 327.687L95.5271 287.182Z" fill="#B28B81"/>
<path d="M111.594 308.323C111.594 308.323 110.568 309.245 107.339 311.89C104.111 314.535 106.769 316.412 108.636 314.889C110.503 313.365 113.04 310.25 114.355 309.088C115.671 307.926 113.364 306.819 111.594 308.323Z" fill="#F8A588"/>
<path d="M107.25 315.434C107.662 315.408 108.059 315.27 108.398 315.034C108.564 314.914 108.722 314.784 108.871 314.643C109.028 314.508 109.173 314.373 109.325 314.224C109.922 313.654 110.489 313.054 111.048 312.449L112.721 310.625C112.991 310.323 113.283 310.02 113.575 309.723C113.715 309.574 113.864 309.428 114.012 309.283C114.161 309.137 114.328 309.012 114.45 308.861C114.512 308.789 114.564 308.709 114.604 308.623C114.639 308.538 114.655 308.446 114.653 308.353C114.642 308.265 114.613 308.18 114.566 308.104C114.519 308.029 114.457 307.964 114.382 307.915C114.037 307.708 113.631 307.625 113.231 307.68C112.832 307.72 112.446 307.847 112.099 308.051C111.926 308.154 111.762 308.271 111.608 308.402L111.135 308.804C109.874 309.865 108.591 310.904 107.285 311.922L109.176 310.301C109.803 309.761 110.433 309.22 111.051 308.68L111.516 308.272C111.674 308.132 111.845 308.007 112.027 307.899C112.392 307.678 112.801 307.541 113.226 307.499C113.66 307.443 114.1 307.538 114.472 307.77C114.57 307.831 114.654 307.914 114.716 308.013C114.779 308.111 114.819 308.221 114.834 308.337C114.839 308.455 114.818 308.573 114.774 308.683C114.727 308.781 114.666 308.872 114.593 308.953C114.445 309.12 114.285 309.247 114.139 309.388C113.993 309.528 113.845 309.674 113.702 309.82C113.412 310.115 113.129 310.415 112.848 310.714C112.283 311.317 111.727 311.928 111.154 312.522C110.581 313.116 110 313.705 109.39 314.264C109.233 314.4 109.082 314.535 108.92 314.67C108.764 314.807 108.598 314.933 108.425 315.048C108.079 315.287 107.671 315.421 107.25 315.434Z" fill="#B36650"/>
<path d="M112.718 310.228C112.718 310.228 111.87 311.309 109.16 314.491C106.45 317.674 109.43 319.114 111.005 317.285C112.58 315.456 114.517 311.919 115.598 310.531C116.679 309.142 114.193 308.431 112.718 310.228Z" fill="#F8A588"/>
<path d="M108.612 317.866C108.807 317.975 109.023 318.042 109.246 318.063C109.468 318.085 109.693 318.06 109.906 317.99C110.331 317.851 110.707 317.591 110.986 317.242C111.55 316.543 112.074 315.813 112.556 315.056C113.042 314.303 113.524 313.545 114.001 312.781C114.485 312.022 114.952 311.252 115.504 310.528C115.64 310.375 115.734 310.189 115.774 309.988C115.785 309.896 115.773 309.803 115.739 309.718C115.695 309.629 115.631 309.552 115.552 309.493C115.381 309.373 115.18 309.3 114.971 309.283C114.756 309.262 114.539 309.276 114.328 309.323C113.9 309.42 113.502 309.62 113.169 309.907C113.001 310.048 112.849 310.208 112.715 310.382L112.286 310.904C111.708 311.593 111.125 312.279 110.538 312.96L109.649 313.975L109.206 314.483C109.06 314.654 108.92 314.829 108.776 315.002C108.911 314.824 109.047 314.643 109.184 314.462L109.614 313.943L110.47 312.9C111.043 312.207 111.611 311.511 112.175 310.812L112.594 310.271C112.734 310.089 112.892 309.921 113.067 309.772C113.418 309.466 113.839 309.252 114.293 309.147C114.522 309.095 114.757 309.078 114.99 309.099C115.231 309.118 115.463 309.202 115.66 309.342C115.762 309.419 115.844 309.519 115.898 309.634C115.951 309.752 115.969 309.882 115.952 310.009C115.91 310.248 115.803 310.471 115.641 310.652C115.101 311.357 114.623 312.125 114.137 312.881C113.65 313.638 113.175 314.4 112.667 315.145C112.167 315.895 111.626 316.617 111.046 317.307C110.747 317.655 110.354 317.91 109.914 318.042C109.697 318.106 109.468 318.124 109.244 318.094C109.019 318.064 108.804 317.986 108.612 317.866Z" fill="#B36650"/>
<path d="M115.285 311.509C115.285 311.509 114.501 312.589 111.986 315.783C109.471 318.976 112.388 320.203 113.842 318.366C115.296 316.529 117.06 313.035 118.068 311.657C119.075 310.279 116.652 309.707 115.285 311.509Z" fill="#F8A588"/>
<path d="M112.64 319.171C113.026 319.061 113.375 318.847 113.648 318.552C113.78 318.403 113.903 318.246 114.018 318.082C114.137 317.92 114.245 317.752 114.361 317.588C114.807 316.923 115.22 316.237 115.625 315.542L116.836 313.459C117.041 313.114 117.244 312.765 117.457 312.425C117.562 312.252 117.673 312.084 117.784 311.914C117.895 311.744 118.024 311.582 118.111 311.42C118.155 311.339 118.188 311.253 118.208 311.163C118.228 311.074 118.228 310.982 118.208 310.893C118.177 310.81 118.129 310.736 118.067 310.674C118.004 310.613 117.929 310.565 117.846 310.536C117.482 310.409 117.086 310.409 116.722 310.536C116.349 310.656 116.008 310.857 115.722 311.125C115.578 311.258 115.446 311.403 115.328 311.56L114.963 312.041C113.982 313.316 112.979 314.572 111.956 315.807L113.407 313.886C113.893 313.247 114.376 312.605 114.855 311.96L115.209 311.474C115.329 311.306 115.466 311.151 115.617 311.012C115.919 310.727 116.28 310.512 116.673 310.382C117.074 310.24 117.511 310.24 117.911 310.382C118.077 310.433 118.219 310.545 118.307 310.695C118.396 310.845 118.425 311.022 118.389 311.193C118.367 311.3 118.329 311.403 118.276 311.498C118.17 311.69 118.046 311.841 117.935 312.006C117.824 312.171 117.714 312.338 117.608 312.508C117.395 312.846 117.19 313.192 116.984 313.535C116.574 314.227 116.174 314.924 115.752 315.607C115.331 316.291 114.904 316.974 114.439 317.631C114.318 317.793 114.204 317.958 114.077 318.114C113.957 318.277 113.827 318.432 113.688 318.579C113.403 318.873 113.039 319.078 112.64 319.171Z" fill="#B36650"/>
<path d="M117.184 313.413C117.184 313.413 116.501 314.416 114.296 317.344C112.091 320.273 114.793 321.381 116.068 319.692C117.343 318.004 118.851 314.797 119.732 313.53C120.613 312.263 118.378 311.757 117.184 313.413Z" fill="#F8A588"/>
<path d="M114.001 320.333C114.178 320.419 114.371 320.467 114.567 320.473C114.764 320.48 114.96 320.445 115.142 320.37C115.506 320.225 115.82 319.978 116.047 319.657C116.5 319.013 116.919 318.345 117.3 317.655C117.688 316.965 118.068 316.274 118.443 315.58C118.827 314.889 119.197 314.189 119.637 313.524C119.753 313.381 119.827 313.208 119.851 313.024C119.856 312.94 119.84 312.855 119.802 312.779C119.76 312.704 119.701 312.64 119.629 312.592C119.472 312.496 119.292 312.444 119.108 312.441C118.918 312.433 118.728 312.457 118.546 312.511C118.173 312.617 117.833 312.814 117.554 313.084C117.415 313.217 117.29 313.365 117.181 313.524L116.833 314.005C116.365 314.643 115.89 315.275 115.414 315.896L114.69 316.837L114.328 317.304C114.209 317.463 114.096 317.625 113.98 317.785C114.088 317.62 114.196 317.453 114.307 317.29L114.655 316.812L115.35 315.85C115.814 315.21 116.276 314.572 116.733 313.927L117.071 313.44C117.182 313.272 117.312 313.116 117.457 312.976C117.748 312.689 118.105 312.478 118.497 312.36C118.695 312.304 118.9 312.277 119.105 312.281C119.318 312.285 119.526 312.346 119.707 312.457C119.801 312.518 119.878 312.602 119.932 312.7C119.983 312.801 120.007 312.914 119.999 313.027C119.975 313.239 119.893 313.44 119.762 313.608C119.324 314.256 118.951 314.959 118.565 315.642C118.178 316.326 117.803 317.028 117.4 317.709C117.004 318.396 116.571 319.06 116.101 319.698C115.857 320.019 115.526 320.264 115.147 320.403C114.962 320.473 114.764 320.503 114.567 320.491C114.369 320.479 114.177 320.425 114.001 320.333Z" fill="#B36650"/>
<path d="M160.563 250.828C163.13 249.172 171.64 229.171 171.64 229.171L191.411 232.313L214.287 239.103C214.287 239.103 208.967 260.176 210.504 262.81C215.997 272.253 205.463 279.369 201.61 283.073C194.713 294.79 192.948 306.735 190.071 318.409C183.786 317.994 177.539 317.128 171.378 315.818C165.293 314.191 159.334 312.128 153.547 309.645C156.278 297.938 160.122 286.493 159.293 272.92C157.54 267.873 151.382 256.75 160.563 250.828Z" fill="#F7931E"/>
<path d="M194.95 243.223L185.192 240.883C183.731 240.531 182.47 239.614 181.685 238.333C180.9 237.052 180.655 235.512 181.004 234.051L185.597 214.844L206.376 219.831L201.783 239.035C201.431 240.496 200.513 241.757 199.232 242.542C197.952 243.327 196.412 243.572 194.95 243.223Z" fill="#F8A588"/>
<path d="M185.611 214.844L183.787 222.447C187.953 227.866 194.259 232.367 202.742 235.031L206.389 219.831L185.611 214.844Z" fill="#B36650"/>
<path d="M256.152 260.671C255.812 258.858 253.469 254.538 251.384 253.044C249.298 251.55 220.703 242.947 220.703 242.947C220.703 242.947 216.016 255.451 220.001 259.158C220.001 259.158 246.477 269.154 249.99 267.611C254.21 265.752 256.512 262.578 256.152 260.671Z" fill="#F8A588"/>
<path d="M205.257 240.273C206.649 237.992 210.48 237.755 212.233 238.263C214.149 238.803 226.822 242.169 237.878 246.908C239.715 253.338 236.03 261.74 232.258 267.268C224.153 265.466 212.32 263.143 202.988 261.778C202.988 261.789 203.85 242.569 205.257 240.273Z" fill="#F7931E"/>
<path d="M188.766 215.579C187.819 215.418 186.962 214.916 186.359 214.169C185.769 213.436 185.298 212.615 184.962 211.737C183.995 209.465 183.317 206.828 184.381 204.65C184.543 204.274 184.78 203.935 185.077 203.654C185.374 203.372 185.726 203.154 186.11 203.013C187.053 202.721 188.139 203.1 188.858 203.794C189.545 204.511 189.994 205.422 190.144 206.404L188.766 215.579Z" fill="#F8A588"/>
<path d="M209.245 224.289C210.019 224.859 210.973 225.128 211.931 225.046C212.869 224.958 213.788 224.728 214.657 224.362C216.964 223.481 219.333 222.141 220.163 219.864C220.321 219.486 220.401 219.08 220.398 218.67C220.394 218.261 220.308 217.856 220.144 217.481C219.701 216.6 218.671 216.081 217.674 216.044C216.681 216.047 215.714 216.357 214.902 216.93L209.245 224.289Z" fill="#F8A588"/>
<path d="M185.559 213.823C187.75 206.869 187.591 202.205 188.107 197.866C188.534 194.624 189.822 189.351 195.183 186.487C200.586 183.439 210.366 184.569 217.412 190.118C224.512 195.697 228.171 204.197 225.023 208.9C223.229 211.753 219.849 213.682 217.972 216.614C216.41 219.045 216.124 222.041 214.022 224.178C210.261 227.777 199.678 232.4 193.932 229.955C189.236 227.95 184.768 216.927 185.559 213.823Z" fill="#F8A588"/>
<path d="M199.721 205.415C198.384 204.481 196.776 204.016 195.147 204.091C194.343 204.122 193.554 204.329 192.838 204.696C193.635 204.804 194.372 204.891 195.099 205.023C195.814 205.148 196.522 205.312 197.22 205.512C197.917 205.714 198.603 205.953 199.276 206.226C199.957 206.501 200.378 205.882 199.721 205.415Z" fill="#1A1A1A"/>
<path d="M209.413 209.392C210.204 209.564 210.962 209.866 211.655 210.286C212.35 210.702 212.97 211.232 213.489 211.853C214.014 212.464 214.398 213.182 214.613 213.958C213.992 213.447 213.427 212.961 212.838 212.521C212.26 212.082 211.66 211.673 211.039 211.297C210.418 210.921 209.776 210.579 209.118 210.273C208.453 209.957 208.624 209.23 209.413 209.392Z" fill="#1A1A1A"/>
<g style="mix-blend-mode:soft-light">
<path d="M199.416 214.855C199.403 215.008 199.403 215.161 199.416 215.314C199.417 215.466 199.461 215.615 199.543 215.744C199.635 215.857 199.83 215.887 200.054 215.744C200.178 215.661 200.281 215.55 200.354 215.419C200.441 215.262 200.492 215.088 200.505 214.909C200.515 214.731 200.486 214.553 200.419 214.387C200.359 214.249 200.266 214.128 200.148 214.033C199.946 213.869 199.746 213.879 199.641 213.982C199.543 214.1 199.481 214.244 199.462 214.395C199.434 214.547 199.419 214.701 199.416 214.855Z" fill="#F2F2F2"/>
</g>
<path d="M200.667 215.949C200.732 215.862 200.786 215.784 200.835 215.714C200.883 215.644 200.921 215.584 200.959 215.519C201.002 215.445 201.039 215.367 201.07 215.287C201.105 215.198 201.137 215.093 201.167 214.987C201.216 214.78 201.284 214.577 201.37 214.382C201.4 214.306 201.445 214.237 201.502 214.179C201.559 214.12 201.627 214.074 201.702 214.042C201.758 214.018 201.822 214.017 201.879 214.039C201.936 214.06 201.983 214.103 202.01 214.158C202.103 214.338 202.158 214.536 202.172 214.739C202.209 215.066 202.179 215.398 202.083 215.714C202.019 215.899 201.928 216.074 201.813 216.233C201.699 216.388 201.568 216.53 201.424 216.657C201.288 216.774 201.142 216.88 200.989 216.973C200.852 217.056 200.71 217.131 200.564 217.197C200.334 217.3 200.095 217.385 199.851 217.451C199.457 217.554 199.241 217.562 199.211 217.362C199.181 217.162 199.27 216.995 199.543 216.797C199.678 216.697 199.859 216.592 200.067 216.462C200.176 216.393 200.281 216.319 200.381 216.238C200.488 216.154 200.584 216.057 200.667 215.949Z" fill="#D1785E"/>
<path d="M197.706 210.618C198.122 209.64 197.363 207.579 196.263 207.106C195.821 206.922 195.323 206.921 194.88 207.103C194.436 207.284 194.083 207.634 193.897 208.076L193.564 208.873C193.373 209.332 194.753 208.046 195.783 208.487C196.812 208.927 197.498 211.11 197.706 210.618Z" fill="#1A1A1A"/>
<path d="M196.628 207.333C195.906 206.874 195.039 206.702 194.196 206.852C192.846 207.122 192.292 206.425 192.292 206.425C192.292 206.425 192.8 207.62 194.053 207.568C195.307 207.517 195.72 207.949 195.72 207.949L196.628 207.333Z" fill="#1A1A1A"/>
<path d="M206.949 214.55C207.365 213.572 209.38 212.688 210.461 213.155C210.9 213.347 211.246 213.705 211.423 214.15C211.6 214.595 211.594 215.092 211.406 215.533L211.061 216.327C210.866 216.778 210.399 214.993 209.372 214.566C208.345 214.139 206.738 215.044 206.949 214.55Z" fill="#1A1A1A"/>
<path d="M210.061 213.047C210.901 213.246 211.634 213.754 212.114 214.471C212.846 215.636 213.735 215.552 213.735 215.552C213.735 215.552 212.522 216.014 211.69 215.076C210.858 214.139 210.261 214.139 210.261 214.139L210.061 213.047Z" fill="#1A1A1A"/>
<path d="M202.445 221.531C200.826 221.502 199.243 221.045 197.857 220.207C196.471 219.369 195.331 218.18 194.553 216.76C194.315 216.319 195.039 216.033 195.277 216.468C196.005 217.759 197.06 218.836 198.336 219.589C199.613 220.342 201.065 220.746 202.548 220.758C202.65 220.772 202.742 220.826 202.805 220.908C202.868 220.99 202.896 221.093 202.883 221.196C202.866 221.297 202.812 221.388 202.731 221.451C202.649 221.513 202.547 221.542 202.445 221.531Z" fill="#A33939"/>
<path d="M192.043 194.295C192.142 194.045 192.285 193.814 192.465 193.614C193.167 193.247 190.49 200.503 190.49 200.503C198.325 202.951 217.221 212.272 217.221 212.272L221.03 205.658C221.681 207.733 214.481 222.62 214.481 222.62C218.625 218.205 225.05 210.067 227.701 204.834C229.197 201.862 227.636 198.769 225.834 197.564C226.782 192.058 223.343 188.481 218.89 184.836C213.7 180.589 206.192 179.587 199.892 181.745C193.591 183.904 189.179 187.419 187.826 193.838C186.41 200.555 183.79 205.339 184.935 211.856C184.924 211.856 190.374 197.613 192.043 194.295Z" fill="#F57780"/>
<path d="M219.92 201.822C221.035 211.456 219.506 221.234 216.888 230.571C215.354 236.039 213.26 241.683 208.878 245.295C206.006 247.659 201.886 248.742 198.341 247.997C199.759 249.306 201.434 250.306 203.258 250.936C205.082 251.565 207.018 251.809 208.941 251.654C210.865 251.498 212.735 250.945 214.435 250.03C216.134 249.115 217.625 247.858 218.815 246.338C221.589 242.799 222.492 238.19 223.31 233.77C224.571 226.925 225.839 220.081 227.114 213.236C227.89 209.052 229.208 204.367 227.825 200.112C227.155 198.028 219.92 201.822 219.92 201.822Z" fill="#F57780"/>
<path d="M201.459 444.906C201.297 457.874 201.145 470.864 201.216 473.933L194.083 474.249C192.751 465.444 191.022 454.956 189.269 444.906H201.459Z" fill="#F0B59C"/>
<path d="M191.757 474.517C191.805 470.607 194.291 469.794 194.291 469.794L202.475 473.004C202.475 473.004 215.389 500.667 213.357 501.277L199.359 501.264C195.164 501.356 196.252 494.688 194.629 491.154L194.704 501.356H192.878L192.027 487.147C191.908 486.74 191.818 486.325 191.757 485.904C191.552 484.229 191.697 479.739 191.757 474.517Z" fill="#B13117"/>
<path d="M201.143 469.019C201.856 471.021 204.925 478.745 205.703 481.217C206.314 483.108 207.694 487.393 208.594 490.184C208.691 490.488 208.716 490.81 208.668 491.126C208.62 491.441 208.499 491.741 208.316 492.003C208.133 492.264 207.893 492.48 207.613 492.633C207.333 492.786 207.022 492.873 206.703 492.886L198.057 493.069L193.51 471.475C193.432 470.837 193.383 467.552 194.759 466.733C196.134 465.915 200.427 467.017 201.143 469.019Z" fill="#F0B59C"/>
<path d="M124.698 428.404L132.046 434.618C125.197 441.891 118.422 449.188 116.217 451.477L110.543 447.092C116.141 441.626 120.732 435.091 124.698 428.404Z" fill="#F0B59C"/>
<path d="M111.527 444.244C111.527 444.244 95.3164 455.688 92.7444 457.653C90.1724 459.617 88.1353 463.772 88.2028 465.385L98.8449 474.395C100.987 475.346 117.122 450.488 117.122 450.488L111.527 444.244Z" fill="#B13117"/>
<path d="M119.967 447.267C118.573 448.915 113.407 455.475 111.624 457.439C109.484 459.798 103.249 466.714 103.249 466.714C103.249 466.714 96.6511 461.878 96.516 460.487C96.1269 456.531 100.839 452.922 100.839 452.922L111.748 443.785C112.308 443.355 115.455 441.38 117.298 441.783C119.14 442.185 121.364 445.619 119.967 447.267Z" fill="#F0B59C"/>
<path d="M193.794 304.117C193.794 304.117 204.814 334.946 204.72 340.547C204.625 346.148 204.72 386.408 204.72 386.408C204.72 386.408 188.734 399.685 182.509 390.418C179.153 385.428 179.113 343.267 179.113 343.267L169.233 338.802L171.156 303.304L193.794 304.117Z" fill="#11527E"/>
<path d="M205.09 464.92C205.09 464.92 190.039 469.746 188.899 464.92C187.758 460.095 185.386 414.668 184.035 404.731C182.685 394.795 180.315 382.069 181.12 377.517C181.925 372.965 203.666 373.986 204.19 380.197C204.714 386.408 206.695 397.218 206.622 403.256C206.549 409.295 205.09 464.92 205.09 464.92Z" fill="#11527E"/>
<path d="M155.87 299.554C155.87 299.554 143.023 326.257 143.712 331.858C144.401 337.459 150.423 386.468 150.423 386.468C150.423 386.468 167.801 399.744 173.056 390.477C175.887 385.484 171.164 336.983 171.164 336.983L178.805 337.043V303.868L155.87 299.554Z" fill="#11527E"/>
<path d="M110.454 440.51C110.454 440.51 119.435 453.981 122.809 450.974C126.184 447.967 152.258 416.932 158.472 410.092C164.686 403.251 172.912 394.843 173.639 387.108C174.258 380.535 158.766 370.898 155.14 375.391C151.515 379.884 144.393 386.976 141.329 391.704C138.266 396.432 110.454 440.51 110.454 440.51Z" fill="#11527E"/>
<path d="M240.107 264.021C240.277 265.101 248.047 269.292 252.502 270.064C256.957 270.837 289.389 269.508 289.389 269.508C289.389 269.508 296.438 266.92 294.703 263.967C292.969 261.014 254.485 255.121 248.528 255.486C244.403 255.737 239.942 262.932 240.107 264.021Z" fill="#F8A588"/>
<path d="M231.013 399.42H317.622V392.352H231.013V399.42Z" fill="#CCCCCC"/>
<path d="M295.543 397.999H307.531L320.491 501.099H318.222L295.543 397.999Z" fill="#8F93AE"/>
<path d="M251.403 397.999H239.415L226.458 501.099H228.725L251.403 397.999Z" fill="#8F93AE"/>
<path d="M228.862 396.24H318.086C319.705 396.24 321.018 394.928 321.018 393.309V392.061C321.018 390.442 319.705 389.129 318.086 389.129H228.862C227.243 389.129 225.931 390.442 225.931 392.061V393.309C225.931 394.928 227.243 396.24 228.862 396.24Z" fill="#333333"/>
<path d="M246.145 388.551H300.806C307.591 388.551 313.091 383.051 313.091 376.266V300.54C313.091 293.755 307.591 288.255 300.806 288.255H246.145C239.36 288.255 233.86 293.755 233.86 300.54V376.266C233.86 383.051 239.36 388.551 246.145 388.551Z" fill="#4D4D4D"/>
<path d="M310.268 375.985V300.824C310.268 295.622 306.051 291.405 300.849 291.405H246.099C240.898 291.405 236.681 295.622 236.681 300.824V375.985C236.681 381.187 240.898 385.404 246.099 385.404H300.849C306.051 385.404 310.268 381.187 310.268 375.985Z" fill="#999999"/>
<path d="M226.787 391.504H320.161C320.631 391.504 321.018 391.042 321.018 390.477V389.126C321.018 388.562 315.344 386.752 314.917 386.752H232.031C231.613 386.752 225.931 388.562 225.931 389.126V390.477C225.931 391.042 226.317 391.504 226.787 391.504Z" fill="#999999"/>
<path d="M226.787 390.156H320.161C320.631 390.156 321.018 389.694 321.018 389.126C321.018 388.562 315.344 385.403 314.917 385.403H232.031C231.613 385.403 225.931 388.562 225.931 389.126C225.931 389.694 226.317 390.156 226.787 390.156Z" fill="#4D4D4D"/>
<path d="M256.309 226.418C249.609 243.264 246.234 262.867 241.45 282.125C254.757 288.085 268.9 291.966 283.386 293.632C287.438 276.611 291.318 257.299 293.747 240.003C293.747 240.003 290.818 227.607 279.614 225.489C268.41 223.371 256.309 226.418 256.309 226.418Z" fill="#3F1B1B"/>
<path d="M323.949 335.903C325.187 334.206 325.64 330.075 325.251 327.179C324.862 324.282 309.733 291.432 309.733 291.432C309.733 291.432 295.703 297.306 295.735 303.506C295.735 303.506 311.051 333.944 312.135 334.989C318.708 341.344 322.639 337.696 323.949 335.903Z" fill="#F0B297"/>
<path d="M296.251 271.375C299.642 271.977 302.792 274.077 303.632 275.822C304.473 277.567 318.059 302.299 322.89 312.463C317.341 318.49 310.832 321.548 304.067 323.748C304.067 323.748 297.994 305.13 294.249 296.606L287.16 270.713C287.16 270.713 293.301 270.851 296.251 271.375Z" fill="#F7931E"/>
<path d="M245.932 382.278C245.297 373.378 244.23 366.794 252.926 366.497C258.805 366.294 262.382 366.921 263.733 372.376C263.733 372.376 264.544 400.744 265.435 416.349C266.227 430.446 268.507 454.405 270.609 473.355L263.19 475.581C261.791 469.713 250.354 428.542 247.52 418.013C240.877 393.157 246.526 390.604 245.932 382.278Z" fill="#F8A588"/>
<path d="M273.762 474.849C273.432 470.829 270.817 469.986 270.817 469.986L262.636 473.296C262.636 473.296 250.749 501.312 252.867 501.934L267.864 502.334C272.187 502.428 270.588 495.579 272.003 491.946L272.657 502.428H274.548L274.402 487.839C274.498 487.418 274.562 486.991 274.594 486.561C274.67 484.829 274.2 480.217 273.762 474.849Z" fill="#92372B"/>
<path d="M263.717 469.197C263.125 471.256 260.537 479.207 259.902 481.733C259.389 483.786 258.195 488.514 257.471 491.354C257.399 491.63 257.39 491.918 257.445 492.198C257.5 492.477 257.617 492.741 257.788 492.969C257.96 493.197 258.18 493.383 258.433 493.514C258.687 493.644 258.966 493.716 259.251 493.723L266.632 493.994L271.736 471.745C271.771 471.091 271.584 467.714 270.115 466.882C268.645 466.05 264.314 467.141 263.717 469.197Z" fill="#F8A588"/>
<path d="M272.741 380.176C272.741 377.533 273.233 371.725 281.983 371.427C287.897 371.225 290.264 373.538 290.659 378.992C290.659 378.992 293.05 389.453 296.294 403.794C299.315 417.132 285.071 445.811 287.589 472.653L280.23 472.326C279.854 466.458 278.641 437.995 277.661 427.464C275.348 402.619 272.741 380.176 272.741 380.176Z" fill="#F8A588"/>
<path d="M288.719 469.759C288.719 469.759 293.83 489.503 294.546 492.753C295.262 496.004 294.095 500.391 292.971 501.61C291.847 502.828 280.954 502.509 278.652 501.831C276.35 501.153 280.192 470.94 280.192 470.94L288.719 469.759Z" fill="#92372B"/>
<path d="M280.09 466.525C280.09 468.743 279.784 477.332 279.876 480.034C279.99 483.305 280.289 492.875 280.289 492.875C280.289 492.875 288.665 493.461 289.705 492.462C292.636 489.617 291.326 483.659 291.326 483.659L288.838 469.246C288.684 468.541 287.527 464.899 285.812 463.991C284.096 463.083 280.09 464.304 280.09 466.525Z" fill="#F8A588"/>
<path d="M218.309 347.433C216.623 346.177 214.222 340.117 215.689 334.063C216.378 331.22 226.704 299.035 226.704 299.035C226.704 299.035 241.174 303.72 241.658 309.899C241.658 309.899 230 343.186 228.689 343.94C227.379 344.694 220.414 349 218.309 347.433Z" fill="#F8A588"/>
<path d="M242.779 272.134C240.026 272.82 235.419 275.122 234.728 276.935C234.036 278.748 223.651 305.597 219.679 316.131C223.872 320.533 231.361 323.102 238.286 324.728C243.624 317.101 245.594 304.376 248.617 295.571L251.105 271.151C251.105 271.151 246.442 271.207 242.779 272.134Z" fill="#F7931E"/>
<path d="M243.416 416.56C243.416 416.56 234.433 392.044 233.563 379.241C232.693 366.437 245.467 361.68 245.467 361.68L251.522 348.576L288.343 348.293C288.343 348.293 307.617 365.584 310.459 370.644C312.891 374.991 313.637 390.058 302.587 388.583L303.64 416.552L243.416 416.56Z" fill="#E5D2B8"/>
<path d="M298.494 297.76C296.251 295.412 290.456 270.98 290.456 270.98H271.206L250.868 271.41C250.868 271.41 246.161 295.412 243.922 297.76C235.903 306.154 245.027 316.593 248.085 321.383C252.308 335.2 251.17 339.215 251.251 351.989C257.848 353.118 264.516 353.772 271.206 353.945C277.897 353.772 284.567 353.118 291.164 351.989C291.242 339.215 290.105 335.2 294.328 321.383C297.386 316.596 306.51 306.154 298.494 297.76Z" fill="white"/>
<path d="M281.529 254.37H258.824V281.377H281.529V254.37Z" fill="#F8A588"/>
<path d="M281.53 254.37V262.675C275.883 267.247 268.253 270.332 258.835 270.98V254.37H281.53Z" fill="#1A1A1A"/>
<path d="M259.319 273.412C259.319 273.412 256.212 277.786 256.174 280.366C256.147 282.228 267.435 300.578 269.65 300.578C271.865 300.578 286.363 280.769 286.671 279.58C287.114 277.905 286.155 276.111 284.78 275.055C283.404 273.998 281.684 273.525 280.011 273.077L259.319 273.412Z" fill="#F8A588"/>
<path d="M279.73 258.993C280.562 259.424 281.523 259.536 282.432 259.309C283.319 259.079 284.166 258.715 284.942 258.228C287.022 257.031 289.089 255.383 289.535 253.071C289.629 252.684 289.644 252.282 289.578 251.89C289.512 251.497 289.367 251.122 289.151 250.788C288.592 250.012 287.53 249.669 286.563 249.788C285.61 249.94 284.728 250.385 284.039 251.061L279.73 258.993Z" fill="#F8A588"/>
<path d="M258.746 253.77C257.812 253.76 256.915 253.411 256.22 252.787C255.543 252.17 254.965 251.453 254.507 250.661C253.232 248.629 252.178 246.203 252.867 243.95C252.965 243.564 253.14 243.203 253.382 242.887C253.624 242.572 253.928 242.309 254.275 242.115C255.134 241.691 256.236 241.888 257.03 242.445C257.796 243.028 258.362 243.834 258.651 244.752L258.746 253.77Z" fill="#F8A588"/>
<path d="M283.245 259.506C285.612 252.828 288.468 249.302 290.602 245.636C292.161 242.88 294.252 238.028 291.769 232.667C289.37 227.15 281.111 222.298 272.4 222.485C263.628 222.657 255.82 227.113 255.509 232.6C255.239 235.863 256.728 239.335 256.468 242.71C256.252 245.514 254.726 248.002 255.118 250.882C255.928 255.875 261.434 265.65 267.324 267.114C272.13 268.314 282.043 262.375 283.245 259.506Z" fill="#F8A588"/>
<path d="M277.174 244.698C278.758 244.756 280.278 245.336 281.497 246.349C282.104 246.843 282.595 247.464 282.937 248.167C282.256 247.786 281.632 247.421 280.992 247.086C280.364 246.765 279.719 246.478 279.06 246.225C278.401 245.974 277.729 245.757 277.047 245.576C276.356 245.401 276.394 244.677 277.174 244.698Z" fill="#1A1A1A"/>
<path d="M267.332 242.118C265.896 241.455 264.281 241.287 262.739 241.64C261.975 241.807 261.256 242.14 260.634 242.615C261.415 242.583 262.137 242.537 262.853 242.539C263.557 242.537 264.261 242.571 264.963 242.642C265.664 242.715 266.361 242.825 267.051 242.972C267.745 243.109 268.04 242.45 267.332 242.118Z" fill="#1A1A1A"/>
<g style="mix-blend-mode:soft-light">
<path d="M271.895 252.204C271.815 252.328 271.724 252.447 271.625 252.557C271.537 252.68 271.415 252.774 271.274 252.828C271.139 252.863 270.968 252.771 270.877 252.53C270.83 252.393 270.817 252.247 270.836 252.104C270.859 251.931 270.921 251.765 271.017 251.62C271.112 251.475 271.238 251.354 271.387 251.266C271.51 251.191 271.649 251.149 271.792 251.142C272.046 251.142 272.195 251.258 272.217 251.412C272.224 251.561 272.188 251.709 272.114 251.839C272.052 251.967 271.979 252.089 271.895 252.204Z" fill="#F2F2F2"/>
</g>
<path d="M270.28 252.317C270.28 252.214 270.28 252.122 270.28 252.047C270.28 251.971 270.28 251.893 270.296 251.823C270.307 251.739 270.324 251.657 270.347 251.577C270.374 251.478 270.408 251.382 270.447 251.288C270.529 251.098 270.595 250.902 270.644 250.701C270.665 250.625 270.671 250.545 270.661 250.466C270.651 250.387 270.625 250.311 270.585 250.242C270.555 250.19 270.506 250.152 270.449 250.136C270.391 250.119 270.33 250.125 270.277 250.153C270.099 250.237 269.942 250.357 269.815 250.507C269.592 250.739 269.421 251.015 269.312 251.317C269.251 251.497 269.217 251.684 269.212 251.874C269.209 252.061 269.228 252.248 269.269 252.43C269.304 252.601 269.354 252.768 269.418 252.93C269.477 253.074 269.544 253.215 269.618 253.352C269.737 253.566 269.872 253.771 270.023 253.965C270.269 254.276 270.431 254.408 270.563 254.27C270.696 254.133 270.733 253.951 270.636 253.638C270.59 253.481 270.509 253.295 270.425 253.073C270.385 252.963 270.344 252.841 270.312 252.717C270.285 252.585 270.274 252.451 270.28 252.317Z" fill="#D1785E"/>
<path d="M275.694 249.915C275.945 248.913 277.739 247.754 278.866 248.024C279.316 248.14 279.703 248.43 279.941 248.831C280.179 249.231 280.249 249.709 280.135 250.161L279.927 250.971C279.687 251.925 275.445 250.917 275.694 249.915Z" fill="#1A1A1A"/>
<path d="M278.452 247.997C279.279 248.066 280.05 248.442 280.614 249.051C281.497 250.058 282.343 249.834 282.343 249.834C282.343 249.834 281.262 250.463 280.306 249.691C279.349 248.918 278.793 249.01 278.793 249.01L278.452 247.997Z" fill="#1A1A1A"/>
<path d="M266.227 247.559C266.476 246.557 265.416 244.695 264.306 244.414C263.853 244.306 263.375 244.381 262.977 244.624C262.58 244.866 262.294 245.256 262.182 245.709L261.985 246.519C261.756 247.462 265.976 248.562 266.227 247.559Z" fill="#1A1A1A"/>
<path d="M264.69 244.571C263.924 244.239 263.062 244.207 262.274 244.482C261.023 244.957 260.383 244.366 260.383 244.366C260.383 244.366 261.056 245.433 262.25 245.193C263.444 244.952 263.906 245.301 263.906 245.301L264.69 244.571Z" fill="#1A1A1A"/>
<path d="M265.635 255.608C266.909 256.532 268.404 257.103 269.97 257.264C271.536 257.425 273.116 257.169 274.551 256.523C274.994 256.321 274.6 255.675 274.162 255.872C272.842 256.448 271.393 256.666 269.962 256.504C268.531 256.342 267.168 255.805 266.011 254.948C265.923 254.9 265.82 254.888 265.724 254.915C265.627 254.942 265.545 255.005 265.495 255.091C265.448 255.179 265.437 255.282 265.464 255.378C265.49 255.474 265.553 255.556 265.638 255.608H265.635Z" fill="#A33939"/>
<path d="M289.637 240.564C289.706 240.312 289.73 240.05 289.708 239.789C289.378 239.095 287.211 246.289 287.211 246.289C279.711 243.612 259.589 239.781 259.589 239.781L260.51 232.43C258.792 233.659 255.671 249.418 255.671 249.418C255.036 243.569 254.812 233.499 255.82 227.888C256.39 224.719 259.416 223.222 261.521 223.341C264.003 218.516 268.764 217.751 274.351 217.53C280.862 217.259 287.279 220.888 290.899 226.243C294.519 231.597 295.894 236.901 293.185 242.685C290.353 248.721 289.586 253.965 284.888 258.355C284.888 258.35 288.989 244.114 289.637 240.564Z" fill="#3F1B1B"/>
<path d="M247.28 271.413C247.28 271.413 245.175 296.182 243.622 297.749C233.944 307.499 247.631 323.861 247.631 323.861C250.973 334.833 247.218 350.586 245.324 357.516C244.767 359.556 258.292 363.682 258.832 363.765C259.589 333.266 261.35 300.629 258.832 270.097L247.28 271.413Z" fill="#F7931E"/>
<path d="M299.339 297.749C297.899 296.074 292.585 271.148 292.585 271.148L281.508 269.708C280.897 299.864 277.374 333.171 282.794 363.211C283.721 363.071 300.32 356.06 300.293 353.945C300.293 353.945 291.966 334.833 295.306 323.861C295.327 323.861 307.914 307.729 299.339 297.749Z" fill="#F7931E"/>
<path d="M254.204 353.61C254.204 353.61 229.235 352.432 219.53 348.247C215.748 346.626 216.494 340.633 219.071 338.647C220.592 337.48 223.494 336.1 226.963 335.946C230.432 335.792 252.899 346.11 255.153 347.144C257.406 348.179 259.702 351.343 254.204 353.61Z" fill="#F8A588"/>
<path d="M265.214 345.68C265.214 345.68 268.364 345.591 270.215 346.874C272.065 348.158 276.515 355.582 277.072 356.425C277.701 357.373 275.345 357.776 274.548 357.214C272.949 356.103 269.172 349.444 268.115 348.914C267.059 348.385 262.755 348.344 262.755 348.344L265.214 345.68Z" fill="#F8A588"/>
<path d="M262.547 347.539C262.547 347.539 265.697 347.452 267.548 348.736C269.399 350.019 273.184 356.598 273.989 357.786C274.794 358.975 272.127 359.108 271.268 358.432C269.736 357.233 266.084 351.718 265.027 351.186C263.971 350.654 260.089 350.203 260.089 350.203L262.547 347.539Z" fill="#F8A588"/>
<path d="M258.93 350.279C258.93 350.279 261.975 349.69 263.793 350.505C265.611 351.321 269.501 356.422 270.317 357.325C271.133 358.227 268.564 358.778 267.708 358.33C266.189 357.535 262.474 353.337 261.437 353.048C260.399 352.759 256.628 352.996 256.628 352.996L258.93 350.279Z" fill="#F8A588"/>
<path d="M255.836 351.548C255.836 351.548 258.732 350.7 260.159 351.745C261.207 352.521 265.054 356.241 265.778 357.041C266.503 357.841 265.549 358.91 264.792 358.516C263.441 357.811 259.751 354.601 258.832 354.345C257.914 354.088 253.823 353.95 253.823 353.95L255.836 351.548Z" fill="#F8A588"/>
<path d="M260.507 344.91C260.507 344.91 263.085 343.773 264.444 343.943C265.395 344.059 266.994 345.961 266.994 345.961L265.373 346.256L260.507 344.91Z" fill="#F8A588"/>
<path d="M265.719 345.896L258.695 354.272C258.695 354.272 253.985 355.425 252.354 353.575C250.722 351.724 249.112 351.094 249.744 349.984C250.376 348.874 257.222 345.172 260.075 344.672C262.928 344.173 265.719 345.896 265.719 345.896Z" fill="#F8A588"/>
<path d="M291.353 351.419C291.353 351.419 315.044 343.449 323.233 336.764C326.416 334.165 324.068 328.608 321.045 327.408C319.262 326.701 316.093 326.168 312.718 326.976C309.344 327.784 290.564 343.851 288.673 345.467C286.782 347.082 285.444 350.749 291.353 351.419Z" fill="#F8A588"/>
<path d="M285.093 344.47C285.093 344.47 282.178 345.672 281.011 347.593C279.844 349.514 278.79 358.111 278.622 359.108C278.433 360.229 280.746 359.632 281.248 358.802C282.259 357.138 283.007 349.517 283.756 348.603C284.504 347.69 288.422 345.902 288.422 345.902L285.093 344.47Z" fill="#F8A588"/>
<path d="M288.286 345.086C288.286 345.086 285.371 346.288 284.201 348.212C283.032 350.135 282.245 357.684 281.994 359.099C281.743 360.515 284.231 359.551 284.745 358.583C285.652 356.865 286.752 350.341 287.503 349.427C288.254 348.514 291.615 346.523 291.615 346.523L288.286 345.086Z" fill="#F8A588"/>
<path d="M292.707 346.12C292.707 346.12 289.683 346.82 288.343 348.306C287.003 349.792 285.531 356.033 285.15 357.189C284.769 358.346 287.344 357.803 287.943 357.049C289.008 355.698 290.696 350.359 291.529 349.673C292.361 348.987 295.903 347.674 295.903 347.674L292.707 346.12Z" fill="#F8A588"/>
<path d="M296.046 346.023C296.046 346.023 293.058 346.426 292.188 347.958C291.542 349.09 289.54 354.053 289.216 355.077C288.892 356.101 290.183 356.698 290.713 356.025C291.655 354.836 293.73 350.397 294.465 349.792C295.2 349.187 298.883 347.396 298.883 347.396L296.046 346.023Z" fill="#F8A588"/>
<path d="M289.081 341.857C289.081 341.857 286.266 341.857 285.09 342.57C284.28 343.065 283.58 345.451 283.58 345.451L285.179 345.064L289.081 341.857Z" fill="#F8A588"/>
<path d="M284.718 344.872L294.538 349.66C294.538 349.66 299.307 348.801 300.05 346.447C300.793 344.094 302.009 342.862 300.976 342.106C299.944 341.349 292.185 340.755 289.378 341.449C286.571 342.144 284.718 344.872 284.718 344.872Z" fill="#F8A588"/>
<path d="M289.289 358.232H351.118C353.528 358.232 355.846 356.26 356.267 353.847L363.77 310.923C364.191 308.51 362.562 306.538 360.152 306.538H298.323C295.911 306.538 293.595 308.51 293.174 310.923L285.671 353.847C285.25 356.26 286.876 358.232 289.289 358.232Z" fill="white"/>
<path d="M290.437 358.232H352.266C354.676 358.232 356.994 356.26 357.415 353.847L364.918 310.923C365.34 308.51 363.713 306.538 361.3 306.538H299.472C297.062 306.538 294.744 308.51 294.322 310.923L286.82 353.847C286.412 356.26 288.033 358.232 290.437 358.232Z" fill="#11527E"/>
<path d="M261.572 360.607H352.26C352.615 360.601 352.955 360.464 353.214 360.222C353.473 359.98 353.633 359.65 353.663 359.297C353.677 359.129 353.655 358.959 353.6 358.8C353.545 358.64 353.457 358.494 353.342 358.371C353.227 358.247 353.088 358.149 352.933 358.082C352.778 358.016 352.61 357.982 352.442 357.984H261.756C261.401 357.99 261.061 358.128 260.801 358.371C260.542 358.613 260.381 358.943 260.351 359.297C260.337 359.465 260.358 359.634 260.413 359.793C260.469 359.953 260.557 360.099 260.672 360.222C260.787 360.345 260.926 360.443 261.081 360.51C261.236 360.576 261.403 360.609 261.572 360.607Z" fill="#11527E"/>
<path d="M159.774 501.353L194.21 365.006H174.017L154.341 501.348L159.774 501.353Z" fill="#8F93AE"/>
<path d="M384.975 502.11L365.185 365.006H344.993L379.618 502.083L384.975 502.11Z" fill="#8F93AE"/>
<path d="M397.163 363.49H142.043V367.937H397.163V363.49Z" fill="#6B6E83"/>
<path d="M401.691 360.607H137.512C136.343 360.607 135.396 361.554 135.396 362.723V363.271C135.396 364.439 136.343 365.386 137.512 365.386H401.691C402.859 365.386 403.806 364.439 403.806 363.271V362.723C403.806 361.554 402.859 360.607 401.691 360.607Z" fill="#8F93AE"/>
<path d="M300.793 268.065C303.451 271.275 306.637 274.028 307.236 275.66C307.836 277.292 309.109 285.883 309.068 287.237C309.028 288.59 307.177 286.534 306.907 285.045C306.637 283.557 304.038 276.978 304.038 276.978C304.038 276.978 296.743 272.499 295.554 271.477L291.658 270.937C291.658 270.937 287.711 275.065 286.795 275.884C285.879 276.703 284.034 276.23 285.687 273.723C287.341 271.215 289.902 265.526 291.115 264.345C292.496 262.994 293.817 262.259 296.076 263.407C298.334 264.556 300.793 268.065 300.793 268.065Z" fill="#F8A588"/>
<path d="M297.74 265.598C297.74 265.598 303.735 270.081 305.002 271.361C306.269 272.642 309.36 278.569 309.798 279.139C310.235 279.71 309.276 280.869 307.96 278.937C306.645 277.005 303.619 273.952 303.224 273.652C302.83 273.352 297.516 270.008 296.259 269.381C295.003 268.754 296.138 264.393 297.74 265.598Z" fill="#F8A588"/>
</g>
<defs>
<clipPath id="clip0_690_694">
<rect width="433.037" height="505.667" fill="white" transform="translate(59.8888 0.962891)"/>
</clipPath>
</defs>
</svg>
