<svg xmlns="http://www.w3.org/2000/svg" width="20" height="20" viewBox="0 0 20 20" fill="none">
<path d="M19.1633 2.48034H0.877618C0.482014 2.48034 0.152344 2.15067 0.152344 1.75507C0.152344 1.35946 0.482014 1.00781 0.877618 1.00781H19.1633C19.5589 1.00781 19.8886 1.33748 19.8886 1.73309C19.8886 2.12869 19.5809 2.48034 19.1633 2.48034ZM19.1633 10.7661H0.877618C0.482014 10.7661 0.152344 10.4364 0.152344 10.0408C0.152344 9.64518 0.482014 9.31551 0.877618 9.31551H19.1633C19.5589 9.31551 19.8886 9.64518 19.8886 10.0408C19.8886 10.4364 19.5809 10.7661 19.1633 10.7661ZM19.1633 19.0518H0.877618C0.482014 19.0518 0.152344 18.7221 0.152344 18.3265C0.152344 17.9089 0.482014 17.5792 0.877618 17.5792H19.1633C19.5589 17.5792 19.8886 17.9089 19.8886 18.3045C19.9106 18.7221 19.5809 19.0518 19.1633 19.0518Z" fill="#201D29"/>
</svg>