<svg width="16" height="15" viewBox="0 0 16 15" fill="none" xmlns="http://www.w3.org/2000/svg">
                      <path d="M15.1814 14.6259V9.40613C15.1814 6.8408 14.6292 4.88117 11.6363 4.88117C10.1933 4.88117 9.23127 5.66502 8.83934 6.41324H8.80371V5.11276H5.97116V14.6259H8.92842V9.90495C8.92842 8.65791 9.16001 7.46432 10.6921 7.46432C12.2063 7.46432 12.2242 8.87169 12.2242 9.97621V14.6081H15.1814V14.6259ZM1.16116 5.11276H4.11842V14.6259H1.16116V5.11276ZM2.63979 0.374023C1.6956 0.374023 0.929565 1.14006 0.929565 2.08425C0.929565 3.02843 1.6956 3.81228 2.63979 3.81228C3.58397 3.81228 4.35001 3.02843 4.35001 2.08425C4.35001 1.14006 3.58397 0.374023 2.63979 0.374023Z" fill="#F7931E"/>
                    </svg>