<svg xmlns="http://www.w3.org/2000/svg" width="23" height="24" viewBox="0 0 23 24" fill="none">
  <g clipPath="url(#clip0_690_1218)">
    <path d="M13.3655 14.6008C12.7973 14.9796 12.1372 15.1799 11.4567 15.1799C10.7763 15.1799 10.1163 14.9796 9.54804 14.6008L0.189057 8.36128C0.137392 8.32674 0.086683 8.29078 0.0369873 8.25346L0.0369873 18.4776C0.0369873 19.6498 0.988262 20.5801 2.13952 20.5801H20.7739C21.9461 20.5801 22.8764 19.6288 22.8764 18.4776V8.25342C22.8267 8.29084 22.7759 8.32687 22.7241 8.36146L13.3655 14.6008Z" fill="#F7931E" />
    <path d="M0.931387 7.24764L10.2904 13.4872C10.6446 13.7234 11.0507 13.8415 11.4567 13.8415C11.8628 13.8415 12.2688 13.7233 12.6231 13.4872L21.9821 7.24764C22.5422 6.87449 22.8765 6.24997 22.8765 5.57594C22.8765 4.41696 21.9336 3.47412 20.7747 3.47412H2.1388C0.979877 3.47417 0.0369884 4.41701 0.0369884 5.57705C0.036641 5.90769 0.118131 6.23328 0.274191 6.52477C0.430251 6.81626 0.656029 7.0646 0.931387 7.24764Z" fill="#F7931E" />
  </g>
  <defs>
    <clipPath id="clip0_690_1218">
      <rect width="22.8395" height="22.8395" fill="white" transform="translate(0.0369873 0.607422)" />
    </clipPath>
  </defs>
</svg>