<svg width="600" height="471" viewBox="0 0 600 471" fill="none" xmlns="http://www.w3.org/2000/svg">
<g opacity="0.8" filter="url(#filter0_d_690_1061)">
<g clip-path="url(#clip0_690_1061)">
<path d="M239.792 239.96L281.469 256.057L280.744 308.823L259.102 406.621L236.043 402.384L245.053 308.823L239.792 239.96Z" fill="#FFCC82"/>
<path d="M259.228 405.896L293.455 435.618L250.424 433.382L244.344 425.869L240.737 432.831L230.609 432.279L236.059 402.415L259.228 405.896Z" fill="#201D29"/>
<path d="M259.244 405.676L236.043 402.384C236.043 402.384 247.179 420.986 259.244 405.676Z" fill="#FFB673"/>
<path d="M203.864 183.367L195.894 181.555C195.263 181.466 194.669 181.204 194.177 180.799C192.712 179.602 189.845 176.987 191.531 176.2C193.752 175.16 203.486 176.798 203.486 176.798" fill="#FFCC82"/>
<path d="M205.124 188.47L197.138 186.658C196.512 186.569 195.923 186.307 195.437 185.902C193.972 184.705 191.106 182.091 192.791 181.303C194.996 180.263 204.746 181.886 204.746 181.886" fill="#FFCC82"/>
<path d="M206.368 193.573L198.398 191.762C197.768 191.669 197.175 191.408 196.681 191.006C195.216 189.808 192.35 187.194 194.035 186.406C196.256 185.367 205.99 186.989 205.99 186.989" fill="#FFCC82"/>
<path d="M205.912 192.266C205.912 192.266 197.516 190.438 195.295 191.478C193.61 192.266 196.477 194.88 197.941 196.077C198.433 196.473 199.019 196.734 199.642 196.833L204.116 197.841C205.142 198.084 206.221 197.938 207.146 197.432C208.071 196.926 208.775 196.096 209.124 195.101C210.321 191.651 215.094 183.681 213.409 178.168C210.652 169.175 207.108 165.315 207.108 165.315L202.273 177.633L205.912 192.266Z" fill="#FFCC82"/>
<path d="M222.434 11.3026C217.039 16.276 213.208 22.7121 211.408 29.8258C209.125 37.6067 212.605 40.0164 211.518 50.0025C210.321 61.0282 200.241 57.248 196.744 68.9037C192.098 84.3239 203.281 90.5142 198.319 102.926C193.594 114.503 182.269 113.29 177.843 124.851C173.417 136.412 180.725 149.171 182.379 152.069C195.468 174.892 232.94 187.162 258.74 172.545C268.726 166.875 282.367 154.101 282.178 139.279C282.052 126.175 271.262 121.449 268.569 104.501C266.442 91.0655 275.247 88.3564 273.105 75.0153C271.089 62.4145 264.174 62.1938 262.898 50.4436C261.323 36.4094 268.033 31.9993 264.474 21.8714C260.725 10.9402 246.738 7.14429 244.438 6.5615C232.058 3.25379 224.655 10.0267 222.434 11.3026Z" fill="#201D29"/>
<path d="M315.696 161.677L274.019 122.032C269.435 116.913 277.437 81.7723 282.004 86.9072L315.696 130.222L334.44 115.432C337.275 112.739 348.616 101.162 352.286 99.886C355.247 98.8622 354.743 101.855 358.681 106.864C360.744 109.494 315.696 161.677 315.696 161.677Z" fill="#FFCC82"/>
<path d="M262.82 77.9762C262.82 77.9762 286.446 83.0482 304.954 107.273L279.878 119.165L265.844 108.911L262.82 77.9762Z" fill="#84B5D5"/>
<path d="M165.809 129.34L194.76 93.5068C200.131 89.2225 231.444 96.342 226.072 100.626L191.011 132.049C191.011 132.049 206.62 164.402 208.715 167.71C219.882 185.429 207.959 175.963 202.745 179.617C199.989 181.539 165.809 129.34 165.809 129.34Z" fill="#FFCC82"/>
<path d="M207.093 239.96L248.77 256.057L248.045 308.823L226.419 406.621L203.344 402.384L212.354 308.823L207.093 239.96Z" fill="#FFCC82"/>
<path d="M226.529 405.896L260.756 435.618L217.725 433.382L211.645 425.869L208.038 432.831L197.926 432.279L203.36 402.415L226.529 405.896Z" fill="#201D29"/>
<path d="M226.592 405.676L203.391 402.384C203.391 402.384 214.48 420.986 226.592 405.676Z" fill="#FFB673"/>
<path d="M210.18 102.485C210.18 102.485 202.698 129.025 221.064 137.137C239.429 145.249 259.417 143.201 269.734 138.255C276.491 135.01 283.91 119.889 277.909 100.358C272.27 82.0083 210.18 102.485 210.18 102.485Z" fill="#84B5D5"/>
<path d="M245.383 126.379C265.713 126.379 282.193 114.849 282.193 100.626C282.193 86.4033 265.713 74.8734 245.383 74.8734C225.054 74.8734 208.573 86.4033 208.573 100.626C208.573 114.849 225.054 126.379 245.383 126.379Z" fill="#84B5D5"/>
<path d="M252.156 60.5242L250.235 39.5439L236.547 43.2139L235.885 57.437L250.439 57.6733L252.156 60.5242Z" fill="#201D29"/>
<path d="M234.83 70.1953C234.421 73.0777 233.917 76.0545 233.255 80.7011C232.137 88.7026 237.461 96.2001 245.383 106.738C245.383 106.738 256.819 89.4114 256.63 81.1106L254.314 70.6679C247.069 73.3771 239.193 71.6601 234.83 70.1953Z" fill="#FFCC82"/>
<path d="M254.314 70.6679L252.235 61.3119L252.156 60.5243L250.439 57.6733L235.885 57.4368L235.696 61.5322C235.476 65.1077 235.208 67.6121 234.83 70.1953C239.193 71.6601 247.069 73.3771 254.314 70.6679Z" fill="#FFCC82"/>
<path d="M235.854 60.1933L235.319 66.1157C235.319 66.1157 245.383 71.0933 253.369 66.431L235.854 60.1933Z" fill="#E69F5E"/>
<path d="M262.268 19.2723C264.568 19.9338 269.719 38.3785 265.513 54.161C261.134 70.605 241.21 70.6362 233.051 57.0274C222.718 39.843 227.364 26.4076 228.514 22.5801C230.546 15.8545 249.557 15.6653 262.268 19.2723Z" fill="#FFCC82"/>
<path d="M268.002 20.5797C269.167 24.612 266.017 29.6521 262.3 32.2038C257.181 35.732 252.959 33.1175 246.155 37.1655C242.249 39.4652 243.005 40.6779 239.036 43.324C233.979 46.7105 224.702 50.1286 220.26 47.0099C214.968 43.3084 217.299 30.9438 223.332 23.2731C230.467 14.232 241.824 12.8931 245.084 12.6411C253.07 12.0898 266.08 14.0273 268.002 20.5797Z" fill="#201D29"/>
<path d="M211.944 128.537C214.13 140.094 214.771 151.889 213.85 163.615L278.287 164.812C278.287 164.812 272.554 146.572 277.799 127.623L211.944 128.537Z" fill="#84B5D5"/>
<path d="M234.357 76.0546C234.357 76.0546 210.274 77.3934 188.176 98.421L210.794 114.046L226.545 106.171L234.357 76.0546Z" fill="#84B5D5"/>
<path d="M260.441 41.4811C260.26 41.6881 260.168 41.9583 260.186 42.2329C260.203 42.5075 260.329 42.7639 260.536 42.9459C260.745 43.1276 261.017 43.2189 261.293 43.1997C261.569 43.1805 261.827 43.0524 262.009 42.8436C262.19 42.6347 262.282 42.3622 262.262 42.086C262.243 41.8098 262.115 41.5525 261.906 41.3708C261.697 41.1913 261.425 41.1024 261.151 41.1231C260.876 41.1438 260.621 41.2725 260.441 41.4811Z" fill="#201D29"/>
<path d="M254.33 52.8692C253.516 51.5646 253.05 50.0735 252.975 48.5377C252.975 48.475 253 48.4151 253.045 48.3708C253.089 48.3265 253.149 48.3016 253.211 48.3016C253.274 48.3016 253.334 48.3265 253.379 48.3708C253.423 48.4151 253.448 48.475 253.448 48.5377C253.92 54.6333 258.41 55.2634 258.599 55.2949C258.661 55.2949 258.721 55.3198 258.765 55.3641C258.81 55.4085 258.835 55.4684 258.835 55.531C258.835 55.5937 258.81 55.654 258.765 55.6983C258.721 55.7426 258.661 55.7675 258.599 55.7675C257.725 55.6065 256.895 55.2655 256.16 54.7666C255.425 54.2677 254.802 53.6216 254.33 52.8692Z" fill="#201D29"/>
<path d="M266.647 39.78L269.608 49.5929C269.784 50.2026 269.736 50.8553 269.474 51.4329C269.211 52.0105 268.75 52.475 268.175 52.7431L262.804 54.9327L266.647 39.78Z" fill="#FFCC82"/>
<path d="M226.325 44.9148C226.607 46.247 227.279 47.4656 228.254 48.4161C229.23 49.3666 230.465 50.0065 231.804 50.2546C233.143 50.5027 234.526 50.348 235.777 49.81C237.028 49.272 238.092 48.375 238.833 47.2324C239.574 46.0898 239.959 44.753 239.94 43.3912C239.922 42.0294 239.499 40.7039 238.727 39.5823C237.954 38.4606 236.866 37.5931 235.601 37.09C234.335 36.5869 232.949 36.4707 231.617 36.7559C230.733 36.943 229.895 37.3025 229.151 37.8141C228.406 38.3257 227.769 38.9793 227.278 39.7372C226.786 40.4952 226.449 41.3425 226.286 42.231C226.122 43.1195 226.135 44.0315 226.325 44.9148Z" fill="#FFCC82"/>
<path d="M233.57 45.7498L232.058 41.3868L232.515 41.2292L234.027 45.5923L233.57 45.7498Z" fill="#201D29"/>
<path d="M230.94 44.4739L230.782 44.0172L235.145 42.5051L235.303 42.9618L230.94 44.4739Z" fill="#201D29"/>
<path d="M226.782 51.0737C226.921 51.742 227.256 52.3535 227.743 52.8315C228.231 53.3094 228.849 53.6322 229.52 53.7586C230.191 53.885 230.884 53.8092 231.512 53.5413C232.14 53.2734 232.674 52.8252 233.047 52.2535C233.42 51.6818 233.615 51.0122 233.608 50.3296C233.6 49.647 233.39 48.982 233.004 48.4188C232.618 47.8556 232.074 47.4196 231.44 47.1659C230.806 46.9123 230.112 46.8526 229.444 46.9941C228.55 47.1833 227.768 47.7191 227.269 48.4838C226.77 49.2485 226.595 50.1799 226.782 51.0737Z" fill="white"/>
<path d="M214.291 153.802C214.291 153.802 239.319 162.985 276.145 153.802C276.145 153.802 305.159 230.147 296.055 306.586H192.759C192.759 306.586 190.617 212.742 214.291 153.802Z" fill="#84B5D5"/>
<path d="M246.754 161.22V186.06" stroke="white" stroke-width="0.551285" stroke-miterlimit="10"/>
<path d="M251.904 168.482C252.539 168.482 253.054 167.967 253.054 167.332C253.054 166.697 252.539 166.182 251.904 166.182C251.269 166.182 250.754 166.697 250.754 167.332C250.754 167.967 251.269 168.482 251.904 168.482Z" stroke="white" stroke-width="0.551285" stroke-miterlimit="10"/>
<path d="M251.904 176.83C252.539 176.83 253.054 176.315 253.054 175.68C253.054 175.045 252.539 174.53 251.904 174.53C251.269 174.53 250.754 175.045 250.754 175.68C250.754 176.315 251.269 176.83 251.904 176.83Z" stroke="white" stroke-width="0.551285" stroke-miterlimit="10"/>
<path d="M251.904 185.178C252.539 185.178 253.054 184.663 253.054 184.028C253.054 183.393 252.539 182.878 251.904 182.878C251.269 182.878 250.754 183.393 250.754 184.028C250.754 184.663 251.269 185.178 251.904 185.178Z" stroke="white" stroke-width="0.551285" stroke-miterlimit="10"/>
<path d="M363.201 114.44L378.038 116.818C378.459 116.869 378.86 117.026 379.204 117.275C380.165 117.952 382.007 119.433 380.779 119.795C379.078 120.268 362.949 117.937 362.949 117.937" fill="#FFCC82"/>
<path d="M360.586 98.9566L362.965 102.532C363.905 103.546 364.963 104.445 366.115 105.21L378.527 109.053C378.527 109.053 381.504 111.038 379.803 111.825C378.101 112.613 363.862 110.439 363.862 110.439L381.015 113.164C381.352 113.22 381.673 113.343 381.96 113.526C382.968 114.251 385.41 116.094 383.851 116.535C381.913 117.086 363.5 114.424 363.5 114.424" fill="#FFCC82"/>
<path d="M376.652 120.772C375.944 120.099 375.093 119.592 374.163 119.291L364.051 118.204L364.65 109.998L361.122 101.571L353.246 99.8703C353.246 99.8703 342.819 104.958 351.104 115.889C351.761 116.692 352.628 117.298 353.608 117.638L362.618 120.945C362.815 120.992 363.015 121.023 363.217 121.04C365.248 121.166 375.817 122.489 376.526 122.268C376.904 122.158 376.983 121.213 376.652 120.772Z" fill="#FFCC82"/>
<path d="M363.626 104.722L362.918 102.107C362.666 100.91 364.146 100.406 365.453 99.5867L369.958 97.3817C370.541 97.0982 370.572 96.4839 369.958 96.2319C368.997 95.7187 367.935 95.4219 366.846 95.3621C365.758 95.3022 364.67 95.4808 363.658 95.8854L352.018 99.9178L363.626 104.722Z" fill="#FFCC82"/>
<path d="M259.48 14.1687C256.359 14.0508 253.233 14.1459 250.124 14.4525C247.332 14.7087 244.585 15.3227 241.95 16.2795C241.296 16.4822 240.659 16.7349 240.044 17.0355C239.387 17.2681 238.754 17.5635 238.154 17.9176C237.54 18.2327 236.909 18.579 236.263 18.8782C235.618 19.1775 235.066 19.6658 234.436 20.0438L233.476 20.611C233.192 20.8315 232.893 21.0677 232.578 21.2724C231.979 21.7292 231.334 22.1546 230.688 22.5956C229.428 23.525 228.199 24.5489 226.687 25.4624C227.031 23.7972 227.559 22.1752 228.262 20.6268C228.672 19.8865 229.097 19.1459 229.553 18.4214L230.263 17.3189L231.113 16.3425C231.696 15.6968 232.294 15.051 232.924 14.421C233.554 13.7909 234.326 13.3341 235.035 12.8459C235.75 12.308 236.521 11.8484 237.335 11.4753C238.128 11.0456 238.955 10.6822 239.807 10.3886C243.186 9.16448 246.834 8.88134 250.361 9.56954C253.802 10.1273 256.986 11.7334 259.48 14.1687Z" fill="#201D29"/>
<path d="M491.997 329.977L375.235 417.206" stroke="#6D5EAB" stroke-width="1.5751" stroke-miterlimit="10"/>
<path d="M396.31 311.516L496.013 449.495" stroke="#6D5EAB" stroke-width="1.5751" stroke-miterlimit="10"/>
<path d="M372.337 302.774C371.391 299.845 370.998 298.049 370.998 298.049C390.072 305.751 430.505 305.358 446.303 292.221C462.101 279.085 446.713 234.195 447.674 194.455C448.635 154.715 469.284 151.612 469.284 151.612C504.661 136.365 515.293 163 515.293 163L503.086 178.751L499.148 218.775L502.928 287.732L499.085 322.211L478.798 344.341L403.193 348.5C386.056 334.891 377.424 316.809 373.597 306.397C373.222 305.563 372.901 304.705 372.636 303.83L372.337 302.774Z" fill="#C1B6EE"/>
<path d="M400.231 338.34C422.818 347.444 468.749 347.271 487.445 331.725C506.141 316.179 488.579 260.845 489.713 213.75C490.847 166.654 515.293 163.032 515.293 163.032C515.293 163.032 497.446 206.111 501.652 237.88C505.605 267.713 518.632 321.03 493.131 343.239C475.915 358.265 441.263 359.793 411.226 353.603C405.209 352.359 402.941 350.295 400.924 343.176L400.231 338.34Z" fill="#AEA4D6"/>
<path d="M400.232 338.34C400.232 338.34 379.078 317.864 370.998 298.081C370.998 298.081 373.66 337.868 407.446 352.485C407.446 352.485 404.957 352.595 400.232 338.34Z" fill="#B3B3B3"/>
<path d="M330.88 424.876L284.682 452.834L340.992 451.291L349.261 444.155L353.656 450.897L368.273 450.456L361.027 421.805L330.88 424.876Z" fill="#201D29"/>
<path d="M306.088 439.871L308.403 448.125L345.985 446.975L340.992 451.291L284.682 452.834L306.088 439.871Z" fill="#201D29"/>
<path d="M351.104 446.991L367.265 446.502L368.273 450.456L353.656 450.897L351.104 446.991Z" fill="#22175E"/>
<path d="M368.871 424.876L322.674 452.834L378.983 451.291L387.253 444.155L391.647 450.897L406.264 450.456L399.019 421.805L368.871 424.876Z" fill="#201D29"/>
<path d="M344.079 439.871L346.395 448.125L383.976 446.975L378.983 451.291L322.674 452.834L344.079 439.871Z" fill="#201D29"/>
<path d="M389.095 446.991L405.272 446.502L406.264 450.456L391.647 450.897L389.095 446.991Z" fill="#201D29"/>
<path d="M370.777 427.916L325.099 427.57L326.075 298.411C326.106 295.604 326.97 292.868 328.557 290.552C330.144 288.236 332.383 286.443 334.991 285.401L434.537 246.024L451.328 288.551L371.596 320.053L370.777 427.916Z" fill="#4880A7"/>
<path d="M402.893 430.326L357.215 429.98L358.176 301.31C358.204 298.401 359.126 295.572 360.816 293.205C362.507 290.838 364.885 289.048 367.627 288.079L470.087 252.797L477.427 271.367C478.671 274.506 479.283 277.859 479.229 281.234C479.175 284.61 478.456 287.941 477.113 291.039C475.77 294.136 473.829 296.938 471.402 299.284C468.975 301.63 466.109 303.475 462.968 304.712L403.633 322.495L402.893 430.326Z" fill="#346A91"/>
<path d="M403.87 244.748L335.873 268.17L323.398 233.675L380.196 214.112L401.302 157.535L432.584 175.79L403.87 244.748Z" fill="#84B5D5"/>
<path d="M418.487 141.863L465.141 148.651C485.208 153.062 490.217 165.804 488.768 176.908L479.317 229.312V273.746H390.718L394.734 184.264C393.758 170.702 398.704 157.771 406.831 146.871C408.085 145.122 409.766 143.723 411.714 142.808C413.831 141.838 416.186 141.509 418.487 141.863Z" fill="#11527E"/>
<path d="M449.311 118.645L449.469 143.374C449.469 146.682 441.94 155.44 433.324 157.834C432.149 158.151 430.915 158.184 429.724 157.93C428.534 157.676 427.42 157.142 426.477 156.372C425.533 155.603 424.787 154.62 424.298 153.504C423.81 152.389 423.595 151.173 423.669 149.958L425.15 126.442L449.311 118.645Z" fill="#D18252"/>
<path d="M424.504 136.539L425.181 125.954L443.153 115.779L442.838 120.047C442.838 120.047 440.806 127.23 424.504 136.539Z" fill="#755237"/>
<path d="M428.316 157.613C428.316 157.613 414.691 192.833 419.999 204.599C419.999 204.536 431.655 187.777 428.316 157.613Z" fill="#402B6E"/>
<path d="M450.966 146.666L449.438 139.547L428.3 157.487L432.773 166.67L450.966 146.666Z" fill="white"/>
<path d="M424.362 139.374L424.126 142.618L428.3 157.487L421.574 164.119L419.385 141.941L424.362 139.374Z" fill="white"/>
<path d="M449.359 126.285L419.574 129.34C417.761 129.579 415.918 129.393 414.189 128.799C412.46 128.205 410.893 127.219 409.609 125.917C408.326 124.615 407.361 123.034 406.792 121.296C406.223 119.559 406.064 117.714 406.327 115.905L411.194 88.8761L450.178 84.6073L449.359 126.285Z" fill="#D18252"/>
<path d="M406.989 82.0087C408.186 101.351 438.916 87.7419 438.491 96.0584C437.341 117.322 449.643 113.936 449.643 113.936C449.643 113.936 468.544 84.2295 449.863 81.5361C431.182 78.8427 405.225 53.3734 406.989 82.0087Z" fill="#201D29"/>
<path d="M456.053 107.21C456.21 108.754 455.907 110.311 455.182 111.683C454.458 113.056 453.343 114.184 451.98 114.925C450.616 115.667 449.064 115.989 447.518 115.851C445.972 115.713 444.501 115.121 443.29 114.15C442.079 113.178 441.182 111.871 440.712 110.392C440.242 108.913 440.22 107.327 440.648 105.835C441.076 104.343 441.935 103.011 443.117 102.006C444.3 101.001 445.754 100.367 447.296 100.185C449.387 99.9641 451.481 100.578 453.121 101.894C454.761 103.21 455.815 105.121 456.053 107.21Z" fill="#D18252"/>
<path d="M411.588 94.6093L404.311 104.296C403.24 105.745 404.311 107.446 406.39 107.62L410.596 107.824L411.588 94.6093Z" fill="#D18252"/>
<path d="M446.634 110.423L446.224 110.093L449.69 105.777L450.099 106.108L446.634 110.423Z" fill="#201D29"/>
<path d="M450.146 110.045L445.831 106.58L446.161 106.155L450.493 109.636L450.146 110.045Z" fill="#201D29"/>
<path d="M416.928 101.114C416.945 101.264 416.933 101.415 416.892 101.559C416.85 101.703 416.78 101.838 416.687 101.955C416.593 102.073 416.477 102.17 416.345 102.242C416.214 102.314 416.069 102.359 415.92 102.375C415.766 102.398 415.61 102.39 415.46 102.351C415.31 102.312 415.169 102.244 415.047 102.15C414.924 102.055 414.821 101.937 414.746 101.802C414.67 101.667 414.621 101.518 414.604 101.364C414.587 101.21 414.602 101.054 414.646 100.906C414.691 100.758 414.765 100.62 414.865 100.501C414.964 100.382 415.086 100.284 415.224 100.214C415.362 100.143 415.513 100.102 415.668 100.091C415.97 100.06 416.273 100.15 416.509 100.342C416.745 100.534 416.896 100.812 416.928 101.114Z" fill="#201D29"/>
<path d="M420.786 99.5079C420.628 99.5242 420.468 99.4911 420.33 99.4133L416.03 97.0822C415.938 97.0327 415.858 96.9655 415.793 96.8849C415.727 96.8042 415.679 96.7114 415.65 96.6119C415.62 96.5123 415.611 96.4081 415.622 96.305C415.633 96.2018 415.665 96.1018 415.715 96.0108C415.764 95.9175 415.832 95.8352 415.913 95.7685C415.995 95.7019 416.09 95.6526 416.191 95.6232C416.292 95.5938 416.399 95.5853 416.504 95.5978C416.609 95.6103 416.71 95.6435 416.801 95.6959L421.086 98.0112C421.267 98.1141 421.401 98.2832 421.46 98.4831C421.519 98.6829 421.497 98.898 421.401 99.0826C421.341 99.1988 421.254 99.2983 421.147 99.3725C421.04 99.4467 420.916 99.4934 420.786 99.5079Z" fill="#201D29"/>
<path d="M413.336 110.36C413.13 110.416 412.913 110.416 412.706 110.36L408.217 109.179C408.085 109.143 407.961 109.081 407.852 108.997C407.744 108.913 407.653 108.808 407.585 108.689C407.517 108.57 407.473 108.439 407.456 108.302C407.439 108.166 407.449 108.028 407.485 107.896C407.521 107.763 407.583 107.639 407.667 107.531C407.751 107.422 407.856 107.331 407.975 107.263C408.094 107.195 408.226 107.151 408.362 107.134C408.498 107.117 408.636 107.127 408.768 107.163L413.258 108.329C413.524 108.406 413.751 108.584 413.889 108.825C414.027 109.066 414.066 109.351 413.998 109.62C413.958 109.789 413.877 109.945 413.761 110.074C413.646 110.204 413.5 110.302 413.336 110.36Z" fill="#201D29"/>
<path d="M327.21 244.732C327.21 244.732 295.708 241.314 296.055 244.905C296.401 248.496 295.519 255.096 299.457 258.735C303.394 262.373 307.726 269.241 313.633 267.981C319.539 266.72 330.045 261.302 330.045 261.302L327.21 244.732Z" fill="#D18252"/>
<path d="M327.21 244.732C327.21 244.732 302.638 237.518 300.433 237.439C298.228 237.361 297.803 244.338 307.521 245.315C314.087 245.786 320.683 245.591 327.21 244.732Z" fill="#D18252"/>
<path d="M354.947 246.496C354.947 246.496 329.494 241.771 327.289 241.976C325.083 242.181 325.351 249.19 335.164 249.064C341.828 248.875 348.456 248.014 354.947 246.496Z" fill="#D18252"/>
<path d="M301.803 235.738L301.677 270.028C301.677 271.241 308.734 272.265 317.428 272.296C326.123 272.328 333.179 271.367 333.179 270.138L333.305 235.864L301.803 235.738Z" fill="#11527E"/>
<path d="M333.368 235.864C333.368 237.077 326.296 238.038 317.617 238.007C308.939 237.975 301.866 236.967 301.866 235.738C301.866 234.51 308.939 233.565 317.617 233.596C326.296 233.628 333.368 234.636 333.368 235.864Z" fill="#755237"/>
<path d="M339.385 265.618H339.244H328.344L328.454 240.007H339.338C340.591 240.007 341.793 240.505 342.679 241.391C343.566 242.277 344.063 243.479 344.063 244.732V260.987C344.039 262.216 343.537 263.387 342.663 264.251C341.79 265.116 340.614 265.606 339.385 265.618ZM332.25 261.712H339.291C339.392 261.71 339.492 261.688 339.585 261.647C339.678 261.606 339.762 261.548 339.832 261.475C339.902 261.401 339.957 261.315 339.994 261.221C340.031 261.126 340.049 261.026 340.047 260.924V244.669C340.049 244.564 340.03 244.46 339.992 244.363C339.953 244.266 339.895 244.177 339.822 244.102C339.749 244.027 339.661 243.968 339.564 243.927C339.468 243.887 339.364 243.866 339.259 243.866H332.25V261.712Z" fill="#11527E"/>
<path d="M354.947 246.496C354.947 246.496 322.941 246.355 323.65 249.946C324.359 253.537 324.186 260.247 328.533 263.476C332.88 266.705 337.984 273.163 343.67 271.351C349.356 269.54 359.421 262.909 359.421 262.909L354.947 246.496Z" fill="#D18252"/>
<path d="M415.715 267.287L352.711 277.699L346.741 241.471L396.247 233.313L449.469 167.363C450.948 165.372 452.816 163.704 454.961 162.46C457.106 161.216 459.482 160.423 461.944 160.128C464.405 159.833 466.901 160.043 469.279 160.745C471.657 161.448 473.867 162.628 475.773 164.213C479.39 167.196 481.717 171.459 482.271 176.115C482.826 180.77 481.565 185.46 478.75 189.21L415.715 267.287Z" fill="#84B5D5"/>
<path d="M407.178 111.227C407.178 111.227 429.135 117.07 440.255 108.974C440.255 108.974 447.233 136.539 415.605 131.735C401.019 129.514 407.178 111.227 407.178 111.227Z" fill="#201D29"/>
<path d="M409.304 114.912C412.814 114.691 416.204 113.551 419.133 111.605C419.133 111.605 417.337 122.52 409.304 114.912Z" fill="white"/>
<path d="M317.948 232.21C317.948 232.21 309.049 222.539 314.893 215.294C320.736 208.048 321.477 206.284 318.043 200.802C318.043 200.802 332.534 202.031 325.918 211.734C322.768 216.302 320.201 219.247 318.326 223.783C317.098 226.807 317.948 232.21 317.948 232.21Z" fill="white"/>
<path d="M52.78 311.705L161.714 408.543" stroke="#6D5EAB" stroke-width="1.5751" stroke-miterlimit="10"/>
<path d="M149.696 301.436L38.6357 430.452" stroke="#6D5EAB" stroke-width="1.5751" stroke-miterlimit="10"/>
<path d="M174.315 294.757C175.512 291.906 176.047 290.189 176.047 290.189C156.39 296.238 116.194 292.426 101.514 277.998C86.8338 263.57 106.034 220.145 108.46 180.468C110.885 140.791 90.5507 135.94 90.5507 135.94C56.5915 117.747 43.7388 143.39 43.7388 143.39L54.5757 160.18L55.0956 200.393L45.4715 268.784L46.3537 303.436L64.6877 327.188L139.694 337.758C157.918 325.661 168.046 308.366 172.771 298.38C173.221 297.578 173.616 296.747 173.953 295.891L174.315 294.757Z" fill="#C1B6EE"/>
<path d="M143.506 327.834C120.242 334.985 74.4849 330.984 57.1746 313.832C39.8642 296.679 62.0734 243.047 64.9243 196.093C67.7753 149.139 43.7389 143.39 43.7389 143.39C43.7389 143.39 57.915 187.824 50.9846 219.121C44.5109 248.512 27.0115 300.522 50.5277 324.826C66.4205 341.254 100.805 345.727 131.283 342.152C137.379 341.427 139.805 339.569 142.435 332.701L143.506 327.834Z" fill="#AEA4D6"/>
<path d="M143.506 327.835C143.506 327.835 166.329 309.169 176.047 290.189C176.047 290.189 170.03 329.567 135.095 341.317C135.11 341.317 137.599 341.617 143.506 327.835Z" fill="#B3B3B3"/>
<path d="M130.511 109.053C127.093 101.524 114.76 92.3254 105.719 91.0496C88.5662 88.624 76.0756 108.486 72.1851 114.676C67.4598 122.079 63.0024 136.46 66.3416 145.8C70.9566 158.779 96.4888 169.694 111.83 163.205C129.156 155.849 137.883 125.481 130.511 109.053Z" fill="#201D29"/>
<path d="M152.264 242.59L209.849 247.567L212.716 214.506L167.479 210.6L135.646 160.071L111.783 183.13L152.264 242.59Z" fill="#11527E"/>
<path d="M182.049 419.615L214.905 447.652L174.142 445.983L168.314 438.832L164.974 445.573L154.406 445.101L160.281 416.465L182.049 419.615Z" fill="#201D29"/>
<path d="M199.674 434.658L197.815 442.895L170.613 441.667L174.142 445.983L214.905 447.652L199.674 434.658Z" fill="#201D29"/>
<path d="M166.912 441.667L155.209 441.147L154.406 445.101L164.974 445.573L166.912 441.667Z" fill="#201D29"/>
<path d="M81.8563 247.394C81.8563 247.394 74.4217 288.992 92.3306 299.262C111.799 310.414 157.933 337.175 157.933 337.175C157.933 337.175 161.761 376.773 160.863 388.901C160.123 399.013 160.123 412.874 160.28 416.544C160.406 419.442 181.875 420.954 182.048 419.694C183.041 412.59 185.057 398.178 185.797 393.091C188.947 371.323 192.097 338.388 189.987 320.258C187.782 301.798 131.425 260.215 131.425 260.215L81.8563 247.394Z" fill="#346A90"/>
<path d="M93.3389 416.938L106.082 459.339L72.9256 434.406L71.7916 425.065L65.4754 428.767L56.8911 422.246L76.8004 401.738L93.3389 416.938Z" fill="#201D29"/>
<path d="M100.175 439.682L94.3153 445.494L72.2324 428.751L72.9255 434.406L106.081 459.339L100.175 439.682Z" fill="#201D29"/>
<path d="M69.1296 426.625L59.6475 419.426L56.8911 422.246L65.4754 428.767L69.1296 426.625Z" fill="#201D29"/>
<path d="M74.7211 266.484C74.7211 266.484 55.9616 293.608 68.4207 310.587C76.1387 321.093 118.824 329.488 118.824 329.488C118.824 329.488 81.1473 397.218 73.3033 405.345L93.9215 418.86C98.9303 413.678 115.611 391.075 118.855 387.216C122.1 383.357 152.862 342.199 153.318 330.433C154.563 297.986 128.274 277.51 128.274 277.51L74.7211 266.484Z" fill="#4880A7"/>
<path d="M115.721 147.407L82.3759 156.054C64.7663 162.008 58.8756 173.9 61.2697 183.744L77.3041 239.156L74.0593 271.997L145.097 264.2L139.521 217.814C152.295 192.801 135.111 159.755 126.731 150.746C125.448 149.312 123.822 148.228 122.006 147.596C119.975 146.915 117.789 146.849 115.721 147.407Z" fill="white"/>
<path d="M88.6608 124.316L88.0151 151.896C88.3144 154.857 95.9692 161.992 103.955 163.3C105.044 163.463 106.156 163.366 107.199 163.015C108.243 162.665 109.189 162.071 109.958 161.283C110.727 160.496 111.298 159.537 111.624 158.485C111.949 157.433 112.02 156.319 111.83 155.235L108.176 134.239L88.6608 124.316Z" fill="#FFB673"/>
<path d="M111.012 150.368L109.437 140.917L92.2834 133.546L92.9764 137.342C92.9764 137.342 95.4496 143.611 111.012 150.368Z" fill="#E69F5E"/>
<path d="M87.1487 154.81L111.972 289.055L68.484 287.906L73.6658 230.068L54.0085 168.639C54.0085 168.639 65.7116 160.354 87.1487 154.81Z" fill="#11527E"/>
<path d="M116.556 147.233C116.556 147.233 135.363 150.21 140.891 167.788C148.042 190.501 145.097 213.466 145.097 213.466L164.722 280.944L138.702 283.732C138.702 283.732 123.722 230.021 138.591 205.15C147.491 190.249 116.556 147.233 116.556 147.233Z" fill="#11527E"/>
<path d="M87.1488 154.81L69.1296 188.501L86.2982 196.518L81.7934 214.411L102.112 235.738L87.1488 154.81Z" fill="#11527E"/>
<path d="M116.556 147.233C116.556 147.233 131.645 160.779 136.276 173.663L116.556 147.233Z" fill="#11527E"/>
<path d="M86.9912 154.983L87.6528 148.431L108.428 162.48L105.325 171.191L86.9912 154.983Z" fill="white"/>
<path d="M110.193 145.816L110.728 148.698L108.428 162.48L115.138 167.789L114.934 147.627L110.193 145.816Z" fill="white"/>
<path d="M105.436 171.6L86.8337 155.172L87.1488 154.81L105.215 170.765L108.208 162.402L108.665 162.559L105.436 171.6Z" fill="#11527E"/>
<path d="M115.39 168.277L108.287 162.669L108.586 162.291L114.886 167.284L114.682 147.627H115.17L115.39 168.277Z" fill="#11527E"/>
<path d="M89.4641 137.531L107.468 145.832C109.137 146.674 110.992 147.079 112.86 147.007C114.728 146.936 116.547 146.39 118.147 145.422C120.557 143.858 122.254 141.408 122.872 138.602L130.417 116.314L98.9147 103.556L89.4641 137.531Z" fill="#FFB673"/>
<path d="M130.511 116.314C130.779 117.889 102.553 125.764 97.6385 120.803C88.0146 111.1 88.5032 132.569 88.5032 132.569C88.5032 132.569 66.4516 97.712 102.49 92.1047C116.335 89.8838 128.18 102.768 130.511 116.314Z" fill="#201D29"/>
<path d="M86.4084 123.181C86.6787 124.535 87.3445 125.778 88.3216 126.754C89.2986 127.729 90.5428 128.393 91.8971 128.661C93.2514 128.929 94.655 128.789 95.9298 128.259C97.2046 127.729 98.2936 126.833 99.0589 125.684C99.8241 124.535 100.231 123.185 100.229 121.804C100.227 120.423 99.8146 119.075 99.0454 117.928C98.2762 116.782 97.1845 115.889 95.9079 115.364C94.6313 114.838 93.2274 114.703 91.874 114.975C90.0618 115.34 88.4684 116.409 87.4436 117.948C86.4189 119.486 86.0466 121.369 86.4084 123.181Z" fill="#FFB673"/>
<path d="M92.5195 128.742C92.7889 129.663 92.9267 130.617 92.9291 131.577C92.9291 135.373 90.8974 138.444 88.393 138.444C85.8886 138.444 83.8565 135.373 83.8565 131.577C83.8565 127.781 85.8886 124.71 88.393 124.71C88.6707 124.712 88.9466 124.754 89.2121 124.835V123.513C88.9435 123.45 88.6687 123.418 88.393 123.418C85.2428 123.418 82.5652 127.072 82.5652 131.577C82.5652 136.082 85.1798 139.736 88.393 139.736C91.6062 139.736 94.2208 136.082 94.2208 131.577C94.216 130.626 94.0943 129.679 93.8585 128.757C93.4127 128.792 92.9645 128.786 92.5195 128.742Z" fill="white"/>
<path d="M93.8114 124.048L92.3623 119.669L92.8033 119.512L94.2682 123.89L93.8114 124.048Z" fill="#201D29"/>
<path d="M95.3678 120.992L90.9912 122.457L91.1411 122.905L95.5177 121.44L95.3678 120.992Z" fill="#201D29"/>
<path d="M121.754 124.883C121.687 125.005 121.646 125.14 121.633 125.279C121.62 125.418 121.634 125.558 121.676 125.691C121.718 125.824 121.786 125.947 121.877 126.053C121.967 126.159 122.078 126.246 122.203 126.308C122.327 126.37 122.464 126.407 122.603 126.416C122.742 126.424 122.881 126.405 123.013 126.359C123.144 126.312 123.265 126.24 123.368 126.146C123.471 126.052 123.554 125.939 123.613 125.812C123.725 125.567 123.738 125.288 123.648 125.033C123.559 124.779 123.374 124.569 123.133 124.448C122.891 124.328 122.613 124.306 122.355 124.387C122.098 124.468 121.882 124.646 121.754 124.883Z" fill="#201D29"/>
<path d="M117.422 135.342C116.301 134.283 115.471 132.954 115.012 131.482C115 131.453 114.994 131.422 114.994 131.391C114.995 131.36 115.002 131.329 115.016 131.301C115.029 131.272 115.048 131.247 115.072 131.227C115.096 131.207 115.124 131.192 115.154 131.183C115.215 131.162 115.281 131.165 115.34 131.192C115.398 131.218 115.444 131.266 115.469 131.325C117.469 137.121 121.974 136.585 122.163 136.554C122.225 136.549 122.287 136.567 122.336 136.605C122.386 136.643 122.42 136.698 122.431 136.759C122.438 136.79 122.438 136.823 122.431 136.854C122.424 136.885 122.41 136.915 122.391 136.94C122.371 136.966 122.347 136.987 122.318 137.002C122.29 137.017 122.258 137.025 122.226 137.027C121.353 137.091 120.475 136.974 119.649 136.684C118.822 136.394 118.064 135.937 117.422 135.342Z" fill="#201D29"/>
<path d="M127.928 123.308L128.857 130.427C128.915 130.872 128.809 131.323 128.56 131.697C128.312 132.07 127.936 132.341 127.503 132.459L124.557 133.278L127.928 123.308Z" fill="#FFB673"/>
<path d="M197.579 246.496L200.619 213.451L201.092 213.498L198.052 246.543L197.579 246.496Z" fill="#22175E"/>
<path d="M143.915 272.769L224.497 270.832L199.327 261.932L87.448 268.894L143.915 272.769Z" fill="#CFC4FF"/>
<path d="M146.42 272.281L174.976 265.004L169.905 269.54L146.908 275.557H146.735C143.9 275.777 90.9132 272.911 89.3853 272.533C87.8575 272.155 87.448 268.863 87.448 268.863C87.448 268.863 144.782 272.596 146.42 272.281Z" fill="#AEA4D6"/>
<path d="M70.9883 264.72C70.9883 264.72 82.1715 270.422 91.4646 266.484C100.758 262.547 100.27 268.847 104.302 274.832C108.334 280.818 112.177 281.637 112.177 281.637C112.177 281.637 106.837 262.42 105.168 261.16C103.498 259.9 97.1982 259.286 97.1982 259.286L76.1862 253.285L70.9883 264.72Z" fill="#FFB673"/>
<path d="M89.7163 258.829C89.7163 258.829 106.664 257.853 108.917 259.538C123.502 270.438 119.249 273.43 119.249 273.43C119.249 273.43 107.42 265.145 103.924 262.405L89.7163 258.829Z" fill="#FFB673"/>
<path d="M88.6292 259.743C88.6292 259.743 104.9 254.892 107.53 256.01C124.242 263.271 120.777 267.162 120.777 267.162C120.777 267.162 107.357 261.822 103.341 259.979L88.6292 259.743Z" fill="#FFB673"/>
<path d="M87.0542 261.932C87.0542 261.932 101.782 253.49 104.554 254.057C122.478 257.333 120.006 261.932 120.006 261.932C120.006 261.932 105.719 259.774 101.372 258.908L87.0542 261.932Z" fill="#FFB673"/>
<path d="M76.1387 253.395C76.1387 253.395 101.34 251.41 103.483 251.332C117.013 250.78 115.973 254.482 115.973 254.482C115.973 254.482 95.3393 260.782 92.0473 260.782L76.1387 253.395Z" fill="#FFB673"/>
<path d="M150.42 274.675L225.222 271.446C231.144 269.603 231.034 260.199 231.034 260.199L241.524 204.724C242.097 202.017 241.594 199.193 240.123 196.849C239.521 195.736 238.598 194.829 237.475 194.248C236.351 193.666 235.078 193.437 233.822 193.589L159.021 196.833C154.059 197.778 154.295 202.441 153.208 208.064L142.183 266.059C142.876 271.588 146.546 275.415 150.42 274.675Z" fill="#FDFDFD"/>
<path d="M192.413 233.754C190.334 237.235 190.129 241.629 191.94 243.519C193.752 245.409 196.918 244.133 198.997 240.652C201.076 237.171 201.281 232.777 199.469 230.887C197.658 228.997 194.492 230.257 192.413 233.754Z" fill="#CFC4FF"/>
<path d="M21.719 230.068L64.7666 276.376L87.9678 252.655L59.5214 223.909L69.6965 207.229L87.1487 154.778L70.1376 159.771C57.3163 163.867 52.4334 168.041 46.5111 180.578L21.719 230.068Z" fill="#11527E"/>
<path d="M57.7732 268.863L57.4109 268.532L79.1945 244.89L79.541 245.22L57.7732 268.863Z" fill="#22175E"/>
<path d="M123.171 129.687C122.628 129.679 122.093 129.561 121.596 129.341C120.45 128.711 119.599 127.655 119.227 126.401C118.855 125.148 118.994 123.799 119.612 122.646C120.144 121.405 121.09 120.386 122.289 119.764C122.842 119.474 123.453 119.311 124.077 119.286C124.701 119.262 125.322 119.376 125.896 119.622C126.465 119.881 126.968 120.265 127.369 120.745C127.77 121.225 128.058 121.788 128.212 122.394C128.565 123.7 128.448 125.088 127.881 126.316C127.348 127.558 126.402 128.576 125.203 129.199C124.571 129.511 123.877 129.678 123.171 129.687ZM124.258 120.473C123.742 120.47 123.234 120.595 122.778 120.835C121.823 121.323 121.07 122.132 120.651 123.119C120.163 123.986 120.035 125.009 120.295 125.97C120.554 126.93 121.18 127.75 122.037 128.254C122.452 128.431 122.901 128.511 123.351 128.49C123.801 128.468 124.241 128.344 124.636 128.128C125.599 127.645 126.358 126.835 126.778 125.844C127.237 124.858 127.332 123.742 127.046 122.694C126.939 122.255 126.735 121.846 126.449 121.497C126.163 121.148 125.801 120.868 125.392 120.677C125.018 120.525 124.615 120.455 124.211 120.473H124.258Z" fill="white"/>
<path d="M120.037 123.465L100.301 121.418L100.112 120.236L120.179 122.3L120.037 123.465Z" fill="white"/>
<path d="M516.064 271.351H8V286.157H516.064V271.351Z" fill="#6D5EAB"/>
<path d="M539.218 428.294C529.453 421.994 529.878 400.163 538.037 391.689C542.195 387.357 546.354 388.633 547.866 384.491C550.512 377.245 539.36 369.307 542.148 361.1C543.456 357.257 546.102 358.423 548.748 353.887C553.473 345.854 547.645 337.962 551 330.417C553.961 323.739 561.805 318.966 565.885 320.967C571.35 323.739 572.989 340.34 566.862 348.893C564.83 351.713 562.136 353.319 562.404 356.28C562.656 360.344 567.775 360.502 569.287 364.77C571.965 372.284 558.954 380.002 561.144 389.972C562.026 393.973 564.294 393.39 566.121 398.068C569.445 406.731 566.121 420.497 556.671 426.609C556.104 426.955 546.495 433.02 539.218 428.294Z" fill="#079E1F"/>
<path d="M544.653 422.01L543.818 422.183C542.069 413.504 542.573 405.928 545.393 399.643C546.607 396.918 548.262 394.411 550.291 392.224C552.363 390.216 553.756 387.612 554.277 384.774C555.001 380.427 553.631 377.56 552.166 374.536C550.701 371.512 549.189 368.393 550.04 363.794C550.606 360.973 551.948 358.366 553.914 356.265C556.193 353.899 557.58 350.814 557.836 347.539C557.948 346.053 557.911 344.56 557.726 343.081C557.433 340.985 557.503 338.854 557.931 336.781C558.699 333.156 560.319 329.765 562.656 326.889L563.302 327.504C561.055 330.247 559.494 333.487 558.75 336.954C558.342 338.924 558.278 340.948 558.561 342.939C558.762 344.475 558.799 346.027 558.671 347.571C558.391 351.03 556.941 354.291 554.56 356.816C552.687 358.79 551.409 361.252 550.874 363.92C550.071 368.204 551.441 371.055 552.906 374.063C554.371 377.072 555.883 380.222 555.096 384.9C554.558 387.899 553.092 390.654 550.906 392.776C548.953 394.905 547.357 397.336 546.18 399.974C543.424 406.133 542.936 413.52 544.653 422.01Z" fill="#079E1F"/>
<path d="M543.581 428.168C532.713 427.176 524.507 407.976 528.193 396.793C530.067 391.075 534.131 390.256 533.8 385.924C533.233 378.379 520.538 376.647 519.703 368.188C519.325 364.235 522.05 364.014 522.538 358.738C523.42 349.555 515.34 345.365 515.261 337.222C515.182 330.008 519.987 322.196 524.35 322.101C530.146 321.975 538.069 335.694 536.163 346.011C535.533 349.414 533.91 352.028 535.233 354.532C537.045 357.95 541.534 355.698 544.479 358.722C549.724 364.046 541.597 376.82 547.346 384.428C549.693 387.578 551.425 386.003 554.812 389.153C561.112 395.154 563.664 408.7 557.962 418.419C557.568 419.175 551.693 428.909 543.581 428.168Z" fill="#079E1F"/>
<path d="M545.77 420.151L545.141 420.702C540.226 413.929 537.69 407.094 537.58 400.336C537.555 397.368 537.991 394.414 538.872 391.579C539.86 388.906 540.03 386 539.36 383.231C538.289 379.088 535.974 377.245 533.532 375.355C531.091 373.465 528.555 371.386 527.484 366.96C526.865 364.188 526.995 361.301 527.862 358.596C528.902 355.532 528.902 352.21 527.862 349.146C527.387 347.807 526.769 346.524 526.019 345.318C524.944 343.602 524.166 341.717 523.719 339.742C522.952 336.164 523.011 332.458 523.892 328.906L524.696 329.126C523.833 332.536 523.768 336.099 524.507 339.537C524.927 341.422 525.674 343.218 526.712 344.846C527.482 346.111 528.121 347.451 528.618 348.846C529.728 352.072 529.761 355.571 528.712 358.817C527.892 361.362 527.762 364.08 528.334 366.692C529.342 370.803 531.626 372.646 534.068 374.568C537.066 376.542 539.249 379.536 540.211 382.995C540.924 385.929 540.754 389.008 539.722 391.846C538.857 394.592 538.432 397.458 538.462 400.336C538.462 406.889 540.982 413.551 545.77 420.151Z" fill="white"/>
<path d="M553.899 416.922C547.913 410.621 551.693 395.138 558.892 390.649C562.577 388.365 565.349 390.051 567.098 387.389C570.154 382.663 563.412 374.993 566.72 369.685C568.295 367.196 569.98 368.519 572.611 365.794C577.336 360.959 574.359 354.265 577.966 349.524C581.116 345.334 587.559 343.412 590.142 345.664C593.623 348.673 592.142 360.786 586.377 365.716C584.487 367.291 582.345 367.984 582.014 370.126C581.541 373.055 585.164 374.142 585.59 377.466C586.314 383.325 575.761 386.349 575.745 393.799C575.745 396.808 577.478 396.824 578.014 400.494C579.022 407.282 574.485 416.465 566.736 419.033C566.216 419.19 558.372 421.663 553.899 416.922Z" fill="#079E1F"/>
<path d="M558.797 413.472H558.183C558.309 406.952 559.884 401.659 562.908 397.721C564.222 396.008 565.82 394.532 567.633 393.358C569.434 392.32 570.854 390.73 571.681 388.822C572.605 386.35 572.644 383.634 571.791 381.136C570.901 378.514 570.974 375.66 571.996 373.087C572.839 371.193 574.219 369.589 575.966 368.472C577.981 367.21 579.473 365.264 580.171 362.99C580.49 361.965 580.701 360.909 580.801 359.84C580.928 358.31 581.317 356.813 581.951 355.414C583.073 352.984 584.783 350.872 586.928 349.271L587.29 349.823C585.249 351.362 583.624 353.387 582.565 355.714C581.963 357.048 581.595 358.476 581.478 359.935C581.381 361.064 581.159 362.178 580.817 363.258C580.085 365.659 578.514 367.716 576.391 369.055C574.732 370.109 573.418 371.626 572.61 373.418C571.661 375.85 571.605 378.54 572.453 381.01C573.35 383.653 573.3 386.527 572.311 389.137C571.445 391.162 569.948 392.852 568.043 393.957C566.292 395.095 564.747 396.522 563.475 398.178C560.514 401.959 558.938 407.125 558.797 413.472Z" fill="white"/>
<path d="M569.602 451.149H533.06L522.144 409.047H580.533L569.602 451.149Z" fill="#6D5EAB"/>
</g>
</g>
<defs>
<filter id="filter0_d_690_1061" x="0.124499" y="0.85966" width="599.751" height="469.506" filterUnits="userSpaceOnUse" color-interpolation-filters="sRGB">
<feFlood flood-opacity="0" result="BackgroundImageFix"/>
<feColorMatrix in="SourceAlpha" type="matrix" values="0 0 0 0 0 0 0 0 0 0 0 0 0 0 0 0 0 0 127 0" result="hardAlpha"/>
<feOffset dy="3.1502"/>
<feGaussianBlur stdDeviation="3.93775"/>
<feComposite in2="hardAlpha" operator="out"/>
<feColorMatrix type="matrix" values="0 0 0 0 0 0 0 0 0 0 0 0 0 0 0 0 0 0 0.03 0"/>
<feBlend mode="normal" in2="BackgroundImageFix" result="effect1_dropShadow_690_1061"/>
<feBlend mode="normal" in="SourceGraphic" in2="effect1_dropShadow_690_1061" result="shape"/>
</filter>
<clipPath id="clip0_690_1061">
<rect width="584" height="453.755" fill="white" transform="translate(8 5.58496)"/>
</clipPath>
</defs>
</svg>
